<svg width="136" height="223" viewBox="0 0 136 223" fill="none" xmlns="http://www.w3.org/2000/svg">
<path d="M82.1246 56.663C82.1246 56.663 68.7246 10.163 48.2246 1.56302C27.7246 -7.03698 35.7246 34.863 48.9246 50.763C62.0246 66.663 84.2246 69.863 82.1246 56.663Z" fill="white"/>
<mask id="mask0_205_2660" style="mask-type:luminance" maskUnits="userSpaceOnUse" x="37" y="0" width="46" height="64">
<path d="M82.1246 56.663C82.1246 56.663 68.7246 10.163 48.2246 1.56297C27.7246 -7.03703 40.6246 32.163 53.9246 48.063C67.0246 63.963 84.2246 69.863 82.1246 56.663Z" fill="white"/>
</mask>
<g mask="url(#mask0_205_2660)">
<g opacity="0.5">
<path d="M68.8247 44.163C68.9247 44.163 69.0247 44.063 69.0247 44.063C69.0247 43.963 68.9247 43.963 68.8247 44.163Z" fill="#080809"/>
<path d="M63.0247 39.2632L62.8247 39.4632C63.0247 39.4632 63.0247 39.3632 63.0247 39.2632Z" fill="#080809"/>
<path d="M70.7246 42.9632C70.8246 42.9632 70.9246 42.8632 71.1246 42.7632L70.7246 42.9632Z" fill="#080809"/>
<path d="M71.0249 41.4632C71.0249 41.3632 71.1249 41.3632 71.1249 41.2632C71.0249 41.3632 71.0249 41.3632 71.0249 41.4632Z" fill="#080809"/>
<path d="M73.2245 49.363C73.2245 49.363 73.1245 49.363 73.1245 49.463C73.2245 49.363 73.2245 49.363 73.2245 49.363Z" fill="#080809"/>
<path d="M74.0249 49.363H74.1249C74.2249 49.263 74.0249 49.363 74.0249 49.363Z" fill="#080809"/>
<path d="M74.1245 48.863L74.2245 48.963C74.2245 48.963 74.2245 48.863 74.1245 48.863Z" fill="#080809"/>
<path d="M79.3247 48.9632L79.6247 48.7632C79.5247 48.8632 79.4247 48.8632 79.3247 48.9632Z" fill="#080809"/>
<path d="M72.9248 49.563C73.0248 49.563 73.1248 49.463 73.2248 49.463C73.0248 49.463 73.0248 49.363 72.9248 49.563Z" fill="#080809"/>
<path d="M68.7246 44.2631L68.8246 44.1631C68.8246 44.1631 68.7246 44.1631 68.7246 44.2631Z" fill="#080809"/>
<path d="M71.1248 43.3631C71.0248 43.2631 71.0248 43.2631 71.1248 43.3631V43.3631Z" fill="#080809"/>
<path d="M60.5247 37.863C60.4247 37.863 60.3247 37.863 60.3247 37.863C60.4247 38.063 60.5247 38.063 60.5247 37.863Z" fill="#080809"/>
<path d="M72.4246 47.463C73.0246 46.663 72.6246 47.663 73.3246 46.963C73.1246 46.963 72.9246 47.063 73.2246 46.663C73.7246 46.363 73.4246 46.863 74.0246 46.363L73.6246 46.463C73.8246 46.063 74.4246 45.763 74.2246 45.663C73.3246 46.363 74.0246 44.963 73.8246 44.863H73.9246L74.0246 44.263L73.9246 44.363C74.2246 43.863 74.3246 43.463 74.0246 43.363C73.5246 43.763 73.2246 42.963 72.8246 43.263C73.0246 43.263 73.1246 43.263 73.1246 43.463L72.6246 43.963C72.4246 43.763 73.1246 43.463 72.6246 43.563C72.0246 44.363 72.8246 43.763 72.9246 43.963C72.7246 44.063 72.5246 44.163 72.3246 44.163C72.5246 44.463 72.5246 44.863 73.4246 44.363C73.3246 44.563 73.0246 44.863 72.9246 44.863C73.5246 44.563 72.6246 45.463 73.2246 45.163C72.5246 45.763 72.5246 45.163 72.0246 45.463C72.3246 44.663 71.5246 44.963 71.1246 44.863C71.5246 44.363 72.1246 44.063 72.3246 43.663C72.3246 43.063 71.8246 43.763 71.4246 43.863C71.4246 43.563 72.1246 42.963 71.9246 42.663L72.4246 42.463C72.9246 41.563 72.0246 42.663 72.0246 42.363C71.9246 42.563 71.7246 42.763 71.9246 42.863C71.7246 43.163 71.5246 43.163 71.4246 43.163V43.263C71.0246 43.563 70.7246 43.963 70.6246 43.563C71.1246 43.263 70.7246 43.063 70.9246 42.863L71.0246 42.763C70.7246 42.763 70.6246 42.563 70.5246 42.663L70.6246 42.563C70.3246 42.663 69.8246 43.163 69.8246 42.963C70.0246 42.763 70.7246 42.263 70.4246 42.263C70.7246 41.963 70.9246 42.063 71.0246 42.363C71.0246 42.063 71.3246 41.463 71.5246 41.663C71.8246 41.163 71.2246 41.663 71.2246 41.363C71.1246 41.463 71.0246 41.663 70.9246 41.763C71.4246 41.163 70.6246 41.363 70.2246 41.763L70.6246 41.563C70.2246 42.063 69.8246 42.163 69.6246 42.463C70.1246 41.663 68.8246 42.463 69.2246 41.763L69.0246 42.163C68.8246 41.663 67.8246 42.263 67.3246 42.163C67.6246 42.063 68.3246 41.163 68.3246 41.663C68.1246 41.263 68.8246 40.763 69.0246 40.263C68.9246 39.763 68.3246 40.963 68.0246 41.063H68.3246C67.3246 41.863 67.7246 40.263 66.9246 40.563C67.1246 40.263 67.1246 40.463 67.2246 40.463C67.4246 39.863 66.9246 40.463 66.7246 40.563C66.6246 40.363 66.5246 39.963 67.0246 39.463C66.9246 39.163 66.8246 39.863 66.5246 39.963L66.6246 39.763L65.9246 40.263C65.9246 39.963 65.9246 39.463 66.2246 38.763C65.7246 38.563 65.1246 40.063 64.6246 40.063C64.6246 39.663 65.0246 39.563 65.1246 39.363L64.8246 39.263C65.4246 38.663 65.4246 39.163 65.9246 38.263C65.1246 38.963 65.4246 38.263 64.8246 38.663V38.763C64.3246 39.263 64.2246 38.663 64.0246 38.663C64.3246 38.363 64.5246 38.463 64.7246 38.363C64.7246 37.963 63.9246 37.863 63.3246 38.563C63.3246 38.363 63.2246 37.963 63.5246 37.663C63.1246 37.263 62.7246 38.663 62.4246 38.163L62.7246 37.563C62.8246 36.463 61.5246 37.863 61.5246 36.863L61.1246 37.563C61.2246 37.263 61.1246 36.963 61.2246 36.663L61.5246 36.563C61.6246 35.863 61.0246 37.063 61.0246 36.463C60.9246 36.663 60.8246 37.263 60.7246 37.463C61.8246 37.463 62.0246 38.963 63.2246 38.763C63.2246 38.663 63.2246 38.563 63.3246 38.463C63.3246 38.663 63.6246 38.563 63.3246 38.963H63.2246C63.5246 38.963 63.2246 39.863 63.3246 39.963C63.7246 39.563 63.6246 40.463 64.0246 39.563L63.8246 40.163C64.0246 39.863 64.3246 39.463 64.4246 39.363C64.5246 39.563 64.3246 39.863 64.1246 39.963C64.4246 40.663 65.1246 40.963 65.8246 41.063L65.4246 41.363C65.4246 41.663 66.3246 41.063 65.6246 41.863C66.1246 41.663 66.1246 42.663 66.8246 41.763C66.3246 42.763 67.1246 42.663 67.6246 42.763C68.2246 41.963 68.1246 42.763 68.5246 42.463C68.1246 43.063 67.7246 42.863 67.4246 43.263C68.5246 42.563 67.8246 44.763 69.3246 43.263C69.3246 43.363 69.2246 43.463 69.2246 43.463C69.3246 43.563 69.1246 43.863 69.1246 43.963C69.4246 43.763 69.3246 43.463 69.6246 43.563C69.7246 43.763 69.3246 44.063 69.1246 44.363C69.6246 44.263 70.2246 44.463 70.7246 43.863C70.6246 44.063 70.4246 44.463 70.2246 44.563C71.0246 44.463 70.5246 44.963 71.2246 45.063C71.0246 44.963 70.6246 45.663 70.6246 45.163C70.0246 46.163 71.3246 45.563 71.2246 46.263L71.8246 45.863C72.1246 45.963 71.6246 46.463 71.3246 46.563C71.3246 47.163 71.8246 46.963 72.0246 47.263C72.0246 47.363 71.8246 47.463 71.8246 47.363L72.1246 47.663C72.3246 47.563 72.6246 47.463 72.9246 47.063C72.6246 47.763 72.4246 47.863 72.4246 47.463Z" fill="#080809"/>
<path d="M71.8246 42.1631C71.7246 42.3631 71.7246 42.4631 71.7246 42.4631C71.8246 42.3631 71.8246 42.2631 71.8246 42.1631Z" fill="#080809"/>
<path d="M77.1246 49.8631C77.9246 49.0631 76.8246 49.7631 76.8246 49.3631C77.1246 49.3631 77.5246 48.9631 77.7246 48.6631C76.5246 49.4631 77.7246 48.2631 77.2246 48.0631C77.5246 47.7631 77.7246 47.8631 78.1246 47.5631C77.7246 47.6631 77.2246 47.4631 76.6246 47.9631C76.3246 47.6631 76.3246 47.2631 76.0246 47.1631C76.5246 47.1631 76.6246 46.6631 77.3246 46.3631C76.4246 46.7631 75.1246 47.0631 74.0246 47.5631C74.6246 46.8631 74.6246 46.8631 75.2246 46.2631C75.2246 45.4631 74.5246 46.7631 74.4246 46.1631L74.5246 46.4631C74.1246 46.4631 73.6246 47.0631 73.1246 47.4631L73.6246 47.7631C73.2246 48.1631 73.0246 47.8631 72.8246 47.8631C72.2246 48.2631 72.7246 48.4631 72.2246 48.7631C72.6246 48.4631 72.6246 48.7631 72.9246 48.6631L72.7246 48.8631C72.6246 49.2631 73.3246 48.8631 73.5246 48.9631C73.4246 49.0631 73.4246 49.0631 73.4246 49.1631C73.7246 48.9631 74.1246 48.7631 74.3246 48.7631L74.2246 48.6631C74.9246 48.2631 75.6246 48.2631 76.0246 47.4631L76.2246 48.0631C75.5246 48.5631 74.5246 49.3631 74.2246 49.2631L73.9246 49.4631C73.7246 49.9631 74.9246 49.5631 75.3246 48.8631C77.0246 47.6631 76.0246 49.4631 76.9246 49.1631C76.5246 49.5631 76.2246 49.5631 75.8246 49.7631C75.7246 49.6631 75.6246 49.6631 75.9246 49.3631C75.3246 49.1631 74.7246 50.6631 74.4246 50.0631C74.4246 49.6631 75.3246 49.7631 75.1246 49.3631L73.8246 50.1631C74.0246 50.3631 74.4246 50.3631 74.6246 50.3631C76.2246 50.5631 76.1246 51.7631 76.1246 51.7631C77.4246 52.9631 78.7246 54.2631 79.9246 55.5631C80.4246 55.8631 80.5246 56.0631 81.8246 55.3631C82.0246 55.0631 81.7246 54.8631 82.2246 54.6631C81.7246 54.9631 81.3246 54.9631 81.2246 54.6631C81.6246 54.2631 81.6246 54.7631 81.6246 54.5631V54.4631C81.8246 54.3631 82.0246 54.2631 82.1246 54.3631C82.6246 53.5631 82.0246 53.1631 81.1246 53.6631C81.4246 53.0631 81.9246 53.2631 82.3246 53.1631C82.0246 52.1631 81.6246 51.6631 81.0246 50.8631C80.2246 51.4631 80.5246 51.1631 79.9246 51.4631L80.1246 51.1631C80.0246 51.2631 79.4246 51.6631 79.3246 51.9631C79.5246 51.0631 77.9246 52.2631 77.3246 52.2631L77.7246 51.9631C77.4246 51.7631 77.4246 51.7631 77.0246 51.6631C77.4246 50.6631 77.4246 51.8631 78.3246 50.9631H78.0246C78.4246 50.6631 79.1246 50.2631 79.5246 50.1631C78.6246 50.3631 79.3246 49.3631 78.4246 49.4631C78.9246 49.1631 79.5246 49.2631 79.7246 49.2631C79.6246 49.0631 79.1246 49.0631 79.5246 48.7631L78.9246 49.1631C78.6246 48.9631 79.4246 48.7631 79.7246 48.3631C79.0246 48.0631 77.8246 50.0631 77.1246 49.8631Z" fill="#080809"/>
<path d="M72.0249 44.2632C72.0249 44.3632 72.1249 44.3632 72.2249 44.3632C72.1249 44.2632 72.1249 44.2632 72.0249 44.2632Z" fill="#080809"/>
<path d="M74.0249 44.263C74.1249 44.163 74.1249 44.163 74.2249 44.063C74.1249 44.163 74.0249 44.163 74.0249 44.263Z" fill="#080809"/>
<path d="M74.8246 43.6631C74.6246 43.9631 74.5246 43.8631 74.2246 44.0631C74.4246 43.9631 74.6246 44.1631 74.8246 43.6631Z" fill="#080809"/>
<path d="M53.1247 31.1631C53.0247 31.3631 52.8247 31.4631 52.8247 31.6631L53.2247 31.4631L53.1247 31.1631Z" fill="#080809"/>
<path d="M53.5249 32.0631L53.7249 32.3631L54.2249 31.4631C53.8249 31.4631 53.8249 32.1631 53.5249 32.0631Z" fill="#080809"/>
<path d="M54.1249 32.863L54.0249 33.063C54.1249 32.963 54.1249 32.863 54.1249 32.863Z" fill="#080809"/>
<path d="M54.2249 32.463L54.5249 31.863L54.0249 32.263L54.1249 32.463C54.0249 32.663 54.1249 32.863 54.1249 32.963L54.4249 32.563C54.3249 32.463 54.2249 32.563 54.2249 32.463Z" fill="#080809"/>
<path d="M54.9248 33.9631C54.9248 33.6631 55.2248 33.3631 55.3248 33.0631C55.1248 32.7631 54.8248 33.6631 54.6248 33.3631C55.1248 32.9631 54.6248 32.9631 54.6248 32.4631C54.5248 33.0631 54.5248 33.5631 54.7248 33.8631L54.9248 33.4631C55.0248 33.4631 54.8248 33.7631 54.9248 33.9631Z" fill="#080809"/>
<path d="M56.6245 33.463L56.2245 33.963C56.3245 33.663 55.9245 33.463 56.2245 32.863C56.0245 32.863 55.9245 33.163 55.8245 33.263C55.8245 32.863 55.8245 32.663 55.6245 33.063C56.0245 33.663 55.8245 33.763 56.1245 34.163C56.0245 34.263 56.0245 34.263 55.9245 34.163L56.1245 34.663C56.3245 33.963 56.7245 34.063 56.6245 33.463Z" fill="#080809"/>
<path d="M56.9247 34.0631C56.7247 33.9631 56.3247 34.5631 56.3247 34.9631L57.0247 34.6631C56.8247 34.6631 56.6247 34.6631 56.9247 34.0631Z" fill="#080809"/>
<path d="M57.2248 34.2631C57.2248 34.6631 57.0248 35.3631 57.4248 34.7631C57.2248 34.7631 57.7248 33.8631 57.2248 34.2631Z" fill="#080809"/>
<path d="M58.6248 35.4631L58.3248 34.8631C58.6248 34.0631 58.6248 34.6631 58.9248 34.3631C58.6248 34.0631 58.6248 34.3631 58.1248 34.7631C58.0248 34.6631 57.7248 34.9631 57.4248 35.1631C58.4248 34.7631 57.6248 36.7631 58.6248 35.4631Z" fill="#080809"/>
<path d="M58.1248 34.2632L57.9248 34.5632L58.2248 34.4632L58.1248 34.2632Z" fill="#080809"/>
<path d="M59.2247 36.863C59.0247 37.863 59.9247 36.563 60.0247 37.163C59.9247 37.163 59.9247 37.263 59.8247 37.363H60.1247L60.0247 37.563C60.3247 37.063 60.6247 36.963 61.0247 36.563C61.0247 35.863 60.5247 37.163 60.6247 36.463C60.8247 36.263 61.0247 35.863 61.2247 35.763C60.9247 35.963 60.7247 36.263 60.5247 36.563C60.3247 36.563 60.5247 36.263 60.6247 36.063C60.3247 36.263 59.8247 37.063 59.7247 36.763C59.8247 36.163 60.2247 36.063 59.8247 36.063C59.5247 37.063 59.6247 35.763 59.2247 36.263C59.1247 35.963 59.1247 35.363 59.3247 35.063C59.0247 35.763 58.5247 36.263 58.3247 36.363C58.5247 36.263 58.7247 36.063 59.0247 35.963L58.8247 36.863C59.0247 36.463 59.1247 36.563 59.2247 36.863Z" fill="#080809"/>
<path d="M61.2246 35.663C61.3246 35.663 61.3246 35.563 61.4246 35.563C61.4246 35.563 61.3246 35.563 61.2246 35.663Z" fill="#080809"/>
<path d="M59.3247 34.6632L59.5247 34.5632V34.2632L59.3247 34.6632Z" fill="#080809"/>
<path d="M61.7249 35.163C61.7249 35.063 61.5249 35.363 61.5249 35.363L61.8249 35.063L61.7249 35.163Z" fill="#080809"/>
<path d="M61.7245 35.863L61.6245 36.363L61.9245 36.063L61.7245 35.863Z" fill="#080809"/>
<path d="M66.6249 39.3631C66.6249 38.9631 66.3249 39.4631 66.0249 39.8631C66.2249 40.1631 66.3249 39.4631 66.6249 39.3631Z" fill="#080809"/>
<path d="M70.1249 41.0631C70.2249 40.6631 69.6249 40.9631 69.5249 40.8631C69.4249 41.1631 69.8249 41.1631 70.1249 41.0631Z" fill="#080809"/>
<path d="M72.6249 40.563C72.4249 40.663 72.3249 40.663 72.4249 40.863L71.5249 41.563C71.5249 41.963 72.4249 40.863 72.6249 40.563Z" fill="#080809"/>
<path d="M74.2249 41.6631L73.7249 41.7631L73.8249 41.8631C73.5249 42.1631 73.3249 42.2631 73.0249 42.4631C73.3249 42.4631 73.7249 42.2631 74.2249 41.6631Z" fill="#080809"/>
<path d="M72.6245 42.4631H72.7245C72.8245 42.3631 72.9245 42.1631 72.6245 42.4631Z" fill="#080809"/>
<path d="M72.8246 42.5631C72.8246 42.5631 72.9246 42.5631 72.9246 42.4631C72.8246 42.4631 72.7246 42.4631 72.7246 42.4631C72.7246 42.5631 72.7246 42.6631 72.8246 42.5631Z" fill="#080809"/>
<path d="M74.0249 42.1631L74.5249 42.4631V42.1631C74.0249 42.6631 74.5249 41.7631 74.0249 42.1631Z" fill="#080809"/>
<path d="M75.6246 44.4631L75.2246 44.9631C75.3246 45.2631 76.6246 44.5631 76.0246 45.4631C76.2246 45.0631 76.7246 45.1631 76.6246 44.7631C76.1246 45.0631 75.7246 44.7631 75.6246 44.4631Z" fill="#080809"/>
<path d="M75.8249 46.0632C75.6249 46.1632 75.6249 46.2632 75.5249 46.4632C75.5249 46.5632 75.8249 46.4632 76.0249 46.2632C75.3249 46.7632 76.3249 45.7632 75.8249 46.0632Z" fill="#080809"/>
<path d="M76.9246 47.0631C76.8246 46.9631 76.7246 46.9631 76.7246 47.1631C76.9246 47.3631 77.4246 46.7631 77.8246 46.5631C77.9246 46.1631 77.1246 46.6631 76.9246 47.0631Z" fill="#080809"/>
<path d="M74.9248 51.9632C75.3248 51.5632 75.1248 51.4632 74.9248 51.5632C75.0248 51.4632 75.0248 51.7632 74.9248 51.9632Z" fill="#080809"/>
<path d="M78.4246 48.8632V48.7632L77.7246 49.2632L78.4246 48.8632Z" fill="#080809"/>
<path d="M79.9248 49.8631L80.4248 49.6631L80.1248 49.4631L79.9248 49.8631Z" fill="#080809"/>
<path d="M80.0249 50.1632L80.2249 50.3632L80.3249 50.1632C80.3249 49.9632 80.0249 50.2632 80.0249 50.1632Z" fill="#080809"/>
<path d="M80.6246 50.7631C80.5246 50.7631 80.6246 50.6631 80.6246 50.6631H80.2246L80.6246 50.7631Z" fill="#080809"/>
<path d="M80.6245 56.463C80.1245 56.763 80.5245 56.763 80.5245 56.863C80.6245 56.763 81.1245 56.263 80.6245 56.463Z" fill="#080809"/>
</g>
</g>
<path d="M15.6245 226.963C24.1849 226.963 31.1245 220.023 31.1245 211.463C31.1245 202.902 24.1849 195.963 15.6245 195.963C7.0641 195.963 0.124512 202.902 0.124512 211.463C0.124512 220.023 7.0641 226.963 15.6245 226.963Z" fill="white"/>
<mask id="mask1_205_2660" style="mask-type:luminance" maskUnits="userSpaceOnUse" x="0" y="195" width="32" height="32">
<path d="M15.6245 226.963C24.1849 226.963 31.1245 220.023 31.1245 211.463C31.1245 202.902 24.1849 195.963 15.6245 195.963C7.0641 195.963 0.124512 202.902 0.124512 211.463C0.124512 220.023 7.0641 226.963 15.6245 226.963Z" fill="white"/>
</mask>
<g mask="url(#mask1_205_2660)">
<g opacity="0.5">
<path d="M21.5246 215.963C21.4246 215.963 21.3246 215.963 21.2246 215.963C21.2246 216.063 21.3246 216.063 21.5246 215.963Z" fill="#080809"/>
<path d="M19.1245 216.063C19.0245 216.063 18.9245 215.963 18.6245 215.963L19.1245 216.063Z" fill="#080809"/>
<path d="M18.0248 217.263C17.9248 217.263 17.9248 217.363 17.9248 217.363C17.9248 217.363 18.0248 217.363 18.0248 217.263Z" fill="#080809"/>
<path d="M20.0247 208.463V208.363H19.9247C19.8247 208.363 19.9247 208.463 20.0247 208.463Z" fill="#080809"/>
<path d="M19.6244 208.763L19.5244 208.663C19.5244 208.663 19.5244 208.763 19.6244 208.763Z" fill="#080809"/>
<path d="M21.0246 208.963C20.9246 208.963 20.8246 208.963 20.7246 208.963C20.8246 208.963 20.9246 209.063 21.0246 208.963Z" fill="#080809"/>
<path d="M18.9248 215.463C19.0248 215.563 19.0248 215.563 18.9248 215.463V215.463Z" fill="#080809"/>
<path d="M20.2245 211.063C19.2245 211.363 20.1245 210.763 19.1245 210.963C19.3245 211.063 19.5245 211.163 19.0245 211.363C18.4245 211.363 19.0245 211.063 18.1245 211.163L18.5245 211.363C18.1245 211.563 17.4245 211.563 17.5245 211.663C18.7245 211.663 17.2245 212.463 17.4245 212.563L17.3245 212.463L16.8245 212.963C16.8245 212.963 16.8245 212.963 16.7245 212.963C16.8245 212.963 16.8245 212.963 16.9245 212.963C16.4245 213.263 16.0245 213.563 16.2245 213.863C16.9245 213.763 16.7245 214.663 17.2245 214.663C17.0245 214.563 17.0245 214.463 17.1245 214.263L17.9245 214.063C18.0245 214.363 17.2245 214.263 17.7245 214.363C18.7245 214.063 17.6245 213.963 17.7245 213.763C18.0245 213.763 18.2245 213.763 18.3245 213.863C18.2245 213.463 18.5245 213.063 17.4245 213.063C17.6245 212.863 18.1245 212.863 18.2245 212.863C17.5245 212.763 18.8245 212.563 18.1245 212.463C19.1245 212.263 18.7245 212.863 19.4245 212.963C18.7245 213.463 19.6245 213.763 19.8245 214.063C19.1245 214.263 18.4245 214.163 18.0245 214.463C17.6245 214.963 18.5245 214.763 19.0245 214.763C18.8245 215.063 17.8245 215.163 17.9245 215.563L17.4245 215.463C16.5245 216.063 17.9245 215.563 17.7245 215.863C17.9245 215.763 18.2245 215.663 18.1245 215.463C18.5245 215.363 18.7245 215.463 18.7245 215.463V215.363C19.2245 215.263 19.8245 215.163 19.6245 215.463C19.0245 215.463 19.2245 215.763 19.0245 215.963H18.9245C19.2245 216.063 19.1245 216.263 19.3245 216.363H19.2245C19.5245 216.463 20.2245 216.163 20.2245 216.463C19.9245 216.563 19.0245 216.563 19.2245 216.763C18.8245 216.863 18.6245 216.663 18.7245 216.363C18.6245 216.663 17.9245 216.963 17.8245 216.763C17.3245 217.063 18.1245 216.963 17.9245 217.163C18.1245 217.063 18.3245 217.063 18.4245 216.963C17.6245 217.263 18.5245 217.463 19.0245 217.263L18.5245 217.163C19.1245 216.963 19.6245 217.063 19.9245 216.863C19.0245 217.363 20.6245 217.263 19.9245 217.763L20.3245 217.463C20.2245 218.063 21.5245 217.963 21.9245 218.363C21.5245 218.363 20.5245 218.763 20.7245 218.363C20.7245 218.863 19.7245 218.963 19.3245 219.363C19.1245 219.863 20.3245 219.163 20.7245 219.063L20.4245 218.863C21.7245 218.663 20.6245 219.863 21.5245 220.063C21.2245 220.263 21.3245 220.063 21.1245 220.063C20.6245 220.563 21.3245 220.163 21.6245 220.263C21.6245 220.563 21.5245 220.963 20.7245 221.163C20.7245 221.463 21.1245 220.863 21.4245 220.863L21.3245 220.963L22.2245 220.763C22.1245 221.063 21.8245 221.563 21.2245 222.063C21.6245 222.463 22.9245 221.263 23.3245 221.463C23.1245 221.863 22.8245 221.763 22.5245 221.863L22.8245 222.163C22.0245 222.563 22.2245 222.063 21.3245 222.663C22.4245 222.363 21.8245 222.863 22.6245 222.763L22.7245 222.663C23.4245 222.463 23.2245 223.063 23.5245 223.163C23.1245 223.363 22.9245 223.163 22.7245 223.063C22.6245 223.463 23.2245 223.863 24.1245 223.463C24.1245 223.663 24.0245 224.163 23.5245 224.263C23.7245 224.763 24.7245 223.563 24.8245 224.163L24.2245 224.563C23.7245 225.563 25.5245 224.763 25.1245 225.663L25.8245 225.063C25.6245 225.363 25.6245 225.663 25.4245 225.863H25.0245C24.6245 226.463 25.7245 225.563 25.5245 226.063C25.7245 225.863 26.0245 225.363 26.2245 225.163C25.7245 224.963 25.5245 224.463 25.3245 224.063C25.1245 223.563 24.9245 223.163 24.2245 223.063C24.1245 223.163 24.1245 223.263 23.9245 223.363C24.0245 223.163 23.7245 223.163 24.1245 222.863H24.2245C23.9245 222.763 24.6245 221.963 24.5245 221.863C24.0245 222.063 24.4245 221.263 23.6245 221.963L24.0245 221.463C23.7245 221.663 23.3245 221.863 23.0245 221.963C23.0245 221.763 23.3245 221.563 23.6245 221.563C23.6245 220.763 23.1245 220.163 22.5245 219.763L23.0245 219.663C23.1245 219.463 22.0245 219.563 23.1245 219.063C22.5245 218.963 23.0245 218.163 21.9245 218.663C22.9245 217.963 22.1245 217.763 21.7245 217.363C20.7245 217.863 21.3245 217.163 20.8245 217.163C21.5245 216.763 21.8245 217.163 22.3245 216.963C20.9245 216.963 22.7245 215.463 20.6245 215.963C20.7245 215.863 20.7245 215.863 20.8245 215.863C20.8245 215.763 21.1245 215.563 21.1245 215.463C20.7245 215.563 20.6245 215.763 20.4245 215.663C20.4245 215.463 21.0245 215.363 21.3245 215.163C20.7245 214.963 20.4245 214.563 19.5245 214.763C19.7245 214.563 20.1245 214.363 20.3245 214.363C19.5245 214.063 20.3245 213.863 19.7245 213.463C19.8245 213.663 20.6245 213.263 20.3245 213.663C21.4245 213.163 19.9245 212.963 20.4245 212.363H19.6245C19.4245 212.163 20.1245 211.963 20.4245 212.063C20.8245 211.563 20.2245 211.363 20.2245 211.063C20.3245 211.063 20.4245 210.963 20.4245 211.063L20.3245 210.563C20.1245 210.563 19.7245 210.463 19.2245 210.563C20.2245 210.663 20.5245 210.663 20.2245 211.063Z" fill="#080809"/>
<path d="M17.6245 216.163C17.8245 216.063 17.8245 215.963 17.9245 215.963C17.8245 215.963 17.7245 216.063 17.6245 216.163Z" fill="#080809"/>
<path d="M17.7247 206.063C16.5247 206.263 17.9247 206.363 17.6247 206.663C17.4247 206.463 16.7247 206.563 16.4247 206.663C18.0247 206.763 16.1247 207.063 16.5247 207.463C16.0247 207.563 15.9247 207.263 15.3247 207.363C15.7247 207.563 16.0247 208.063 16.8247 207.963C16.9247 208.463 16.6247 208.763 16.8247 209.063C16.4247 208.763 15.9247 209.163 15.2247 208.963C16.2247 209.163 17.5247 209.763 18.8247 210.063C17.9247 210.263 17.8247 210.363 16.9247 210.463C16.4247 211.163 17.8247 210.463 17.6247 211.063L17.7247 210.763C18.0247 210.963 18.9247 210.763 19.5247 210.763L19.3247 210.163C19.9247 210.063 19.9247 210.463 20.1247 210.463C20.9247 210.463 20.6247 210.063 21.2247 209.963C20.7247 209.963 20.8247 209.763 20.6247 209.663L20.9247 209.563C21.2247 209.263 20.3247 209.263 20.3247 208.963C20.4247 208.963 20.5247 208.863 20.5247 208.863C20.1247 208.863 19.6247 208.863 19.5247 208.663L19.6247 208.763C18.8247 208.663 18.2247 208.163 17.3247 208.663L17.5247 207.963C18.4247 207.963 19.8247 207.863 19.9247 208.163H20.3247C20.8247 207.863 19.5247 207.563 18.8247 207.763C16.6247 207.763 18.6247 206.863 17.7247 206.463C18.3247 206.363 18.5247 206.563 19.0247 206.663C19.1247 206.763 19.1247 206.863 18.6247 206.963C19.0247 207.463 20.5247 206.663 20.3247 207.263C20.0247 207.563 19.3247 206.963 19.3247 207.463L21.0247 207.563C20.9247 207.263 20.6247 207.063 20.4247 206.863C19.8247 206.263 19.7247 205.763 19.8247 205.363C19.9247 204.963 20.1247 204.763 20.1247 204.763C19.8247 202.863 19.6247 201.063 19.5247 199.163C19.3247 198.563 19.4247 198.363 17.8247 197.963C17.5247 198.063 17.6247 198.463 17.0247 198.263C17.6247 198.363 17.9247 198.663 17.8247 198.963C17.2247 198.963 17.5247 198.663 17.4247 198.763V198.863C17.1247 198.763 16.9247 198.763 16.9247 198.663C16.0247 198.963 16.1247 199.663 17.3247 199.963C16.7247 200.263 16.4247 199.763 15.9247 199.563C15.4247 200.663 15.5247 201.363 15.4247 202.463C16.4247 202.463 16.1247 202.563 16.8247 202.663L16.4247 202.763C16.6247 202.763 17.3247 202.863 17.5247 202.663C16.7247 203.263 18.9247 203.363 19.4247 203.663H18.8247C18.9247 203.963 18.9247 204.063 19.2247 204.363C18.2247 204.963 19.0247 203.863 17.7247 204.163L17.9247 204.263C17.4247 204.163 16.5247 204.163 16.1247 203.963C17.0247 204.463 15.8247 204.763 16.5247 205.263C15.9247 205.263 15.4247 204.763 15.3247 204.563C15.3247 204.763 15.7247 205.063 15.2247 205.163H16.0247C16.1247 205.463 15.3247 205.163 14.8247 205.363C14.9247 206.363 17.2247 205.463 17.7247 206.063Z" fill="#080809"/>
<path d="M15.8247 212.963C16.1247 212.863 16.2247 212.963 16.6247 212.963C16.3247 212.963 16.2247 212.663 15.8247 212.963Z" fill="#080809"/>
<path d="M21.1247 221.463C20.9247 221.763 21.5247 221.463 21.9247 221.263C21.9247 220.963 21.4247 221.563 21.1247 221.463Z" fill="#080809"/>
<path d="M18.6245 218.163C18.3245 218.563 19.0245 218.463 19.0245 218.763C19.3245 218.363 19.0245 218.163 18.6245 218.163Z" fill="#080809"/>
<path d="M15.9248 217.163C16.1248 217.163 16.2248 217.163 16.3248 217.063L17.5248 216.863C17.7248 216.463 16.4248 216.963 15.9248 217.163Z" fill="#080809"/>
<path d="M15.2246 215.163L15.7246 215.363V215.163C16.2246 215.163 16.4246 215.163 16.8246 215.163C16.4246 215.063 16.0246 214.963 15.2246 215.163Z" fill="#080809"/>
<path d="M17.0247 215.463L16.9247 215.363C16.8247 215.363 16.7247 215.463 17.0247 215.463Z" fill="#080809"/>
<path d="M16.9247 215.163C16.8247 215.163 16.8247 215.163 16.8247 215.163C16.9247 215.163 16.9247 215.263 17.0247 215.263C17.0247 215.263 17.1247 215.263 16.9247 215.163Z" fill="#080809"/>
<path d="M15.6245 214.763L15.3245 214.263L15.1245 214.563C15.9245 214.363 14.9245 214.963 15.6245 214.763Z" fill="#080809"/>
<path d="M15.5248 211.663L16.2248 211.463C16.3248 211.063 14.7248 210.863 15.8248 210.463C15.4248 210.663 15.0248 210.263 14.9248 210.763C15.5248 210.863 15.7248 211.463 15.5248 211.663Z" fill="#080809"/>
<path d="M16.3245 210.163C16.5245 210.163 16.6245 210.063 16.8245 209.963C16.9245 209.863 16.5245 209.763 16.2245 209.863C17.2245 209.863 15.7245 210.163 16.3245 210.163Z" fill="#080809"/>
<path d="M16.0244 208.563C16.0244 208.663 16.1244 208.763 16.3244 208.663C16.2244 208.363 15.4244 208.563 15.0244 208.463C14.5244 208.763 15.6244 208.863 16.0244 208.563Z" fill="#080809"/>
<path d="M20.8245 205.763C20.2245 205.863 20.3245 206.063 20.5245 206.063C20.4245 205.963 20.6245 205.863 20.8245 205.763Z" fill="#080809"/>
<path d="M15.9247 206.063L15.8247 206.163H16.7247L15.9247 206.063Z" fill="#080809"/>
<path d="M15.3246 204.263L14.7246 204.063L14.8246 204.363L15.3246 204.263Z" fill="#080809"/>
<path d="M15.4245 203.863L15.3244 203.563L15.1244 203.663C15.0244 203.863 15.4245 203.763 15.4245 203.863Z" fill="#080809"/>
<path d="M15.3246 202.963C15.4246 202.963 15.3246 203.063 15.2246 203.063L15.6246 203.363L15.3246 202.963Z" fill="#080809"/>
<path d="M19.2246 198.263C19.8246 198.363 19.4246 198.063 19.6246 198.063C19.4246 198.063 18.6246 198.163 19.2246 198.263Z" fill="#080809"/>
</g>
</g>
<path d="M83.1247 57.0629C83.1247 57.0629 78.2247 51.4629 70.7247 44.5629C62.9247 37.3629 52.2247 28.7629 41.0247 23.5629C35.0247 20.7629 28.8247 18.9629 22.9247 18.8629C-4.27533 18.6629 16.8247 54.2629 71.3247 65.9629C71.4247 66.1629 85.4247 69.4629 83.1247 57.0629Z" fill="white"/>
<path d="M83.1244 57.063C83.1244 57.063 78.2244 51.463 70.7244 44.563C62.9244 37.363 52.2244 28.763 41.0244 23.563" stroke="#06002C" stroke-width="1.3038" stroke-miterlimit="10"/>
<path d="M68.9247 65.5629C39.4247 58.6629 20.1247 44.7629 13.6247 33.9629C10.0247 24.3629 23.0247 18.9629 42.7247 28.9629C62.4247 38.9629 71.2247 58.6629 71.2247 58.6629C72.9247 61.6629 71.9247 64.1629 68.9247 65.5629Z" fill="#F7A9B4"/>
<path d="M124.525 172.363C124.525 172.363 116.325 149.663 113.725 144.463C111.125 139.263 107.525 155.963 107.925 159.363C108.325 162.763 124.525 172.363 124.525 172.363Z" fill="white"/>
<path d="M100.024 229.163C100.024 229.163 120.724 229.163 123.224 229.163C125.724 229.163 125.624 217.463 101.624 216.963C77.7244 216.563 92.6244 229.163 100.024 229.163Z" fill="white"/>
<path d="M75.3244 55.0629C68.2244 60.2629 18.9244 163.863 16.6244 195.963C16.2244 201.363 16.7244 206.463 18.4244 211.163C20.1244 215.763 22.9244 219.963 27.2244 223.663C28.3244 224.563 29.5243 225.463 30.8243 226.363C33.6243 228.263 36.9243 229.263 40.3243 229.263H101.624C104.524 229.263 106.224 226.463 105.024 223.463C103.624 220.163 98.6243 216.763 87.4243 217.063C87.4243 217.063 98.6243 226.863 107.924 204.063C121.624 170.563 113.724 107.363 110.424 102.263C110.424 102.263 119.524 102.063 128.424 90.3629C140.324 74.8629 135.924 55.6629 120.324 52.7629C102.424 49.2629 81.5244 50.5629 75.3244 55.0629Z" fill="white"/>
<path d="M16.6244 195.963C16.2244 201.363 16.7244 206.463 18.4244 211.163C20.1244 215.763 22.9244 219.963 27.2244 223.663" stroke="#06002C" stroke-width="1.3038" stroke-miterlimit="10"/>
<path d="M87.3247 216.963C87.3247 216.963 78.5247 217.363 73.3247 220.763" stroke="#06002C" stroke-width="1.3038" stroke-miterlimit="10"/>
<path d="M79.2245 218.363C79.2245 218.363 92.8245 201.063 88.6245 179.763C84.4245 158.363 52.3245 160.663 40.6245 167.163" stroke="#06002C" stroke-width="1.3038" stroke-miterlimit="10"/>
<path d="M102.225 137.163C102.225 137.163 106.625 148.863 115.625 159.763C123.025 168.763 125.325 173.063 125.825 176.463C126.025 177.663 125.424 178.963 124.424 179.663C121.724 181.663 116.125 183.363 114.025 181.663C111.225 179.363 99.1245 169.963 90.3245 163.463C81.5245 156.963 76.1245 146.663 76.1245 146.663" fill="white"/>
<path d="M114.025 181.763C111.225 179.463 99.1245 170.063 90.3245 163.563C81.5245 157.063 76.1245 146.763 76.1245 146.763" stroke="#06002C" stroke-width="1.3038" stroke-miterlimit="10"/>
<path d="M102.225 137.163C102.225 137.163 106.625 148.863 115.625 159.763C123.025 168.763 125.325 173.063 125.825 176.463" stroke="#06002C" stroke-width="1.3038" stroke-miterlimit="10"/>
<path d="M103.224 67.663C104.771 67.663 106.024 66.4094 106.024 64.863C106.024 63.3166 104.771 62.063 103.224 62.063C101.678 62.063 100.424 63.3166 100.424 64.863C100.424 66.4094 101.678 67.663 103.224 67.663Z" fill="#06002C"/>
<path d="M100.025 229.163C100.025 229.163 101.625 224.963 98.6245 223.363" stroke="#06002C" stroke-width="1.3038" stroke-miterlimit="10"/>
<path d="M125.125 179.163C125.125 179.163 122.825 178.263 120.225 174.163" stroke="#06002C" stroke-width="1.3038" stroke-miterlimit="10"/>
<path d="M121.525 181.363C121.525 181.363 118.625 180.263 116.625 178.663" stroke="#06002C" stroke-width="1.3038" stroke-miterlimit="10"/>
<path d="M119.424 229.163C119.424 229.163 121.024 224.963 118.024 223.363" stroke="#06002C" stroke-width="1.3038" stroke-miterlimit="10"/>
<path d="M101.624 229.163C104.524 229.163 106.224 226.363 105.024 223.363C103.624 220.063 98.6243 216.663 87.4243 216.963" stroke="#06002C" stroke-width="1.3038" stroke-miterlimit="10"/>
<mask id="mask2_205_2660" style="mask-type:luminance" maskUnits="userSpaceOnUse" x="85" y="95" width="29" height="22">
<path d="M113.424 116.763C85.1243 118.163 85.8243 95.4629 85.8243 95.4629C96.7243 104.063 110.324 102.163 110.324 102.163C111.224 103.463 112.424 108.963 113.424 116.763Z" fill="white"/>
</mask>
<g mask="url(#mask2_205_2660)">
<g opacity="0.5">
<path d="M104.824 104.163L104.724 104.663C104.824 104.463 104.824 104.263 104.824 104.163Z" fill="#080809"/>
<path d="M100.524 103.463C100.424 103.463 100.324 103.463 100.224 103.563C100.424 103.763 100.524 103.663 100.524 103.463Z" fill="#080809"/>
<path d="M123.524 105.163C123.324 103.663 123.924 105.063 123.824 103.663C123.624 103.963 123.524 104.263 123.324 103.463C123.424 102.663 123.724 103.463 123.724 102.263L123.424 102.763C123.224 102.163 123.424 101.163 123.224 101.263C123.024 102.963 122.324 100.663 122.024 100.963L122.124 100.763L121.624 99.963V99.863C121.624 99.963 121.624 100.063 121.624 100.163C121.424 99.263 121.024 98.663 120.724 98.863C120.624 99.863 119.624 99.163 119.424 100.063C119.524 99.763 119.724 99.763 119.924 100.063V101.263C119.524 101.263 119.824 100.163 119.524 100.863C119.624 102.563 120.024 100.863 120.224 101.063C120.124 101.463 120.024 101.763 119.924 101.963C120.424 101.963 120.924 102.563 121.224 100.863C121.424 101.163 121.324 101.863 121.224 102.063C121.524 101.063 121.524 102.963 121.824 102.063C121.824 103.563 121.124 102.863 120.824 103.763C120.324 102.563 119.724 103.763 119.224 104.063C119.124 102.863 119.424 101.963 119.224 101.263C118.724 100.463 118.724 101.863 118.524 102.563C118.124 102.163 118.424 100.663 117.824 100.563L118.124 99.763C117.724 98.163 117.824 100.463 117.624 100.063C117.724 100.463 117.724 100.863 118.024 100.863C118.124 101.463 117.824 101.763 117.724 101.763H117.824C117.724 102.563 117.724 103.463 117.324 103.063C117.524 102.063 117.024 102.363 116.924 101.863L117.024 101.663C116.724 101.963 116.524 101.863 116.324 102.063V101.863C116.124 102.263 116.124 103.463 115.824 103.263C115.824 102.763 116.124 101.463 115.824 101.663C115.824 100.963 116.224 100.863 116.524 101.163C116.224 100.863 116.024 99.663 116.424 99.663C116.324 98.763 116.124 100.063 115.924 99.663C115.924 99.963 115.924 100.263 115.924 100.563C115.924 99.263 115.224 100.463 115.224 101.363L115.524 100.663C115.524 101.663 115.124 102.363 115.324 102.963C115.124 101.363 114.424 103.763 114.224 102.363L114.324 103.163C113.624 102.663 113.024 104.563 112.324 104.863C112.624 104.363 112.624 102.563 113.024 103.263C112.324 102.863 112.824 101.563 112.624 100.663C112.124 100.063 112.324 102.263 112.224 102.863L112.624 102.563C112.124 104.563 111.224 102.163 110.524 103.363C110.524 102.863 110.724 103.063 110.824 102.863C110.524 101.863 110.524 103.063 110.324 103.463C110.024 103.263 109.624 102.863 109.824 101.563C109.424 101.263 109.824 102.363 109.624 102.663L109.524 102.363L109.124 103.763C108.824 103.363 108.424 102.663 108.324 101.463C107.524 101.663 107.924 104.263 107.324 104.663C107.024 103.963 107.424 103.763 107.524 103.263L107.024 103.363C107.224 102.063 107.624 102.763 107.624 101.163C107.124 102.763 107.024 101.563 106.424 102.563V102.663C106.124 103.663 105.624 102.863 105.224 103.063C105.424 102.463 105.724 102.363 106.024 102.163C105.724 101.663 104.824 102.063 104.324 103.363C104.124 103.163 103.724 102.563 104.124 102.063C103.424 101.763 103.624 103.863 103.024 103.363L103.124 102.363C102.824 101.663 102.524 101.963 102.124 102.163C101.724 102.463 101.424 102.663 101.124 102.063L100.924 103.163C100.824 102.663 100.624 102.363 100.624 101.963L101.024 101.663C100.824 100.763 100.624 102.463 100.324 101.763C100.324 102.063 100.424 102.863 100.424 103.263C101.124 103.063 101.824 103.463 102.524 103.763C103.224 104.063 103.924 104.363 104.624 103.763C104.624 103.563 104.524 103.463 104.624 103.163C104.724 103.463 105.024 103.163 104.924 103.863L104.824 103.963C105.224 103.763 105.424 105.263 105.724 105.363C105.924 104.563 106.524 105.863 106.424 104.263L106.624 105.263C106.724 104.763 106.724 103.963 106.924 103.663C107.124 103.763 107.124 104.363 106.924 104.763C107.924 105.463 109.024 105.363 110.124 104.963L109.824 105.663C110.024 106.063 110.724 104.363 110.524 106.263C111.024 105.563 111.824 106.863 111.924 104.863C112.224 106.763 113.124 105.763 113.824 105.463C113.724 103.763 114.424 104.963 114.524 104.163C114.624 105.463 113.924 105.563 113.924 106.363C114.624 104.263 115.924 107.863 116.124 104.363C116.224 104.463 116.224 104.663 116.224 104.763C116.324 104.763 116.524 105.363 116.724 105.463C116.824 104.863 116.524 104.563 116.824 104.363C117.124 104.463 116.924 105.463 117.124 105.863C117.624 105.063 118.324 104.763 118.424 103.363C118.624 103.763 118.724 104.463 118.624 104.763C119.324 103.663 119.424 104.863 120.124 104.163C119.824 104.263 120.024 105.563 119.624 105.063C120.024 106.863 120.824 104.663 121.524 105.563L121.724 104.363C122.124 104.163 122.224 105.263 121.924 105.663C122.624 106.263 122.924 105.563 123.424 105.463C123.424 105.563 123.424 105.863 123.324 105.763L124.024 105.663C124.124 105.363 124.324 104.763 124.224 104.063C124.024 105.163 123.924 105.563 123.524 105.163Z" fill="#080809"/>
<path d="M88.1243 97.7631C88.0243 97.7631 87.7243 97.6631 87.8243 97.6631C87.9243 97.6631 88.1243 97.7631 88.2243 97.7631H88.1243Z" fill="#080809"/>
<path d="M88.9243 98.063C89.0243 98.163 89.1243 98.163 89.3243 98.263C89.4243 98.263 89.5243 98.163 89.7243 98.163C89.2243 97.963 89.3243 98.163 88.9243 98.063Z" fill="#080809"/>
<path d="M89.9242 98.4629H89.8242C89.9242 98.5629 89.9242 98.4629 89.9242 98.4629Z" fill="#080809"/>
<path d="M90.0241 98.3631L90.3241 98.1631C90.1241 98.1631 89.9241 98.1631 89.7241 98.1631L89.9241 98.2631C89.9241 98.3631 90.0241 98.3631 90.0241 98.4631L90.3241 98.3631C90.1241 98.3631 90.0241 98.3631 90.0241 98.3631Z" fill="#080809"/>
<path d="M91.1243 99.363C91.1243 99.163 91.3243 99.063 91.4243 98.963C91.1243 98.763 90.8243 99.163 90.6243 98.963C91.2243 98.963 90.5243 98.763 90.4243 98.563C90.4243 98.763 90.5243 99.063 90.9243 99.263L91.0243 99.063C91.2243 99.163 91.0243 99.163 91.1243 99.363Z" fill="#080809"/>
<path d="M93.4241 99.263L92.9241 99.663C92.9241 99.463 92.4241 99.363 92.6241 98.863C92.4241 98.863 92.3241 99.063 92.1241 99.163C92.0241 98.963 92.0241 98.763 91.7241 98.963C92.3241 99.463 92.1241 99.463 92.7241 99.763C92.7241 99.863 92.6241 99.863 92.5241 99.763L92.8241 100.163C93.1241 99.663 93.7241 99.763 93.4241 99.263Z" fill="#080809"/>
<path d="M93.9242 99.7629C93.6242 99.7629 93.2243 100.063 93.3243 100.463C93.6243 100.463 93.9242 100.363 94.1242 100.263C93.9242 100.263 93.6242 100.263 93.9242 99.7629Z" fill="#080809"/>
<path d="M94.4243 99.963C94.5243 100.263 94.5243 100.963 94.9243 100.463C94.5243 100.363 94.9243 99.563 94.4243 99.963Z" fill="#080809"/>
<path d="M96.7245 101.063L96.1245 100.463C96.2245 99.5631 96.5245 100.263 96.8245 99.863C96.3245 99.563 96.4245 99.963 95.8245 100.363C95.6245 100.263 95.3245 100.663 95.1245 100.763C96.1245 100.363 95.7245 102.463 96.7245 101.063Z" fill="#080809"/>
<path d="M95.6243 99.9629L95.4243 100.263L95.8243 100.063L95.6243 99.9629Z" fill="#080809"/>
<path d="M98.1243 102.463C98.3243 103.763 99.0243 101.963 99.4243 102.563C99.3243 102.663 99.4243 102.763 99.2243 102.863H99.6243V103.163C99.7243 102.363 100.124 102.163 100.424 101.563C100.124 100.663 100.124 102.563 99.8243 101.563C99.9243 101.263 100.124 100.663 100.224 100.363C99.9243 100.763 99.8243 101.163 99.6243 101.563C99.3243 101.563 99.5243 101.163 99.5243 100.863C99.1243 101.263 99.0243 102.363 98.6243 101.963C98.4243 101.263 98.9243 100.963 98.4243 101.163C98.4243 102.363 97.9243 100.863 97.6243 101.563C97.3243 101.263 97.2243 100.563 97.3243 100.163C97.2243 100.963 96.7243 101.563 96.4243 101.763C96.7243 101.563 96.9243 101.463 97.2243 101.263V102.263C97.7243 102.063 97.9243 102.263 98.1243 102.463Z" fill="#080809"/>
<path d="M100.324 100.363C100.424 100.263 100.424 100.263 100.524 100.163C100.424 100.163 100.424 100.263 100.324 100.363Z" fill="#080809"/>
<path d="M97.3242 100.063L97.5242 99.863V99.563L97.3242 100.063Z" fill="#080809"/>
<path d="M100.724 99.5629C100.624 99.5629 100.524 99.8629 100.624 99.9629L100.824 99.4629L100.724 99.5629Z" fill="#080809"/>
<path d="M101.024 100.363L101.124 101.063L101.324 100.463L101.024 100.363Z" fill="#080809"/>
<path d="M109.324 101.563C109.024 101.063 109.024 102.063 109.024 102.763C109.424 102.963 109.024 101.863 109.324 101.563Z" fill="#080809"/>
</g>
</g>
<path d="M131.725 61.0631C131.025 60.0631 129.625 59.5631 128.425 59.8631C126.525 60.2631 123.625 61.1631 123.225 62.3631C122.925 63.2631 125.125 64.6631 127.625 65.8631C130.625 67.3631 133.725 63.9631 131.825 61.1631C131.725 61.0631 131.725 61.0631 131.725 61.0631Z" fill="#F7A9B4"/>
<path d="M118.624 82.1629C118.624 82.1629 114.024 83.4629 113.424 78.7629" stroke="#06002C" stroke-width="1.3038" stroke-miterlimit="10" stroke-linecap="round" stroke-linejoin="round"/>
</svg>
