<svg width="106" height="52" viewBox="0 0 106 52" fill="none" xmlns="http://www.w3.org/2000/svg">
<path d="M22.2943 0V6.24792H12.9226V10.7615H19.8687V17.0095H12.9226V24.8805H2.0293V0H22.2943Z" fill="#DAEF15"/>
<path d="M46.8139 0V11.4953C46.8139 12.9628 46.7036 14.2968 46.4611 15.5197C46.2185 16.7426 45.8657 17.8321 45.3805 18.8105C44.8954 19.7888 44.3 20.6782 43.5724 21.4564C42.8447 22.2346 41.9847 22.9239 40.9924 23.502C39.0298 24.6804 36.8688 25.2585 34.5314 25.2585C32.3483 25.2585 30.2534 24.7249 28.2909 23.6354C26.3283 22.5459 24.8289 21.0562 23.7924 19.144C22.8001 17.254 22.293 14.5414 22.293 11.0506V0H33.2083V11.7176C33.2083 12.7182 33.2965 13.4075 33.4729 13.8077C33.6714 14.1857 34.0021 14.3635 34.4873 14.3635C34.7739 14.3635 35.0165 14.2968 35.1929 14.1634C35.3693 14.03 35.5016 13.8299 35.6119 13.5409C35.7221 13.2518 35.7883 12.8961 35.8324 12.4514C35.8765 12.0067 35.8985 11.473 35.8985 10.8282V0H46.8139Z" fill="#DAEF15"/>
<path d="M65.425 0C67.1891 0 68.7327 0.333519 70.0998 1.00056C71.467 1.66759 72.5034 2.57921 73.187 3.71318C73.8706 4.84714 74.2234 6.07004 74.2234 7.42635C74.2234 8.58255 73.9808 9.62758 73.4957 10.5614C73.0106 11.4953 72.327 12.2957 71.4008 12.9405C72.768 14.4747 73.8265 16.2313 74.6203 18.2324C75.4142 20.2335 75.9213 22.4347 76.186 24.8583H64.8737C64.6532 21.5898 64.1681 19.2329 63.4404 17.8099C62.7127 16.3869 61.6101 15.6532 60.1547 15.6532H60.0886V24.8583H49.1953V0H65.425ZM60.0665 9.89439H60.3312C61.3676 9.89439 62.1393 9.71652 62.6024 9.33853C63.0655 8.96054 63.3081 8.38244 63.3081 7.55976C63.3081 6.80378 63.0876 6.20345 62.6465 5.75876C62.2055 5.31407 61.566 5.09172 60.706 5.09172H60.0665V9.89439Z" fill="#DAEF15"/>
<path d="M92.9451 0C94.7092 0 96.2528 0.333519 97.6199 1.00056C98.9871 1.66759 100.024 2.57921 100.707 3.71318C101.391 4.84714 101.743 6.07004 101.743 7.42635C101.743 8.58255 101.501 9.62758 101.016 10.5614C100.531 11.4953 99.8471 12.2957 98.9209 12.9405C100.266 14.4747 101.325 16.2313 102.118 18.2324C102.912 20.2335 103.419 22.4347 103.684 24.8583H92.3717C92.1512 21.5898 91.6661 19.2329 90.9384 17.8099C90.2107 16.3869 89.1082 15.6532 87.6528 15.6532H87.5866V24.8583H76.6934V0H92.9451ZM87.5866 9.89439H87.8513C88.8877 9.89439 89.6595 9.71652 90.1225 9.33853C90.5856 8.96054 90.8282 8.38244 90.8282 7.55976C90.8282 6.80378 90.6077 6.20345 90.1666 5.75876C89.7256 5.31407 89.0861 5.09172 88.2261 5.09172H87.5866V9.89439Z" fill="#DAEF15"/>
<path d="M12.8117 26.2813C13.6497 26.2813 14.5097 26.3257 15.3697 26.3925C16.2297 26.4814 17.1117 26.5926 18.0379 26.7482C18.942 26.9039 19.802 27.0817 20.5737 27.2596C21.3455 27.4375 22.0512 27.6821 22.7127 27.9266L20.0004 35.7532C19.1404 34.597 18.1922 33.7076 17.1558 33.0851C16.1194 32.4403 15.0169 32.129 13.8702 32.129C13.1866 32.129 12.7015 32.2624 12.3928 32.5514C12.084 32.8182 11.9297 33.174 11.9297 33.5965C11.9297 33.9967 12.2164 34.3524 12.8117 34.7304C13.4071 35.0862 14.3112 35.5086 15.524 35.9756C18.7214 37.154 20.7943 38.3324 21.7204 39.5109C22.6245 40.6671 23.0876 42.0901 23.0876 43.7799C23.0876 46.4258 22.0953 48.4492 20.1107 49.8499C18.1261 51.2507 15.1712 51.9622 11.2461 51.9622C9.19534 51.9622 7.25484 51.8288 5.42459 51.5398C3.59434 51.2507 1.78615 50.7616 0 50.0723L2.66819 41.7566C3.41793 42.9572 4.36613 43.9133 5.53484 44.6471C6.68151 45.3808 7.78406 45.7365 8.84252 45.7365C9.37175 45.7365 9.81277 45.6031 10.1656 45.3363C10.5184 45.0695 10.6948 44.736 10.6948 44.3358C10.6948 43.8688 10.4523 43.4464 9.96713 43.0906C9.48201 42.7349 8.71021 42.3569 7.67381 41.9567C5.13792 41.0006 3.39588 39.9333 2.44768 38.8216C1.52153 37.6876 1.03641 36.2868 1.03641 34.6415C1.03641 31.8622 2.02871 29.7943 4.01331 28.3936C5.97587 26.9928 8.90867 26.2813 12.8117 26.2813Z" fill="#DAEF15"/>
<path d="M34.9734 26.6815V51.5398H24.0801V26.6815H34.9734Z" fill="#DAEF15"/>
<path d="M53.2537 26.6815C56.2306 26.6815 58.546 27.2818 60.1777 28.5047C61.8316 29.7276 62.6695 31.4175 62.6695 33.6187C62.6695 34.8638 62.3829 35.9311 61.8316 36.776C61.2803 37.6432 60.4865 38.3547 59.4501 38.955C60.729 39.622 61.6772 40.4225 62.3388 41.3119C63.0003 42.2012 63.3311 43.313 63.3311 44.6693C63.3311 46.8038 62.5813 48.4936 61.0818 49.6943C59.5824 50.9172 57.5757 51.5398 55.0619 51.5398H37.6855V26.6815H53.2537ZM48.6009 36.5092H48.9096C49.505 36.5092 50.0122 36.4647 50.4091 36.3758C50.828 36.2868 51.1588 36.1534 51.4014 35.9533C51.6439 35.7532 51.8424 35.5086 51.9527 35.1974C52.0629 34.8861 52.1291 34.5081 52.1291 34.0856C52.1291 33.2407 51.8865 32.6181 51.4014 32.2402C50.9163 31.8622 50.2106 31.662 49.3065 31.662H48.6009V36.5092ZM48.6009 46.0701H49.064C50.2547 46.0701 51.1147 45.87 51.6219 45.492C52.1511 45.0917 52.4157 44.4469 52.4157 43.5131C52.4157 41.6454 51.4014 40.7115 49.3727 40.7115H48.6229V46.0701H48.6009Z" fill="#DAEF15"/>
<path d="M75.4368 26.6815V45.2919H85.007V51.5398H64.5215V26.6815H75.4368Z" fill="#DAEF15"/>
<path d="M106.001 26.6815V32.9294H96.4304V35.9978H103.09V42.2457H96.4304V45.3141H106.001V51.562H85.5371V26.6815H106.001Z" fill="#DAEF15"/>
</svg>
