<svg width="142" height="32" viewBox="0 0 142 32" fill="none" xmlns="http://www.w3.org/2000/svg">
<path d="M10.828 29V20.4057L16.138 20.799V15.9217H10.828V10.5724L17.2984 10.9657V5.95069H4.31836V29H10.828Z" fill="white"/>
<path d="M28.7288 26.3844L29.3385 29H34.7862V12.2834H27.2932V14.545L28.3552 15.253V24.4964C28.3158 24.5226 28.2568 24.5685 28.1782 24.634C28.1126 24.6865 28.0602 24.7258 28.0208 24.752C27.9946 24.7783 27.9487 24.8176 27.8832 24.87C27.8176 24.9094 27.7652 24.9421 27.7258 24.9684C27.6865 24.9946 27.6341 25.0274 27.5685 25.0667C27.503 25.0929 27.444 25.1126 27.3915 25.1257C27.3522 25.1388 27.2997 25.1585 27.2342 25.1847C27.1686 25.1978 27.1031 25.2109 27.0375 25.224C26.972 25.224 26.8998 25.224 26.8212 25.224C26.2705 25.224 25.8903 25.0864 25.6805 24.811C25.4707 24.5226 25.3724 24.0834 25.3855 23.4934V12.2834H18.2465V14.545L18.9348 15.253V22.2544C18.9348 24.8241 19.3282 26.6597 20.1148 27.761C20.9146 28.8624 22.2388 29.413 24.0875 29.413C24.6775 29.413 25.261 29.2819 25.8378 29.0197C26.4147 28.7706 26.8998 28.469 27.2932 28.115C27.6865 27.7479 28.0012 27.4136 28.2372 27.112C28.4863 26.8105 28.6502 26.5679 28.7288 26.3844Z" fill="white"/>
<path d="M43.8441 29V20.0124C44.2243 19.3044 45.0831 18.9504 46.4204 18.9504C47.3513 18.9504 47.9544 19.0749 48.2297 19.324L48.8984 12.3227C48.5444 12.2047 48.2035 12.1457 47.8757 12.1457C44.9651 12.1457 43.2409 13.7518 42.7034 16.964L42.1331 12.2834H40.5401L36.3117 13.3257V15.548L37.4917 16.2757V29H43.8441Z" fill="white"/>
<path d="M56.8079 29V20.0124C57.1881 19.3044 58.0469 18.9504 59.3843 18.9504C60.3151 18.9504 60.9183 19.0749 61.1936 19.324L61.8623 12.3227C61.5083 12.2047 61.1674 12.1457 60.8396 12.1457C57.9289 12.1457 56.2048 13.7518 55.6673 16.964L55.0969 12.2834H53.5039L49.2756 13.3257V15.548L50.4556 16.2757V29H56.8079Z" fill="white"/>
<path d="M68.5918 29.413C73.6658 29.413 76.2028 27.3939 76.2028 23.3557C76.2028 21.9659 75.8553 20.8056 75.1605 19.8747C74.4656 18.9438 73.3511 18.2227 71.8171 17.7114C71.5418 17.6327 71.214 17.5475 70.8338 17.4557C70.4536 17.3508 70.1586 17.2721 69.9488 17.2197C69.739 17.1541 69.5227 17.0755 69.2998 16.9837C69.09 16.8788 68.9392 16.7608 68.8475 16.6297C68.7557 16.4855 68.7098 16.3085 68.7098 16.0987C68.7098 15.3645 69.3326 14.9974 70.5781 14.9974C72.099 14.9974 73.2921 15.4235 74.1575 16.2757L75.0228 13.4634C75.0228 13.4634 74.9048 13.3519 74.6688 13.129C73.6068 12.303 71.9548 11.89 69.7128 11.89C68.4017 11.89 67.2151 12.0801 66.1531 12.4604C65.0911 12.8406 64.2192 13.4568 63.5375 14.309C62.8557 15.1481 62.5148 16.1577 62.5148 17.3377C62.5148 20.2221 64.0422 22.1232 67.0971 23.041C68.2771 23.395 69.1293 23.7097 69.6538 23.985C70.1782 24.2472 70.4405 24.5488 70.4405 24.8897C70.4405 25.2437 70.2897 25.519 69.9881 25.7157C69.6997 25.9124 69.1621 26.0107 68.3755 26.0107C67.2872 26.0107 66.2187 25.8534 65.1698 25.5387C64.134 25.224 63.3932 24.8504 62.9475 24.4177L62.4361 27.584C62.7901 27.9774 63.5965 28.3838 64.8551 28.8034C66.1138 29.2098 67.3594 29.413 68.5918 29.413Z" fill="white"/>
<path d="M77.8814 29H84.214V12.2834H80.9297L76.7014 13.4437V15.548L77.8814 16.2757V29ZM80.733 10.474H81.4804L84.8434 7.22903V6.54069L81.4804 3.31536H80.733L77.5077 6.54069V7.22903L80.733 10.474Z" fill="white"/>
<path d="M96.9966 29C98.0848 29 99.0485 28.7771 99.8876 28.3314C100.74 27.8725 101.435 27.2431 101.972 26.4434C102.51 25.6436 102.916 24.7258 103.192 23.69C103.467 22.6411 103.605 21.5005 103.605 20.268C103.605 17.6458 103.093 15.5939 102.071 14.1124C101.061 12.6308 99.4746 11.89 97.3113 11.89C96.7999 11.89 96.3148 11.949 95.8559 12.067C95.4102 12.185 95.0103 12.3424 94.6563 12.539C94.3023 12.7357 94.0007 12.9389 93.7516 13.1487C93.5025 13.3585 93.273 13.5814 93.0633 13.8174V3.23669H91.7849L85.4719 4.22003V6.04903L86.6519 6.75703V29H93.0633V28.0757C94.217 28.6919 95.5282 29 96.9966 29ZM94.1056 26.2664C93.9483 26.2664 93.7844 26.2598 93.6139 26.2467C93.4435 26.2205 93.2599 26.1811 93.0633 26.1287V15.902C93.5615 15.548 94.0532 15.371 94.5383 15.371C95.1807 15.371 95.7052 15.6791 96.1116 16.2954C96.5312 16.8985 96.7409 17.7638 96.7409 18.8914V22.2347C96.7409 24.9225 95.8625 26.2664 94.1056 26.2664Z" fill="white"/>
<path d="M105.437 29H111.848V3.23669H110.57L104.257 4.22003V6.04903L105.437 6.75703V29Z" fill="white"/>
<path d="M123.299 18.8324H120.309V17.1804C120.309 16.7084 120.322 16.3216 120.349 16.02C120.388 15.7054 120.467 15.4038 120.585 15.1154C120.703 14.8138 120.886 14.5975 121.135 14.4664C121.384 14.3221 121.706 14.25 122.099 14.25C122.558 14.25 122.873 14.5975 123.043 15.2924C123.213 15.9873 123.299 17.1672 123.299 18.8324ZM121.725 29.413C122.512 29.413 123.338 29.3212 124.203 29.1377C125.069 28.9541 125.967 28.6001 126.898 28.0757C127.842 27.5381 128.556 26.876 129.041 26.0894L127.881 24.103C127.514 24.4439 127.055 24.7389 126.504 24.988C125.967 25.2371 125.429 25.4207 124.892 25.5387C124.367 25.6567 123.876 25.7157 123.417 25.7157C122.945 25.7157 122.545 25.6764 122.217 25.5977C121.889 25.519 121.568 25.3617 121.253 25.1257C120.939 24.8897 120.696 24.5226 120.526 24.0244C120.368 23.5261 120.29 22.8903 120.29 22.1167V21.743H129.277V19.56C129.277 16.8723 128.72 14.9253 127.606 13.719C126.491 12.4997 124.643 11.89 122.06 11.89C119.372 11.89 117.281 12.6439 115.786 14.1517C114.291 15.6595 113.544 17.8818 113.544 20.8187C113.544 22.0511 113.688 23.1721 113.977 24.1817C114.265 25.1781 114.717 26.0762 115.334 26.876C115.963 27.6758 116.815 28.2986 117.89 28.7444C118.979 29.1901 120.257 29.413 121.725 29.413Z" fill="white"/>
<path d="M133.414 29.3737H134.161L137.524 26.1287V25.4404L134.161 22.215H133.414L130.188 25.4404V26.1287L133.414 29.3737Z" fill="white"/>
</svg>
