<svg width="142" height="195" viewBox="0 0 142 195" fill="none" xmlns="http://www.w3.org/2000/svg">
<path d="M117.706 131.751C117.706 131.751 125.106 129.851 125.506 121.651C125.506 121.651 133.306 125.751 133.606 136.451C133.906 147.151 125.606 151.751 125.606 151.751C125.606 151.751 114.306 144.651 117.706 131.751Z" fill="#FBAF5E"/>
<mask id="mask0_205_2433" style="mask-type:luminance" maskUnits="userSpaceOnUse" x="117" y="121" width="17" height="31">
<path d="M117.706 131.751C117.706 131.751 125.106 129.851 125.506 121.651C125.506 121.651 133.306 125.751 133.606 136.451C133.906 147.151 125.606 151.751 125.606 151.751C125.606 151.751 114.306 144.651 117.706 131.751Z" fill="white"/>
</mask>
<g mask="url(#mask0_205_2433)">
<g opacity="0.62">
<path d="M123.906 142.751C124.006 142.751 124.106 142.751 124.206 142.751C124.206 142.651 124.206 142.651 123.906 142.751Z" fill="#3E240C"/>
<path d="M122.806 138.651L122.506 138.851C122.606 138.751 122.706 138.751 122.806 138.651Z" fill="#3E240C"/>
<path d="M127.806 141.351C127.906 141.351 127.906 141.251 128.006 141.251C127.906 141.351 127.906 141.351 127.806 141.351Z" fill="#3E240C"/>
<path d="M121.706 137.351C121.606 137.351 121.606 137.351 121.506 137.351C121.506 137.451 121.606 137.451 121.706 137.351Z" fill="#3E240C"/>
<path d="M124.407 145.351C125.507 145.151 124.507 145.451 125.607 145.351C125.307 145.251 125.207 145.251 125.707 145.151C126.307 145.151 125.707 145.351 126.607 145.251L126.207 145.151C126.707 145.051 127.407 145.051 127.307 144.951C126.007 145.051 127.707 144.451 127.507 144.351H127.607L128.207 144.051C128.207 144.051 128.207 144.051 128.307 144.051C128.207 144.051 128.207 144.051 128.107 144.051C128.707 143.851 129.107 143.651 128.907 143.451C128.207 143.551 128.507 142.951 127.907 143.051C128.107 143.051 128.107 143.151 128.007 143.251L127.107 143.451C127.107 143.251 127.907 143.251 127.307 143.251C126.107 143.551 127.307 143.451 127.207 143.551C126.907 143.551 126.707 143.551 126.507 143.551C126.507 143.751 126.107 144.051 127.407 143.951C127.207 144.051 126.707 144.151 126.507 144.051C127.207 144.051 125.907 144.251 126.507 144.251C125.407 144.351 125.907 144.051 125.207 144.051C126.007 143.651 125.207 143.651 124.907 143.451C125.707 143.251 126.407 143.251 126.907 143.051C127.407 142.751 126.407 142.951 125.907 142.951C126.107 142.751 127.207 142.551 127.207 142.351H127.807C128.907 141.851 127.307 142.351 127.507 142.151C127.207 142.251 126.907 142.351 127.007 142.451C126.607 142.551 126.407 142.551 126.307 142.451C125.707 142.551 125.207 142.751 125.407 142.451C126.107 142.351 125.907 142.151 126.207 142.051H126.407C126.107 142.051 126.207 141.851 126.107 141.851H126.307C126.007 141.851 125.207 142.051 125.307 141.951C125.607 141.851 126.607 141.651 126.407 141.651C126.907 141.551 127.007 141.651 126.907 141.851C127.007 141.651 127.807 141.351 127.907 141.451C128.507 141.251 127.607 141.351 127.807 141.251C127.607 141.351 127.407 141.351 127.207 141.451C128.007 141.151 127.207 141.151 126.607 141.351H127.107C126.407 141.551 125.907 141.551 125.607 141.751C126.607 141.351 125.007 141.551 125.807 141.151L125.307 141.451C125.507 141.051 124.207 141.251 123.907 141.151C124.307 141.051 125.407 140.651 125.107 140.951C125.207 140.651 126.207 140.451 126.707 140.051C127.007 139.651 125.607 140.351 125.207 140.451L125.507 140.551C124.107 140.951 125.507 139.951 124.607 140.051C124.907 139.851 124.807 140.051 125.007 139.951C125.607 139.551 124.807 139.851 124.507 139.951C124.607 139.751 124.807 139.451 125.607 139.151C125.707 138.951 125.107 139.451 124.807 139.451L125.007 139.351L124.007 139.651C124.207 139.451 124.507 139.051 125.307 138.551C125.007 138.351 123.507 139.451 123.107 139.451C123.407 139.151 123.707 139.151 124.007 138.951L123.807 138.851C124.707 138.451 124.407 138.751 125.407 138.251C124.307 138.651 125.007 138.251 124.207 138.451L124.107 138.551C123.407 138.851 123.707 138.351 123.507 138.351C123.907 138.151 124.107 138.251 124.307 138.251C124.607 137.951 124.007 137.751 123.107 138.251C123.207 138.051 123.407 137.751 123.907 137.551C123.907 137.251 122.607 138.251 122.707 137.951L123.307 137.451C124.007 136.551 122.107 137.651 122.807 136.751L122.007 137.351C122.307 137.051 122.407 136.851 122.607 136.551L122.907 136.451C123.507 135.851 122.207 136.851 122.607 136.351C122.407 136.551 121.907 137.051 121.707 137.251C122.507 137.351 121.707 138.551 122.807 138.451C122.907 138.351 123.007 138.251 123.107 138.151C122.907 138.351 123.207 138.251 122.807 138.551H122.707C123.007 138.551 122.007 139.251 122.107 139.351C122.707 139.051 122.007 139.751 122.907 139.051L122.307 139.451C122.707 139.251 123.107 138.951 123.307 138.951C123.307 139.051 122.907 139.351 122.607 139.351C122.407 139.851 122.707 140.151 123.207 140.351L122.707 140.451C122.507 140.651 123.707 140.351 122.407 140.851C123.007 140.751 122.207 141.451 123.507 140.851C122.307 141.551 123.107 141.451 123.407 141.651C124.507 141.151 123.807 141.751 124.307 141.551C123.407 141.851 123.307 141.651 122.807 141.951C124.207 141.651 122.007 142.951 124.307 142.251C124.207 142.351 124.107 142.351 124.007 142.351C124.007 142.351 123.607 142.551 123.607 142.651C124.007 142.551 124.207 142.351 124.307 142.451C124.207 142.551 123.607 142.751 123.307 142.851C123.907 142.851 124.207 143.051 125.107 142.851C124.907 142.951 124.407 143.151 124.207 143.151C125.007 143.251 124.107 143.451 124.607 143.651C124.507 143.551 123.607 143.851 124.007 143.551C122.707 143.951 124.307 143.951 123.707 144.251L124.607 144.151C124.807 144.251 124.007 144.451 123.607 144.351C123.107 144.651 123.607 144.651 123.707 144.851C123.607 144.851 123.407 144.851 123.507 144.851V145.051C123.707 145.051 124.207 145.051 124.707 145.051C124.407 145.551 124.107 145.551 124.407 145.351Z" fill="#3E240C"/>
<path d="M128.007 142.151C127.807 142.251 127.707 142.251 127.707 142.351C127.807 142.251 127.907 142.151 128.007 142.151Z" fill="#3E240C"/>
<path d="M126.506 148.051C127.806 148.051 126.306 147.851 126.606 147.751C126.806 147.851 127.606 147.851 127.906 147.851C126.206 147.651 128.206 147.651 127.906 147.351C128.506 147.351 128.506 147.451 129.106 147.551C128.706 147.351 128.406 147.151 127.506 147.051C127.506 146.751 127.806 146.551 127.606 146.451C128.006 146.651 128.506 146.451 129.406 146.551C128.306 146.351 127.006 145.951 125.606 145.851C126.606 145.751 126.706 145.651 127.706 145.651C128.306 145.251 126.706 145.651 127.006 145.351L126.806 145.551C126.506 145.451 125.506 145.551 124.806 145.551L125.006 145.851C124.306 145.951 124.406 145.751 124.206 145.651C123.306 145.651 123.606 145.851 122.906 145.951C123.506 145.951 123.306 146.051 123.606 146.151H123.206C122.806 146.351 123.806 146.351 123.806 146.451C123.706 146.451 123.606 146.451 123.506 146.451C123.906 146.451 124.506 146.451 124.606 146.551V146.451C125.506 146.551 126.106 146.751 127.106 146.551L126.806 146.951C125.806 146.951 124.306 146.951 124.106 146.751H123.706C123.106 146.851 124.506 147.051 125.306 146.951C127.706 147.051 125.406 147.451 126.406 147.751C125.706 147.751 125.506 147.651 125.006 147.551C124.906 147.451 124.906 147.451 125.506 147.451C125.106 147.151 123.406 147.551 123.606 147.151C123.906 146.951 124.706 147.351 124.706 147.051L122.906 146.951C123.006 147.051 123.306 147.151 123.506 147.351C124.106 147.651 124.106 147.951 124.006 148.151C123.906 148.351 123.606 148.451 123.606 148.451C123.706 149.351 123.806 150.351 123.706 151.351C123.906 151.751 123.806 151.751 125.406 152.451C125.806 152.551 125.706 152.251 126.306 152.551C125.706 152.351 125.406 152.051 125.506 151.951C126.106 152.151 125.806 152.151 125.906 152.151H126.006C126.306 152.251 126.506 152.351 126.506 152.451C127.506 152.551 127.406 152.051 126.206 151.551C126.906 151.551 127.206 151.951 127.606 152.151C128.206 151.651 128.206 151.151 128.406 150.551C127.306 150.351 127.706 150.351 126.906 150.151H127.306C127.106 150.151 126.306 149.951 126.106 150.051C127.106 149.851 124.606 149.451 124.106 149.151L124.706 149.251C124.606 149.051 124.606 149.051 124.306 148.851C125.506 148.651 124.506 149.151 125.906 149.151L125.706 149.051C126.306 149.151 127.306 149.351 127.706 149.451C126.806 149.051 128.106 149.051 127.406 148.651C128.106 148.751 128.606 149.051 128.606 149.151C128.706 149.051 128.206 148.751 128.806 148.851L128.006 148.751C127.906 148.551 128.806 148.851 129.306 148.751C129.606 148.151 127.006 148.451 126.506 148.051Z" fill="#3E240C"/>
<path d="M126.606 143.451C126.506 143.551 126.606 143.551 126.706 143.551C126.706 143.551 126.706 143.451 126.606 143.451Z" fill="#3E240C"/>
<path d="M129.506 143.951C129.106 144.051 129.106 143.951 128.606 144.051C128.906 144.051 128.906 144.251 129.506 143.951Z" fill="#3E240C"/>
<path d="M120.506 130.351C120.306 130.551 120.106 130.651 120.006 130.851L120.306 130.751L120.506 130.351Z" fill="#3E240C"/>
<path d="M120.206 131.351L120.106 131.751L120.906 130.951C120.806 130.751 120.406 131.451 120.206 131.351Z" fill="#3E240C"/>
<path d="M120.206 132.151L120.006 132.351C120.106 132.251 120.206 132.151 120.206 132.151Z" fill="#3E240C"/>
<path d="M120.507 131.751L121.107 131.151L120.507 131.451V131.751C120.307 131.851 120.307 132.051 120.207 132.151L120.607 131.751C120.607 131.751 120.507 131.851 120.507 131.751Z" fill="#3E240C"/>
<path d="M120.707 131.851C120.707 131.751 120.807 131.751 120.807 131.651C120.807 131.751 120.707 131.851 120.707 131.851Z" fill="#3E240C"/>
<path d="M120.106 133.351C120.306 133.051 120.606 132.851 120.906 132.551C121.006 132.151 120.206 133.151 120.306 132.751C120.906 132.451 120.506 132.351 120.806 131.951C120.306 132.451 120.006 132.951 120.106 133.351L120.406 132.851C120.406 132.951 120.206 133.151 120.106 133.351Z" fill="#3E240C"/>
<path d="M121.606 132.951L121.006 133.451C121.206 133.151 121.106 133.051 121.606 132.451C121.506 132.451 121.206 132.751 121.006 132.851C121.206 132.551 121.406 132.251 121.006 132.651C120.906 133.251 120.706 133.351 120.806 133.751C120.706 133.851 120.706 133.851 120.706 133.751L120.606 134.151C121.106 133.451 121.406 133.551 121.606 132.951Z" fill="#3E240C"/>
<path d="M121.406 133.651C121.306 133.551 120.706 134.051 120.406 134.451L121.006 134.251C121.006 134.151 120.906 134.151 121.406 133.651Z" fill="#3E240C"/>
<path d="M121.606 133.751C121.406 134.051 120.806 134.751 121.406 134.251C121.206 134.251 122.106 133.451 121.606 133.751Z" fill="#3E240C"/>
<path d="M121.807 135.051L122.007 134.451C122.707 133.651 122.307 134.351 122.707 134.051C122.707 133.751 122.507 134.051 121.907 134.351C121.907 134.251 121.407 134.551 121.207 134.651C122.007 134.451 120.307 136.151 121.807 135.051Z" fill="#3E240C"/>
<path d="M122.106 133.951L121.806 134.251L122.106 134.051V133.951Z" fill="#3E240C"/>
<path d="M121.507 136.351C120.707 137.251 122.207 136.151 122.007 136.651C121.907 136.651 121.907 136.751 121.707 136.851H121.907L121.707 137.051C122.207 136.551 122.607 136.551 123.107 136.251C123.607 135.651 122.407 136.751 122.907 136.051C123.207 135.851 123.607 135.551 123.807 135.451C123.507 135.551 123.107 135.851 122.807 136.051C122.707 136.051 123.007 135.751 123.207 135.551C122.807 135.751 122.007 136.451 122.107 136.151C122.507 135.651 122.907 135.551 122.607 135.551C121.807 136.351 122.607 135.251 122.007 135.751C122.107 135.451 122.507 134.951 122.807 134.651C122.107 135.251 121.507 135.651 121.207 135.751L121.907 135.451L121.207 136.251C121.507 135.951 121.507 136.151 121.507 136.351Z" fill="#3E240C"/>
<path d="M123.707 135.451C123.807 135.451 123.807 135.351 123.907 135.351C123.907 135.351 123.807 135.351 123.707 135.451Z" fill="#3E240C"/>
<path d="M122.806 134.451L123.006 134.351L123.206 134.051L122.806 134.451Z" fill="#3E240C"/>
<path d="M124.406 135.051C124.406 134.951 124.106 135.251 124.106 135.251L124.506 134.951L124.406 135.051Z" fill="#3E240C"/>
<path d="M123.906 135.651L123.506 136.051L123.906 135.851V135.651Z" fill="#3E240C"/>
<path d="M125.507 139.051C125.807 138.751 125.107 139.151 124.707 139.351C124.707 139.651 125.307 139.051 125.507 139.051Z" fill="#3E240C"/>
<path d="M127.306 140.951C127.706 140.651 127.006 140.751 127.006 140.651C126.706 140.851 127.006 140.951 127.306 140.951Z" fill="#3E240C"/>
<path d="M130.006 141.251C129.806 141.251 129.606 141.251 129.606 141.351L128.306 141.551C127.906 141.951 129.506 141.451 130.006 141.251Z" fill="#3E240C"/>
<path d="M130.506 142.551L130.006 142.451V142.551C129.506 142.651 129.206 142.651 128.806 142.651C129.106 142.751 129.606 142.751 130.506 142.551Z" fill="#3E240C"/>
<path d="M128.506 142.551C128.906 142.451 128.806 142.551 128.506 142.551Z" fill="#3E240C"/>
<path d="M128.606 142.651C128.706 142.651 128.706 142.651 128.706 142.651C128.706 142.651 128.706 142.551 128.606 142.651C128.506 142.651 128.406 142.651 128.606 142.651Z" fill="#3E240C"/>
<path d="M129.906 142.851L130.106 143.151L130.306 142.951C129.606 143.051 130.806 142.651 129.906 142.851Z" fill="#3E240C"/>
<path d="M129.606 144.751L128.806 144.851C128.706 145.051 130.306 145.151 129.106 145.451C129.606 145.351 130.006 145.551 130.206 145.251C129.506 145.251 129.406 144.951 129.606 144.751Z" fill="#3E240C"/>
<path d="M128.606 145.751C128.406 145.751 128.206 145.751 128.006 145.851C127.906 145.951 128.306 145.951 128.606 145.951C127.506 145.951 129.206 145.751 128.606 145.751Z" fill="#3E240C"/>
<path d="M128.706 146.751C128.706 146.651 128.606 146.651 128.406 146.751C128.506 146.951 129.306 146.851 129.806 146.951C130.306 146.651 129.106 146.551 128.706 146.751Z" fill="#3E240C"/>
<path d="M123.006 147.951C123.706 147.951 123.606 147.851 123.306 147.851C123.506 147.851 123.306 147.951 123.006 147.951Z" fill="#3E240C"/>
<path d="M128.506 148.251L128.606 148.151L127.606 148.051L128.506 148.251Z" fill="#3E240C"/>
<path d="M128.906 149.351L129.606 149.551L129.506 149.351H128.906Z" fill="#3E240C"/>
<path d="M128.707 149.551V149.751H129.007C129.207 149.651 128.707 149.651 128.707 149.551Z" fill="#3E240C"/>
<path d="M128.806 150.151C128.706 150.151 128.906 150.151 129.006 150.151L128.606 149.951L128.806 150.151Z" fill="#3E240C"/>
<path d="M124.206 151.851C123.606 151.651 123.906 151.851 123.806 151.751C123.906 151.851 124.806 152.051 124.206 151.851Z" fill="#3E240C"/>
</g>
</g>
<path d="M9.6063 92.2509C9.6063 92.2509 8.00629 135.351 11.7063 183.751C11.7063 183.751 5.5063 191.451 9.1063 201.751C9.1063 201.751 31.4063 201.751 34.3063 201.751C34.3063 201.751 40.3063 190.451 41.3063 174.951H61.1063C61.1063 174.951 68.5063 185.551 73.7063 194.451C75.3063 197.151 76.1063 200.751 77.3063 201.751C77.3063 201.751 120.206 201.751 120.906 201.751C121.606 201.751 129.006 176.751 127.406 155.051C127.306 153.951 127.206 152.851 127.106 151.751C126.506 147.151 125.406 143.351 124.006 139.951C122.606 136.751 121.006 133.951 119.006 131.351C114.406 125.151 108.406 120.451 102.406 114.651C93.5063 106.051 86.6063 88.5509 86.6063 88.5509C86.6063 88.5509 89.4063 82.7509 59.3063 81.3509C29.2063 80.0509 11.1063 84.3509 9.6063 92.2509Z" fill="#FBAF5E"/>
<path d="M61.1061 174.951L58.2061 170.551" stroke="#1B1C1E" stroke-width="1.2604" stroke-miterlimit="10" stroke-linecap="round" stroke-linejoin="round"/>
<path d="M80.0059 133.551C74.1059 145.651 67.7059 146.951 67.7059 146.951C60.2059 155.951 56.7059 156.151 56.7059 156.151C52.7059 161.451 45.0059 166.751 45.0059 166.751C39.2059 164.551 33.6059 155.551 33.6059 155.551C28.6059 154.651 24.2059 144.551 24.2059 144.551C14.5059 139.051 10.4059 124.651 9.10589 118.551C9.00589 102.551 9.4059 92.3508 9.4059 92.3508C11.0059 84.5508 29.0059 80.1508 59.1059 81.5508C89.2059 82.9508 86.4059 88.7508 86.4059 88.7508C86.4059 88.7508 87.5059 91.4508 89.3059 95.2508C96.0059 121.051 80.0059 133.551 80.0059 133.551Z" fill="#FFF0DD"/>
<path d="M86.5059 88.5508C88.2059 92.9508 87.3059 97.9509 84.0059 101.351C75.9059 109.751 59.6059 123.351 40.7059 120.651C30.8059 119.251 23.5059 115.351 18.4059 111.351C12.5059 106.751 9.30591 99.6509 9.50591 92.1509C11.1059 84.3509 29.1059 79.9509 59.2059 81.3509C89.3059 82.7509 86.5059 88.5508 86.5059 88.5508Z" fill="#D1493B"/>
<path d="M50.4061 117.151C50.4061 112.351 46.5061 108.551 41.8061 108.551C37.1061 108.551 33.2061 112.451 33.2061 117.151C33.2061 119.351 34.0061 121.351 35.4061 122.851C37.0061 124.651 39.3061 125.751 41.8061 125.751C46.5061 125.751 50.4061 121.951 50.4061 117.151Z" fill="#FFAE1F"/>
<path d="M35.3062 122.851C36.9062 124.651 39.2061 125.751 41.7061 125.751C46.5061 125.751 50.3062 121.851 50.3062 117.151" stroke="#1B1C1E" stroke-width="1.2604" stroke-miterlimit="10" stroke-linecap="round" stroke-linejoin="round"/>
<path d="M62.3058 33.2508C62.3058 33.2508 72.2058 15.6508 75.9058 2.75081C76.6058 0.350812 79.5058 -0.449188 81.4058 1.25081C88.6058 7.95081 100.706 25.1508 84.1058 56.0508C84.2058 56.0508 61.2058 47.4508 62.3058 33.2508Z" fill="#FBAF5E"/>
<path d="M83.506 49.9508C82.006 46.7508 80.106 43.5508 77.406 40.8508C74.406 37.8508 73.706 33.2508 75.306 29.3508C78.106 22.7508 80.506 14.8508 81.606 11.0508C81.906 10.0508 83.206 9.85078 83.806 10.7508C95.306 27.2508 83.506 49.9508 83.506 49.9508Z" fill="#BC763C"/>
<path d="M83.5062 49.9508C82.5062 52.0508 66.0061 45.4508 71.4061 37.2508C71.5061 37.0508 71.7061 36.7508 71.9061 36.5508C77.6061 39.7508 81.1062 44.7508 83.5062 49.9508Z" fill="#BC763C"/>
<path d="M93.206 79.4509C86.806 91.3509 75.1061 100.151 64.5061 106.251C50.3061 114.351 32.6061 112.951 20.0061 102.551C3.10605 88.6509 -1.29394 74.5509 0.306055 73.4509C1.00606 72.9509 2.20605 70.6509 3.50605 67.8509C3.50605 67.8509 8.40606 67.2509 17.4061 72.2509C26.3061 77.1509 32.9061 73.3509 34.6061 56.9509C36.5061 37.5509 39.8061 32.2509 39.8061 32.2509C42.9061 31.9509 46.7061 31.7509 50.7061 31.9509C50.7061 31.9509 43.8061 59.5509 51.7061 71.5509C57.2061 79.9509 68.7061 74.3509 75.8061 70.5509C82.8061 66.8509 88.4061 66.5509 88.4061 66.5509C88.6061 67.1509 88.7061 67.7509 88.8061 68.1509C90.3061 73.4509 93.206 79.4509 93.206 79.4509Z" fill="#FFF0DD"/>
<path d="M34.6059 33.0508C36.0059 32.6508 37.7059 32.4508 39.8059 32.1508C39.8059 32.1508 36.5059 37.4508 34.6059 56.8508C33.0059 73.1508 26.4059 77.0508 17.4059 72.1508C8.50587 67.1508 3.50586 67.7508 3.50586 67.7508C6.10586 61.8508 9.10587 53.5508 9.10587 53.5508C-3.89413 24.6508 9.80587 7.95081 17.9059 1.15081C20.0059 -0.549186 23.2059 0.650811 23.6059 3.35081C26.0059 19.0508 34.6059 33.0508 34.6059 33.0508Z" fill="#FBAF5E"/>
<path d="M88.2061 66.4508C88.2061 66.4508 82.6061 66.7508 75.6061 70.4508C68.6061 74.1508 57.1061 79.8508 51.5061 71.4508C43.7061 59.4508 50.5061 31.8508 50.5061 31.8508C56.4061 32.0508 62.6061 32.8508 67.6061 34.6508C68.7061 35.0508 69.7061 35.4508 70.7061 35.9508C71.0061 36.1508 71.4061 36.2508 71.7061 36.4508C77.4061 39.6508 81.0061 44.6508 83.3061 49.8508C84.0061 51.2508 84.5062 52.6508 85.0062 54.0508C86.8062 59.0508 87.6061 63.6508 88.2061 66.4508Z" fill="#FBAF5E"/>
<path d="M43.9059 80.9509C41.7059 82.7509 38.6059 82.6509 36.5059 80.7509C34.6059 79.0509 32.5059 76.5509 32.5059 73.7509C32.5059 70.5509 47.2059 70.4509 47.6059 73.7509C48.1059 76.5509 46.0059 79.1509 43.9059 80.9509Z" fill="#1B1C1E"/>
<path d="M28.4061 66.2508C28.4061 67.8508 27.2061 69.6508 25.4061 69.5508C23.5061 69.3508 22.7061 67.6508 22.7061 66.1508C22.7061 64.5508 24.1061 63.3508 25.6061 63.3508C27.2061 63.3508 28.4061 64.6508 28.4061 66.2508Z" fill="#1B1C1E"/>
<path d="M59.1059 67.1509C59.1059 68.7509 57.8059 70.3509 56.3059 70.2509C54.7059 70.2509 53.4059 68.5509 53.5059 66.9509C53.5059 65.3509 54.9059 64.1509 56.4059 64.1509C57.9059 64.2509 59.1059 65.5509 59.1059 67.1509Z" fill="#1B1C1E"/>
<path d="M19.3063 40.2507C15.6063 43.3507 12.8063 47.1507 11.1063 49.9507C-0.793746 27.7507 16.3063 2.65073 16.9063 12.4507C17.2063 17.5507 19.7063 24.1507 21.9063 29.2507C23.7063 33.0507 22.6063 37.5507 19.3063 40.2507Z" fill="#BC763C"/>
<mask id="mask1_205_2433" style="mask-type:luminance" maskUnits="userSpaceOnUse" x="24" y="165" width="18" height="25">
<path d="M41.3061 174.951C41.0061 180.251 40.0061 185.051 39.0061 189.151C27.9061 181.951 25.2061 168.951 24.7061 165.751C31.3061 175.851 41.3061 174.951 41.3061 174.951Z" fill="white"/>
</mask>
<g mask="url(#mask1_205_2433)">
<g opacity="0.62">
<path d="M35.3061 173.451C35.3061 173.551 35.2061 173.651 35.2061 173.751C35.2061 173.751 35.3061 173.651 35.3061 173.451Z" fill="#3E240C"/>
<path d="M31.5063 171.651L31.7063 171.351C31.7063 171.451 31.6063 171.551 31.5063 171.651Z" fill="#3E240C"/>
<path d="M34.5062 175.951C34.5062 176.051 34.5063 176.151 34.4062 176.451L34.5062 175.951Z" fill="#3E240C"/>
<path d="M33.4062 177.051C33.4062 177.151 33.3062 177.151 33.3062 177.251C33.3062 177.151 33.3062 177.151 33.4062 177.051Z" fill="#3E240C"/>
<path d="M39.0063 173.851C39.0063 173.751 39.0063 173.751 39.0063 173.751C39.1063 173.751 39.0063 173.751 39.0063 173.851Z" fill="#3E240C"/>
<path d="M38.9062 174.951C39.0063 175.051 38.9062 175.051 38.9062 174.951Z" fill="#3E240C"/>
<path d="M39.106 173.351C39.106 173.451 39.106 173.551 39.106 173.651C39.106 173.551 39.006 173.551 39.106 173.351Z" fill="#3E240C"/>
<path d="M35.4062 173.351C35.4062 173.451 35.3062 173.451 35.3062 173.551C35.4062 173.451 35.4062 173.351 35.4062 173.351Z" fill="#3E240C"/>
<path d="M30.5063 170.351C30.5063 170.251 30.5063 170.251 30.5063 170.151C30.6063 170.151 30.6063 170.251 30.5063 170.351Z" fill="#3E240C"/>
<path d="M37.8059 174.351C37.4059 175.451 37.9059 174.451 37.6059 175.451C37.6059 175.151 37.6059 175.051 37.4059 175.551C37.3059 176.151 37.6059 175.551 37.3059 176.451V176.051C37.1059 176.451 37.0059 177.251 36.9059 177.151C37.2059 175.851 36.4059 177.551 36.3059 177.251V177.351L35.9059 177.851C35.9059 177.851 35.9059 177.851 35.9059 177.951C35.9059 177.851 35.9059 177.851 36.0059 177.751C35.7059 178.351 35.4059 178.651 35.3059 178.451C35.5059 177.751 34.9059 178.051 35.0059 177.351C35.0059 177.551 35.0059 177.551 35.2059 177.451L35.5059 176.651C35.4059 176.651 35.2059 177.451 35.2059 176.851C35.7059 175.751 35.4059 176.951 35.6059 176.851C35.7059 176.551 35.7059 176.351 35.7059 176.151C35.9059 176.151 36.2059 175.851 36.0059 177.051C36.1059 176.851 36.3059 176.351 36.3059 176.251C36.2059 176.951 36.6059 175.651 36.5059 176.251C36.8059 175.151 36.4059 175.551 36.5059 174.951C36.0059 175.751 36.1059 174.851 36.0059 174.651C35.7059 175.451 35.5059 176.151 35.3059 176.551C34.9059 176.951 35.3059 176.051 35.4059 175.551C35.1059 175.751 34.8059 176.751 34.6059 176.751L34.5059 177.251C33.9059 178.251 34.6059 176.751 34.4059 176.951C34.6059 176.651 34.7059 176.451 34.8059 176.551C35.0059 176.151 35.0059 175.951 35.0059 175.951C35.2059 175.451 35.4059 174.851 35.2059 175.051C35.0059 175.751 34.9059 175.451 34.7059 175.751V175.851C34.7059 175.551 34.6059 175.651 34.6059 175.451L34.5059 175.651C34.6059 175.351 34.9059 174.551 34.7059 174.751C34.5059 175.051 34.2059 175.951 34.2059 175.751C34.0059 176.251 34.1059 176.351 34.3059 176.251C34.1059 176.351 33.6059 177.051 33.8059 177.151C33.5059 177.751 33.8059 176.851 33.6059 177.051C33.7059 176.851 33.8059 176.651 33.9059 176.451C33.5059 177.251 33.6059 176.351 33.9059 175.851L33.8059 176.351C34.2059 175.751 34.2059 175.251 34.5059 174.951C33.9059 175.851 34.4059 174.251 33.9059 175.051L34.2059 174.551C33.8059 174.751 34.2059 173.451 34.2059 173.051C34.1059 173.351 33.4059 174.451 33.8059 174.151C33.4059 174.151 33.1059 175.151 32.7059 175.551C32.3059 175.751 33.2059 174.551 33.4059 174.151V174.451C34.0059 173.151 32.8059 174.351 33.0059 173.451C32.8059 173.751 32.9059 173.651 32.9059 173.751C32.4059 174.251 32.9059 173.551 33.0059 173.251C32.8059 173.251 32.5059 173.451 32.0059 174.151C31.7059 174.251 32.3059 173.751 32.4059 173.451L32.3059 173.551L32.8059 172.651C32.5059 172.851 32.1059 173.051 31.5059 173.651C31.4059 173.351 32.7059 172.051 32.8059 171.651C32.4059 171.951 32.4059 172.151 32.2059 172.451L32.1059 172.251C31.5059 173.051 31.9059 172.751 31.2059 173.651C31.8059 172.651 31.2059 173.251 31.6059 172.451L31.7059 172.351C32.2059 171.651 31.6059 171.951 31.6059 171.751C31.3059 172.151 31.4059 172.251 31.3059 172.451C30.9059 172.651 30.9059 172.151 31.5059 171.251C31.3059 171.351 30.9059 171.451 30.7059 171.851C30.4059 171.751 31.7059 170.751 31.3059 170.751L30.7059 171.351C29.7059 171.951 31.1059 170.251 30.1059 170.751L30.8059 170.051C30.5059 170.251 30.2059 170.351 29.9059 170.551L29.7059 170.851C29.0059 171.251 30.2059 170.251 29.7059 170.551C29.9059 170.351 30.5059 170.051 30.7059 169.851C30.7059 170.651 32.0059 170.051 31.7059 171.151C31.6059 171.251 31.5059 171.351 31.4059 171.451C31.6059 171.351 31.5059 171.551 31.9059 171.151V171.051C31.9059 171.351 32.8059 170.551 32.8059 170.551C32.4059 171.051 33.2059 170.551 32.4059 171.351L32.9059 170.851C32.7059 171.151 32.3059 171.551 32.2059 171.751C32.3059 171.751 32.6059 171.451 32.7059 171.151C33.2059 171.051 33.5059 171.451 33.6059 171.951L33.8059 171.451C34.0059 171.251 33.5059 172.351 34.2059 171.251C34.0059 171.751 34.8059 171.151 34.0059 172.351C34.9059 171.251 34.7059 172.151 34.8059 172.451C34.1059 173.451 34.8059 172.851 34.6059 173.351C35.1059 172.551 34.9059 172.451 35.2059 171.951C34.7059 173.351 36.3059 171.351 35.2059 173.451C35.3059 173.351 35.3059 173.251 35.4059 173.251C35.4059 173.251 35.7059 172.951 35.8059 172.851C35.6059 173.251 35.5059 173.351 35.5059 173.551C35.6059 173.551 35.9059 172.951 36.0059 172.651C35.9059 173.251 36.1059 173.551 35.7059 174.451C35.9059 174.251 36.1059 173.751 36.2059 173.551C36.2059 174.351 36.5059 173.551 36.6059 174.051C36.5059 173.951 36.9059 173.151 36.7059 173.451C37.3059 172.251 37.0059 173.851 37.5059 173.251L37.3059 174.051C37.4059 174.251 37.7059 173.451 37.7059 173.151C38.1059 172.751 38.0059 173.251 38.2059 173.351C38.2059 173.251 38.3059 173.051 38.2059 173.151H38.4059C38.4059 173.351 38.3059 173.851 38.1059 174.351C38.0059 174.351 38.1059 174.051 37.8059 174.351Z" fill="#3E240C"/>
<path d="M34.106 177.351C34.206 177.151 34.306 177.051 34.306 177.051C34.206 177.251 34.106 177.351 34.106 177.351Z" fill="#3E240C"/>
<path d="M40.1061 176.951C39.9061 178.251 40.0061 176.751 39.8061 177.051C39.9061 177.251 39.7061 178.051 39.7061 178.351C39.8061 176.651 39.5061 178.651 39.2061 178.251C39.1061 178.751 39.2061 178.951 39.1061 179.551C39.0061 179.151 38.8061 178.851 38.9061 177.851C38.6061 177.751 38.4061 178.051 38.2061 177.851C38.3061 178.251 38.0061 178.751 38.0061 179.651C38.0061 178.551 37.9061 177.151 38.0061 175.751C37.7061 176.751 37.7061 176.851 37.4061 177.751C36.9061 178.351 37.6061 176.751 37.2061 176.951L37.4061 176.851C37.4061 176.551 37.6061 175.551 37.8061 174.851L38.1061 175.051C38.3061 174.351 38.1061 174.451 38.1061 174.251C38.3061 173.451 38.4061 173.751 38.6061 173.051C38.5061 173.651 38.6061 173.451 38.6061 173.751L38.7061 173.351C38.9061 172.951 38.8061 173.951 38.9061 173.951C38.9061 173.851 39.0061 173.751 39.0061 173.751C38.9061 174.151 38.9061 174.651 38.9061 174.851V174.751C38.8061 175.651 39.0061 176.251 38.6061 177.251L39.0061 177.051C39.2061 176.051 39.4061 174.551 39.3061 174.351L39.4061 173.951C39.6061 173.451 39.6061 174.751 39.3061 175.651C39.0061 178.051 39.8061 175.851 39.9061 176.851C40.0061 176.251 39.9061 175.951 39.9061 175.451C39.8061 175.351 39.8061 175.351 39.7061 175.851C39.5061 175.451 40.1061 173.851 39.8061 173.951C39.6061 174.251 39.8061 175.051 39.5061 175.051L39.7061 173.251C39.8061 173.351 39.9061 173.651 40.0061 173.851C40.2061 174.451 40.5061 174.551 40.7061 174.451C40.9061 174.351 41.0061 174.151 41.0061 174.151C41.9061 174.451 42.9061 174.651 43.8061 174.751C44.1061 174.951 44.2061 174.851 44.6061 176.651C44.6061 177.051 44.4061 176.851 44.5061 177.451C44.4061 176.751 44.2061 176.451 44.0061 176.551C44.0061 177.251 44.2061 176.851 44.2061 177.051C44.3061 177.351 44.3061 177.651 44.4061 177.651C44.3061 178.651 43.8061 178.451 43.6061 177.251C43.5061 177.951 43.8061 178.251 43.9061 178.751C43.3061 179.251 42.8061 179.251 42.2061 179.251C42.2061 178.051 42.1061 178.551 42.1061 177.751L42.0061 178.151C42.0061 177.951 42.0061 177.151 42.1061 176.951C41.7061 177.851 41.8061 175.351 41.6061 174.851V175.451C41.4061 175.351 41.4061 175.351 41.3061 174.951C40.9061 176.051 41.5061 175.151 41.3061 176.651L41.2061 176.451C41.2061 177.051 41.2061 178.051 41.3061 178.451C41.1061 177.451 40.8061 178.851 40.5061 178.051C40.5061 178.751 40.7061 179.251 40.8061 179.351C40.7061 179.451 40.5061 178.951 40.4061 179.551L40.5061 178.751C40.3061 178.651 40.4061 179.551 40.3061 180.051C39.7061 180.051 40.5061 177.451 40.1061 176.951Z" fill="#3E240C"/>
<path d="M35.606 176.251C35.706 176.251 35.7059 176.251 35.7059 176.351L35.606 176.251Z" fill="#3E240C"/>
<path d="M35.606 179.151C35.806 178.851 35.706 178.751 35.806 178.351C35.806 178.651 36.006 178.651 35.606 179.151Z" fill="#3E240C"/>
<path d="M24.8062 167.851H25.2062L24.3062 168.451C24.1062 168.251 24.9062 168.051 24.8062 167.851Z" fill="#3E240C"/>
<path d="M25.606 167.951L25.806 167.751C25.706 167.851 25.706 167.951 25.606 167.951Z" fill="#3E240C"/>
<path d="M25.2063 168.251L24.5063 168.751L24.9064 168.251H25.2063C25.4063 168.051 25.5064 168.051 25.6064 168.051L25.1064 168.451C25.2064 168.251 25.3063 168.151 25.2063 168.251Z" fill="#3E240C"/>
<path d="M25.2063 168.451C25.1063 168.451 25.1063 168.551 25.0063 168.551C25.1063 168.451 25.2063 168.451 25.2063 168.451Z" fill="#3E240C"/>
<path d="M26.8062 168.051C26.5062 168.151 26.2062 168.451 25.9062 168.651C25.5062 168.651 26.6061 168.051 26.2061 168.051C25.8061 168.551 25.7062 168.251 25.3062 168.351C26.0062 168.051 26.5062 167.851 26.8062 167.851L26.4062 168.151C26.3062 168.251 26.6062 168.051 26.8062 168.051Z" fill="#3E240C"/>
<path d="M26.2061 169.451L26.8061 168.951C26.5061 169.151 26.4061 168.951 25.7061 169.351C25.8061 169.251 26.0061 169.051 26.2061 168.851C25.8061 169.051 25.5061 169.151 26.0061 168.751C26.6061 168.751 26.7061 168.551 27.1061 168.751C27.2061 168.651 27.2061 168.651 27.2061 168.651L27.7061 168.551C26.7061 169.051 26.8061 169.351 26.2061 169.451Z" fill="#3E240C"/>
<path d="M26.8059 169.451C26.7059 169.251 27.3059 168.851 27.8059 168.651L27.5059 169.251C27.4059 169.151 27.4059 168.951 26.8059 169.451Z" fill="#3E240C"/>
<path d="M27.0062 169.551C27.4062 169.351 28.2062 168.951 27.6062 169.451C27.5062 169.351 26.6062 170.051 27.0062 169.551Z" fill="#3E240C"/>
<path d="M28.2062 170.051L27.6062 170.151C26.7062 170.651 27.4062 170.451 27.1062 170.851C26.8062 170.751 27.1062 170.651 27.5062 170.151C27.4062 170.151 27.8062 169.751 28.0062 169.551C27.5062 170.151 29.6062 168.751 28.2062 170.051Z" fill="#3E240C"/>
<path d="M27.0063 170.151L27.3064 169.951L27.2063 170.251L27.0063 170.151Z" fill="#3E240C"/>
<path d="M29.506 169.951C30.506 169.351 29.2059 170.651 29.7059 170.451C29.7059 170.351 29.806 170.351 29.906 170.251V170.451L30.106 170.251C29.506 170.751 29.406 171.051 29.106 171.451C28.406 171.851 29.706 170.851 29.006 171.251C28.806 171.451 28.4059 171.851 28.2059 172.051C28.4059 171.751 28.706 171.451 29.006 171.151C29.006 171.051 28.706 171.351 28.506 171.451C28.706 171.051 29.6059 170.451 29.2059 170.451C28.6059 170.751 28.506 171.151 28.506 170.751C29.506 170.151 28.206 170.651 28.806 170.151C28.506 170.151 27.906 170.551 27.606 170.751C28.306 170.251 28.806 169.651 29.006 169.451L28.606 170.151L29.506 169.551C29.106 169.951 29.306 169.951 29.506 169.951Z" fill="#3E240C"/>
<path d="M28.2059 171.951C28.2059 172.051 28.106 172.051 28.106 172.151C28.106 172.151 28.1059 172.051 28.2059 171.951Z" fill="#3E240C"/>
<path d="M27.4064 170.951L27.2063 171.051L27.0063 171.251L27.4064 170.951Z" fill="#3E240C"/>
<path d="M27.7061 172.551C27.7061 172.551 27.9061 172.351 28.0061 172.351L27.7061 172.751V172.551Z" fill="#3E240C"/>
<path d="M28.4062 172.251L28.9062 171.951L28.6062 172.251H28.4062Z" fill="#3E240C"/>
<path d="M31.5062 174.451C31.2062 174.651 31.6062 174.151 31.9062 173.651C32.2062 173.651 31.6062 174.151 31.5062 174.451Z" fill="#3E240C"/>
<path d="M33.0062 176.551C32.6062 176.851 32.9062 176.251 32.8062 176.151C33.1062 175.851 33.1062 176.151 33.0062 176.551Z" fill="#3E240C"/>
<path d="M32.8062 179.151C32.9062 178.951 32.9061 178.751 33.0061 178.751L33.5061 177.551C33.9061 177.251 33.1062 178.651 32.8062 179.151Z" fill="#3E240C"/>
<path d="M34.0063 179.951V179.451H34.1064C34.3064 178.951 34.3064 178.751 34.4064 178.351C34.4064 178.551 34.4063 179.051 34.0063 179.951Z" fill="#3E240C"/>
<path d="M34.406 177.951C34.306 178.151 34.206 178.351 34.406 177.951Z" fill="#3E240C"/>
<path d="M34.5062 178.151C34.5062 178.251 34.5062 178.251 34.5062 178.251C34.4062 178.151 34.4062 178.151 34.5062 178.151C34.5062 177.851 34.4062 177.951 34.5062 178.151Z" fill="#3E240C"/>
<path d="M34.406 179.351L34.706 179.651L34.506 179.851C34.706 179.051 34.106 180.151 34.406 179.351Z" fill="#3E240C"/>
<path d="M36.4062 179.351L36.7062 178.651C36.9062 178.551 36.8062 180.251 37.2062 179.051C37.0062 179.451 37.2062 179.951 36.8062 180.051C36.9062 179.451 36.6063 179.251 36.4062 179.351Z" fill="#3E240C"/>
<path d="M37.5061 178.551C37.5061 178.351 37.6061 178.151 37.7061 177.951C37.8061 177.851 37.8061 178.251 37.7061 178.551C37.9061 177.551 37.4061 179.151 37.5061 178.551Z" fill="#3E240C"/>
<path d="M38.5059 178.851C38.4059 178.851 38.4059 178.751 38.5059 178.551C38.7059 178.651 38.4059 179.451 38.4059 180.051C38.1059 180.451 38.3059 179.251 38.5059 178.851Z" fill="#3E240C"/>
<path d="M40.7063 173.451C40.6063 174.051 40.5063 173.951 40.5063 173.751C40.5063 173.951 40.6063 173.751 40.7063 173.451Z" fill="#3E240C"/>
<path d="M40.0062 178.951L39.9062 179.051L40.0062 178.051V178.951Z" fill="#3E240C"/>
<path d="M41.0062 179.551L41.1062 180.251L40.9062 180.051L41.0062 179.551Z" fill="#3E240C"/>
</g>
</g>
<path d="M16.0062 201.751C16.0062 201.751 14.5062 193.751 18.1062 190.251" stroke="#1B1C1E" stroke-width="1.2604" stroke-miterlimit="10" stroke-linecap="round" stroke-linejoin="round"/>
<path d="M24.7064 201.751C24.7064 201.751 23.3064 197.851 26.4064 191.251" stroke="#1B1C1E" stroke-width="1.2604" stroke-miterlimit="10" stroke-linecap="round" stroke-linejoin="round"/>
<path d="M41.3061 174.951C41.3061 174.951 29.1061 176.051 22.7061 162.051" stroke="#1B1C1E" stroke-width="1.2604" stroke-miterlimit="10" stroke-linecap="round" stroke-linejoin="round"/>
<path d="M100.406 201.751C100.406 201.751 102.606 196.651 101.606 188.251C100.606 179.851 93.1064 146.051 94.0064 144.451" stroke="#1B1C1E" stroke-width="1.2604" stroke-miterlimit="10" stroke-linecap="round" stroke-linejoin="round"/>
<path d="M24.3061 144.451C24.3061 144.451 22.3061 139.551 21.7061 135.351" stroke="#1B1C1E" stroke-width="1.2604" stroke-miterlimit="10" stroke-linecap="round" stroke-linejoin="round"/>
<path d="M33.8064 155.551C33.8064 155.551 32.2063 152.751 31.5063 149.451" stroke="#1B1C1E" stroke-width="1.2604" stroke-miterlimit="10" stroke-linecap="round" stroke-linejoin="round"/>
<path d="M56.8062 156.051C56.8062 156.051 60.2062 151.951 60.8062 149.351" stroke="#1B1C1E" stroke-width="1.2604" stroke-miterlimit="10" stroke-linecap="round" stroke-linejoin="round"/>
<path d="M67.7061 146.851C67.7061 146.851 73.5061 139.651 74.4061 131.751" stroke="#1B1C1E" stroke-width="1.2604" stroke-miterlimit="10" stroke-linecap="round" stroke-linejoin="round"/>
<path d="M80.0063 133.551C80.0063 133.551 82.5063 128.851 83.0063 124.151" stroke="#1B1C1E" stroke-width="1.2604" stroke-miterlimit="10" stroke-linecap="round" stroke-linejoin="round"/>
<path d="M85.1062 201.751C85.1062 201.751 82.7062 198.351 83.2062 192.151" stroke="#1B1C1E" stroke-width="1.2604" stroke-miterlimit="10" stroke-linecap="round" stroke-linejoin="round"/>
<path d="M92.3063 201.751C92.3063 201.751 91.3063 196.451 92.3063 192.151" stroke="#1B1C1E" stroke-width="1.2604" stroke-miterlimit="10" stroke-linecap="round" stroke-linejoin="round"/>
<path d="M105.506 201.751C105.506 201.751 103.206 196.751 105.906 191.351" stroke="#1B1C1E" stroke-width="1.2604" stroke-miterlimit="10" stroke-linecap="round" stroke-linejoin="round"/>
<path d="M113.106 201.751C113.106 201.751 112.106 195.851 115.606 192.151" stroke="#1B1C1E" stroke-width="1.2604" stroke-miterlimit="10" stroke-linecap="round" stroke-linejoin="round"/>
<path d="M40.5063 87.1509C40.5063 87.1509 50.4064 92.0509 55.6064 87.0509C57.3064 85.4509 57.6064 81.1509 54.3064 78.1509" stroke="#1B1C1E" stroke-width="1.2604" stroke-miterlimit="10" stroke-linecap="round" stroke-linejoin="round"/>
<path d="M40.1063 82.2509C40.1063 82.2509 39.8063 83.8509 40.5063 87.1509C40.7063 88.0509 30.3063 91.6509 26.3063 87.0509C24.9063 85.4509 24.3063 82.2509 27.3063 78.6509" stroke="#1B1C1E" stroke-width="1.2604" stroke-miterlimit="10" stroke-linecap="round" stroke-linejoin="round"/>
<path d="M36.5063 89.0508C36.5063 89.0508 37.9063 89.8508 40.7063 90.0508C43.7063 90.2508 44.9064 89.1508 44.9064 89.1508" stroke="#1B1C1E" stroke-width="1.2604" stroke-miterlimit="10" stroke-linecap="round" stroke-linejoin="round"/>
<path d="M99.3062 174.951C99.3062 174.951 103.406 174.851 105.906 170.551" stroke="#1B1C1E" stroke-width="1.2604" stroke-miterlimit="10" stroke-linecap="round" stroke-linejoin="round"/>
<path d="M127.006 151.751C126.406 147.151 125.306 143.351 123.906 139.951C122.506 136.751 120.906 133.951 118.906 131.351" stroke="#1B1C1E" stroke-width="1.2604" stroke-miterlimit="10" stroke-linecap="round" stroke-linejoin="round"/>
<mask id="mask2_205_2433" style="mask-type:luminance" maskUnits="userSpaceOnUse" x="99" y="168" width="11" height="21">
<path d="M99.3062 174.951C99.3062 174.951 101.406 174.951 103.806 173.051C106.206 171.151 107.206 168.151 107.206 168.151C107.206 168.151 110.806 177.551 109.006 182.151C107.306 186.751 101.606 188.151 101.606 188.151L99.3062 174.951Z" fill="white"/>
</mask>
<g mask="url(#mask2_205_2433)">
<g opacity="0.62">
<path d="M101.006 174.451C101.106 174.551 101.106 174.651 101.206 174.751C101.206 174.751 101.206 174.651 101.006 174.451Z" fill="#3E240C"/>
<path d="M104.106 171.551L103.806 171.351C103.906 171.451 104.006 171.451 104.106 171.551Z" fill="#3E240C"/>
<path d="M102.506 176.551C102.506 176.651 102.606 176.751 102.706 176.951L102.506 176.551Z" fill="#3E240C"/>
<path d="M104.006 177.351C104.106 177.351 104.106 177.451 104.206 177.451C104.106 177.351 104.006 177.351 104.006 177.351Z" fill="#3E240C"/>
<path d="M100.906 174.351C101.006 174.451 101.006 174.451 101.006 174.451L100.906 174.351Z" fill="#3E240C"/>
<path d="M104.806 170.051C104.806 169.951 104.806 169.951 104.706 169.851C104.506 169.951 104.606 169.951 104.806 170.051Z" fill="#3E240C"/>
<path d="M98.9062 176.051C99.6062 176.951 98.8062 176.151 99.4062 177.051C99.3062 176.851 99.3061 176.651 99.6061 177.051C99.9061 177.651 99.4062 177.051 99.9062 177.851L99.8062 177.451C100.106 177.751 100.506 178.451 100.506 178.351C99.8062 177.251 101.106 178.551 101.106 178.251V178.351L101.606 178.751C101.606 178.751 101.606 178.751 101.606 178.851C101.606 178.751 101.506 178.751 101.506 178.651C102.006 179.151 102.406 179.351 102.406 179.151C102.006 178.551 102.706 178.551 102.306 178.051C102.406 178.251 102.306 178.251 102.106 178.151L101.506 177.451C101.606 177.351 102.006 178.051 101.806 177.551C101.006 176.651 101.606 177.651 101.506 177.651C101.406 177.451 101.206 177.151 101.206 177.051C101.006 177.151 100.606 176.951 101.206 177.951C101.006 177.751 100.706 177.351 100.706 177.251C101.006 177.951 100.206 176.751 100.506 177.351C99.9062 176.451 100.406 176.651 100.106 176.151C100.806 176.751 100.506 175.951 100.506 175.651C101.006 176.251 101.406 176.851 101.806 177.251C102.306 177.551 101.706 176.751 101.506 176.351C101.806 176.451 102.406 177.351 102.706 177.251L102.906 177.751C103.806 178.551 102.706 177.351 102.906 177.451C102.706 177.251 102.506 177.051 102.406 177.151C102.106 176.851 102.106 176.651 102.106 176.551C101.806 176.151 101.306 175.651 101.606 175.751C102.006 176.351 102.006 176.051 102.306 176.251L102.406 176.351C102.306 176.151 102.506 176.051 102.406 175.951L102.506 176.051C102.406 175.751 101.806 175.151 102.006 175.251C102.206 175.451 102.806 176.251 102.806 176.051C103.206 176.451 103.106 176.551 102.906 176.551C103.106 176.551 103.806 177.151 103.706 177.251C104.206 177.651 103.606 176.951 103.906 177.051C103.706 176.951 103.606 176.751 103.506 176.651C104.106 177.251 103.806 176.451 103.306 176.051L103.506 176.551C103.006 176.051 102.806 175.651 102.406 175.351C103.306 176.051 102.306 174.751 103.006 175.251L102.506 174.951C103.006 174.951 102.106 173.951 102.106 173.551C102.306 173.851 103.306 174.651 102.806 174.551C103.206 174.451 103.806 175.251 104.306 175.551C104.806 175.651 103.506 174.751 103.206 174.451L103.306 174.751C102.306 173.751 103.906 174.451 103.406 173.751C103.706 173.951 103.506 173.951 103.606 174.051C104.306 174.351 103.606 173.851 103.406 173.651C103.606 173.651 103.906 173.651 104.606 174.251C104.906 174.251 104.106 173.951 104.006 173.751L104.206 173.851L103.506 173.151C103.806 173.251 104.306 173.351 105.006 173.751C105.006 173.351 103.406 172.551 103.206 172.151C103.706 172.251 103.806 172.551 104.006 172.751V172.551C104.806 173.151 104.306 173.051 105.306 173.651C104.406 172.851 105.106 173.251 104.606 172.651H104.506C103.906 172.151 104.506 172.251 104.406 172.051C104.806 172.351 104.806 172.451 104.906 172.651C105.306 172.751 105.206 172.151 104.306 171.551C104.506 171.551 104.906 171.551 105.306 171.951C105.606 171.751 104.006 171.151 104.406 171.051L105.106 171.451C106.206 171.651 104.406 170.551 105.506 170.751L104.606 170.351C105.006 170.451 105.206 170.451 105.606 170.551L105.806 170.851C106.606 171.051 105.206 170.451 105.706 170.551C105.406 170.451 104.806 170.251 104.506 170.151C104.806 170.851 103.306 170.751 103.906 171.651C104.006 171.651 104.106 171.751 104.306 171.851C104.106 171.751 104.206 172.051 103.806 171.751L103.706 171.651C103.806 171.851 102.706 171.351 102.706 171.451C103.206 171.851 102.306 171.551 103.306 172.051L102.706 171.751C103.006 171.951 103.506 172.251 103.706 172.451C103.606 172.451 103.206 172.251 103.006 172.051C102.406 172.151 102.306 172.551 102.406 173.051L102.006 172.651C101.706 172.551 102.606 173.451 101.506 172.551C101.806 173.051 100.906 172.651 102.006 173.551C100.906 172.751 101.306 173.551 101.306 173.851C102.206 174.651 101.406 174.251 101.806 174.651C101.106 174.051 101.206 173.851 100.806 173.451C101.706 174.551 99.6061 173.251 101.206 174.951C101.106 174.951 101.006 174.851 101.006 174.751C101.006 174.751 100.606 174.551 100.506 174.551C100.806 174.851 101.006 174.951 101.006 175.151C100.906 175.151 100.506 174.651 100.206 174.451C100.506 174.951 100.406 175.351 101.006 176.051C100.806 175.851 100.406 175.551 100.306 175.351C100.606 176.051 100.006 175.451 100.106 175.951C100.206 175.851 99.5062 175.151 99.9062 175.351C98.9062 174.351 99.7061 175.851 99.1061 175.451L99.6061 176.151C99.6061 176.351 99.1062 175.751 99.0062 175.451C98.5062 175.151 98.7061 175.651 98.6061 175.751C98.5061 175.651 98.4062 175.551 98.5062 175.551L98.3062 175.651C98.4062 175.851 98.6062 176.251 98.9062 176.651C98.7062 176.151 98.6062 175.851 98.9062 176.051Z" fill="#3E240C"/>
<path d="M103.406 177.851C103.206 177.751 103.106 177.651 103.106 177.651C103.206 177.651 103.306 177.751 103.406 177.851Z" fill="#3E240C"/>
<path d="M97.5062 179.251C98.1062 180.451 97.6062 178.951 97.8062 179.251C97.8062 179.451 98.1062 180.151 98.3062 180.451C97.7062 178.851 98.6062 180.651 98.7062 180.251C99.0062 180.751 98.9062 180.851 99.1062 181.451C99.1062 180.951 99.2062 180.651 98.8062 179.851C99.0062 179.751 99.4062 179.851 99.4062 179.651C99.4062 180.051 99.8062 180.451 100.106 181.251C99.8062 180.151 99.5062 178.851 99.0062 177.551C99.6062 178.451 99.7062 178.451 100.106 179.351C100.806 179.751 99.7062 178.451 100.106 178.551L99.9062 178.451C99.8062 178.151 99.3062 177.251 98.9062 176.651L98.7062 176.951C98.3062 176.351 98.5062 176.351 98.5062 176.151C98.1062 175.351 98.0062 175.751 97.7062 175.151C98.0062 175.651 97.8062 175.551 97.9062 175.851L97.7062 175.551C97.4062 175.251 97.8062 176.151 97.7062 176.151C97.6062 176.051 97.6062 175.951 97.6062 175.951C97.8062 176.351 98.0062 176.851 98.0062 176.951V176.851C98.4062 177.651 98.4062 178.351 99.1062 179.151L98.6062 179.051C98.2062 178.151 97.5062 176.751 97.6062 176.551L97.4062 176.151C97.0062 175.751 97.5062 177.051 97.9062 177.751C98.9062 179.951 97.5062 178.051 97.7062 179.051C97.4062 178.451 97.4062 178.151 97.3062 177.751C97.3062 177.651 97.4062 177.651 97.6062 178.151C97.7062 177.651 96.6062 176.351 97.0062 176.351C97.3062 176.551 97.3062 177.351 97.6062 177.351L96.9062 175.651C96.8062 175.751 96.8062 176.051 96.8062 176.351C96.8062 177.051 96.5062 177.151 96.3062 177.151C96.1062 177.151 95.9062 176.951 95.9062 176.951C95.1062 177.451 94.3062 177.951 93.4062 178.351C93.2062 178.651 93.1062 178.551 93.2062 180.351C93.3062 180.751 93.5062 180.551 93.5062 181.151C93.4062 180.451 93.5062 180.151 93.7062 180.151C93.8062 180.751 93.6062 180.451 93.7062 180.651C93.7062 180.951 93.8062 181.251 93.7062 181.251C94.1062 182.151 94.5062 181.851 94.3062 180.651C94.6062 181.251 94.4062 181.651 94.4062 182.251C95.2062 182.551 95.6062 182.351 96.2062 182.251C95.8062 181.151 96.0062 181.551 95.9062 180.751L96.1062 181.151C96.0062 180.951 95.8062 180.151 95.6062 179.951C96.2062 180.651 95.5062 178.351 95.5062 177.851L95.7062 178.451C95.8062 178.251 95.9062 178.251 95.9062 177.951C96.6062 178.851 95.7062 178.251 96.4062 179.551V179.251C96.6062 179.751 96.9062 180.751 96.9062 181.151C96.8062 180.151 97.5062 181.351 97.5062 180.551C97.7062 181.151 97.6062 181.751 97.6062 181.851C97.7062 181.851 97.8062 181.351 98.0062 181.951L97.7062 181.151C97.8062 180.951 98.0062 181.851 98.3062 182.351C98.8062 181.951 97.3062 179.851 97.5062 179.251Z" fill="#3E240C"/>
<path d="M101.606 177.151C101.506 177.151 101.506 177.151 101.506 177.251C101.506 177.251 101.606 177.251 101.606 177.151Z" fill="#3E240C"/>
<path d="M101.806 178.951C101.906 179.051 101.906 179.151 102.006 179.251C102.006 179.151 101.906 179.051 101.806 178.951Z" fill="#3E240C"/>
<path d="M102.506 179.951C102.306 179.651 102.306 179.651 102.006 179.251C102.106 179.551 102.006 179.651 102.506 179.951Z" fill="#3E240C"/>
<path d="M107.906 168.251C107.506 168.151 106.606 168.051 107.406 168.351C107.206 168.151 108.306 168.551 107.906 168.251Z" fill="#3E240C"/>
<path d="M106.806 169.051L107.406 168.951C108.406 169.251 107.706 169.151 108.106 169.451C108.406 169.251 108.006 169.251 107.506 168.851C107.606 168.751 107.106 168.551 106.906 168.351C107.506 168.951 105.106 168.151 106.806 169.051Z" fill="#3E240C"/>
<path d="M108.006 168.851L107.606 168.651L107.906 168.951L108.006 168.851Z" fill="#3E240C"/>
<path d="M105.506 169.351C104.306 169.051 106.006 169.951 105.506 169.851C105.406 169.851 105.306 169.751 105.206 169.651V169.851L104.906 169.751C105.606 170.051 105.806 170.251 106.206 170.551C107.006 170.651 105.406 170.151 106.206 170.351C106.506 170.551 106.906 170.751 107.206 170.851C106.906 170.651 106.506 170.451 106.206 170.251C106.206 170.151 106.506 170.351 106.806 170.451C106.506 170.151 105.506 169.751 105.806 169.651C106.406 169.751 106.706 170.051 106.506 169.751C105.406 169.451 106.706 169.651 106.106 169.251C106.406 169.151 107.106 169.351 107.406 169.451C106.606 169.151 105.906 168.751 105.706 168.551L106.306 169.051L105.306 168.751C105.906 169.251 105.806 169.251 105.506 169.351Z" fill="#3E240C"/>
<path d="M107.406 170.851C107.506 170.851 107.506 170.951 107.506 170.951C107.606 171.051 107.506 170.951 107.406 170.851Z" fill="#3E240C"/>
<path d="M107.906 169.651L108.006 169.751L108.306 169.851L107.906 169.651Z" fill="#3E240C"/>
<path d="M108.006 171.351C108.006 171.351 107.706 171.151 107.706 171.251L108.106 171.451L108.006 171.351Z" fill="#3E240C"/>
<path d="M107.306 171.251L106.706 171.051L107.106 171.251H107.306Z" fill="#3E240C"/>
<path d="M105.006 174.251C105.406 174.351 104.806 173.951 104.406 173.651C104.106 173.651 104.806 173.951 105.006 174.251Z" fill="#3E240C"/>
<path d="M104.106 176.651C104.506 176.851 104.106 176.251 104.206 176.251C103.906 176.051 104.006 176.351 104.106 176.651Z" fill="#3E240C"/>
<path d="M105.106 179.151C105.006 178.951 104.906 178.851 104.806 178.851L104.006 177.851C103.606 177.651 104.706 178.751 105.106 179.151Z" fill="#3E240C"/>
<path d="M104.206 180.151L104.006 179.651H103.906C103.606 179.251 103.506 179.051 103.306 178.651C103.406 179.051 103.606 179.551 104.206 180.151Z" fill="#3E240C"/>
<path d="M103.306 178.451V178.551C103.406 178.651 103.506 178.751 103.306 178.451Z" fill="#3E240C"/>
<path d="M103.206 178.651C103.206 178.651 103.206 178.751 103.306 178.751C103.306 178.651 103.306 178.651 103.206 178.651C103.206 178.451 103.106 178.451 103.206 178.651Z" fill="#3E240C"/>
<path d="M103.706 179.851L103.506 180.151L103.806 180.251C103.306 179.651 104.206 180.551 103.706 179.851Z" fill="#3E240C"/>
<path d="M101.806 180.451L101.306 179.851C101.006 179.851 101.706 181.351 100.906 180.451C101.206 180.751 101.206 181.251 101.606 181.351C101.306 180.651 101.506 180.351 101.806 180.451Z" fill="#3E240C"/>
<path d="M100.506 179.951C100.406 179.751 100.306 179.651 100.106 179.451C100.006 179.451 100.106 179.751 100.306 180.051C99.8061 179.151 100.706 180.551 100.506 179.951Z" fill="#3E240C"/>
<path d="M99.606 180.551C99.606 180.551 99.706 180.351 99.506 180.251C99.406 180.351 99.806 181.151 100.006 181.651C100.406 181.951 99.906 180.851 99.606 180.551Z" fill="#3E240C"/>
</g>
</g>
</svg>
