<svg width="129" height="174" viewBox="0 0 129 174" fill="none" xmlns="http://www.w3.org/2000/svg">
<path d="M120.598 119.52C118.698 94.2205 118.798 62.2205 119.298 37.8205C119.298 37.7205 119.298 37.5205 119.298 37.4205C119.798 16.1205 120.598 0.720459 120.598 0.720459C120.298 1.12046 111.298 15.0205 100.098 26.4205C96.9982 29.6205 93.5982 32.5205 90.2982 35.0205C90.0982 35.1205 89.8982 35.3205 89.6982 35.4205C87.7982 36.7205 85.8982 38.1205 83.9982 39.5205C81.5982 41.3205 79.1982 43.1205 76.8982 44.8205C74.6982 46.4205 72.5982 48.0205 70.6982 49.5205C65.1982 53.7205 61.2982 56.8205 61.2982 56.8205C61.2982 56.8205 58.2982 54.0205 50.0982 47.4205C46.0982 44.2205 40.9982 40.1205 34.3982 35.0205C34.0982 34.7205 33.6982 34.4205 33.3982 34.2205C29.3982 31.1205 25.8982 27.9205 22.6982 24.8205C9.8982 12.2205 3.89821 1.12046 3.59821 0.720459C2.19821 13.9205 1.0982 26.1205 0.498201 37.4205C0.398201 38.3205 0.398195 39.1205 0.398195 40.0205V40.1205C-2.0018 91.7205 5.9982 125.12 36.6982 152.22C44.6982 159.22 53.4982 164.42 62.4982 168.12C67.9982 170.42 73.5982 172.22 78.9982 173.62C105.398 180.32 128.598 177.22 128.598 177.22C128.598 177.22 123.098 151.52 120.598 119.52Z" fill="white"/>
<mask id="mask0_205_3036" style="mask-type:luminance" maskUnits="userSpaceOnUse" x="0" y="0" width="129" height="178">
<path d="M120.598 119.52C118.698 94.2205 118.798 62.2205 119.298 37.8205C119.298 37.7205 119.298 37.5205 119.298 37.4205C119.798 16.1205 120.598 0.720459 120.598 0.720459C120.298 1.12046 111.298 15.0205 100.098 26.4205C96.9982 29.6205 93.5982 32.5205 90.2982 35.0205C90.0982 35.1205 89.8982 35.3205 89.6982 35.4205C87.7982 36.7205 85.8982 38.1205 83.9982 39.5205C81.5982 41.3205 79.1982 43.1205 76.8982 44.8205C74.6982 46.4205 72.5982 48.0205 70.6982 49.5205C65.1982 53.7205 61.2982 56.8205 61.2982 56.8205C61.2982 56.8205 58.2982 54.0205 50.0982 47.4205C46.0982 44.2205 40.9982 40.1205 34.3982 35.0205C34.0982 34.7205 33.6982 34.4205 33.3982 34.2205C29.3982 31.1205 25.8982 27.9205 22.6982 24.8205C9.8982 12.2205 3.89821 1.12046 3.59821 0.720459C2.19821 13.9205 1.0982 26.1205 0.498201 37.4205C0.398201 38.3205 0.398195 39.1205 0.398195 40.0205V40.1205C-2.0018 91.7205 5.9982 125.12 36.6982 152.22C44.6982 159.22 53.4982 164.42 62.4982 168.12C67.9982 170.42 73.5982 172.22 78.9982 173.62C105.398 180.32 128.598 177.22 128.598 177.22C128.598 177.22 123.098 151.52 120.598 119.52Z" fill="white"/>
</mask>
<g mask="url(#mask0_205_3036)">
<g opacity="0.78">
<path d="M110.899 170.321C110.799 170.421 110.699 170.521 110.599 170.621C110.599 170.721 110.699 170.621 110.899 170.321Z" fill="#181716"/>
<path d="M108.599 173.021C108.499 173.121 108.299 173.221 108.099 173.421L108.599 173.021Z" fill="#181716"/>
<path d="M102.698 165.12C102.698 165.02 102.798 165.02 102.798 164.92C102.798 164.92 102.798 165.02 102.698 165.12Z" fill="#181716"/>
<path d="M101.699 165.52C101.699 165.42 101.599 165.42 101.599 165.42L101.499 165.52C101.499 165.62 101.599 165.52 101.699 165.52Z" fill="#181716"/>
<path d="M94.4982 169.321L94.1982 169.721C94.3982 169.521 94.4982 169.421 94.4982 169.321Z" fill="#181716"/>
<path d="M103.198 164.521C103.098 164.621 102.998 164.72 102.898 164.82C102.998 164.82 103.098 164.821 103.198 164.521Z" fill="#181716"/>
<path d="M110.998 170.121C110.998 170.221 110.898 170.221 110.898 170.321C110.898 170.321 110.998 170.221 110.998 170.121Z" fill="#181716"/>
<path d="M104.699 167.22C104.099 168.62 104.299 167.12 103.699 168.42C103.999 168.22 104.299 168.02 103.999 168.82C103.499 169.52 103.699 168.52 102.999 169.72L103.499 169.42C103.399 170.12 102.699 170.82 102.899 170.82C103.899 169.32 103.399 171.82 103.799 171.72L103.599 171.82V172.72V172.82C103.599 172.72 103.699 172.62 103.799 172.52C103.599 173.42 103.599 174.12 103.999 174.02C104.499 173.22 105.199 174.22 105.699 173.52C105.499 173.72 105.299 173.62 105.299 173.32L105.799 172.22C106.099 172.42 105.399 173.22 105.999 172.72C106.599 171.22 105.599 172.52 105.399 172.22C105.599 171.92 105.899 171.72 106.099 171.62C105.699 171.32 105.499 170.62 104.499 172.02C104.499 171.62 104.899 171.02 104.999 170.92C104.299 171.62 105.199 170.02 104.499 170.62C105.199 169.32 105.499 170.22 106.099 169.52C105.999 170.82 106.999 170.02 107.499 170.02C107.099 171.02 106.299 171.72 106.299 172.42C106.399 173.32 106.999 172.12 107.499 171.62C107.699 172.12 106.799 173.32 107.299 173.62L106.699 174.12C106.299 175.72 107.199 173.72 107.299 174.12C107.399 173.72 107.599 173.32 107.299 173.32C107.499 172.82 107.799 172.62 107.899 172.62V172.52C108.299 171.92 108.699 171.12 108.799 171.62C108.199 172.42 108.799 172.42 108.699 172.82L108.499 172.92C108.899 172.72 108.999 173.02 109.299 172.92L109.199 173.12C109.499 172.82 110.099 171.82 110.199 172.22C109.999 172.62 109.199 173.62 109.499 173.62C109.199 174.22 108.799 174.12 108.699 173.82C108.899 174.12 108.499 175.22 108.199 175.22C107.899 176.02 108.699 175.02 108.699 175.42C108.799 175.12 108.999 174.92 108.999 174.62C108.499 175.72 109.599 175.02 109.899 174.22L109.299 174.72C109.699 173.82 110.299 173.42 110.399 172.92C109.999 174.32 111.499 172.62 111.199 173.82L111.399 173.02C111.899 173.72 112.999 172.32 113.799 172.22C113.399 172.62 112.799 174.12 112.599 173.42C113.099 173.92 112.199 175.02 111.999 175.82C112.199 176.62 112.799 174.52 113.199 174.12L112.799 174.22C113.899 172.62 113.899 175.12 114.999 174.22C114.899 174.72 114.799 174.42 114.599 174.62C114.499 175.62 114.999 174.52 115.299 174.22C115.499 174.52 115.799 175.02 115.099 176.12C115.299 176.52 115.299 175.42 115.599 175.12V175.42L116.399 174.32C116.499 174.82 116.699 175.52 116.399 176.62C117.199 176.62 117.599 174.12 118.199 173.92C118.299 174.62 117.799 174.72 117.599 175.22H118.099C117.499 176.42 117.399 175.72 116.899 177.12C117.799 175.82 117.599 176.92 118.399 176.12V176.02C118.999 175.12 119.199 175.92 119.599 175.92C119.299 176.52 118.899 176.42 118.599 176.62C118.799 177.22 119.799 177.02 120.499 175.82C120.599 176.12 120.799 176.72 120.399 177.22C120.999 177.62 121.299 175.42 121.699 176.02L121.399 177.02C121.599 178.62 122.999 176.12 123.199 177.62L123.599 176.42C123.599 177.02 123.799 177.32 123.699 177.82L123.299 178.12C123.299 179.22 123.899 177.22 123.999 178.02C124.099 177.62 124.099 176.72 124.199 176.32C122.699 176.72 122.099 174.52 120.399 175.42C120.399 175.62 120.399 175.82 120.299 176.02C120.299 175.72 119.899 175.92 120.199 175.32L120.299 175.22C119.899 175.42 120.099 173.82 119.899 173.72C119.499 174.52 119.399 173.12 118.999 174.62L119.099 173.62C118.799 174.12 118.599 174.82 118.399 175.02C118.199 174.82 118.399 174.22 118.699 173.92C117.999 173.02 116.999 172.82 115.999 172.92L116.499 172.32C116.399 171.92 115.299 173.22 116.099 171.62C115.399 172.12 115.099 170.72 114.399 172.42C114.799 170.62 113.699 171.22 112.999 171.22C112.499 172.72 112.299 171.42 111.899 172.02C112.299 170.82 112.899 171.02 113.199 170.32C111.799 171.82 112.099 168.32 110.599 171.12C110.599 171.02 110.599 170.82 110.699 170.72C110.599 170.62 110.699 170.12 110.599 169.92C110.299 170.42 110.499 170.72 110.099 170.82C109.899 170.62 110.399 169.82 110.499 169.42C109.799 169.92 108.999 169.92 108.399 171.02C108.399 170.62 108.599 169.92 108.799 169.82C107.699 170.42 108.199 169.32 107.299 169.62C107.599 169.72 107.999 168.42 108.099 169.12C108.599 167.32 106.899 168.92 106.799 167.82L106.099 168.72C105.699 168.72 106.099 167.72 106.499 167.52C106.299 166.62 105.699 167.12 105.199 166.92C105.199 166.82 105.399 166.62 105.399 166.72L104.799 166.42C104.599 166.62 104.099 167.02 103.899 167.72C104.199 167.02 104.499 166.72 104.699 167.22Z" fill="#181716"/>
<path d="M103.898 167.521L103.798 167.621C103.798 167.621 103.898 167.621 103.898 167.521Z" fill="#181716"/>
<path d="M97.1985 166.62C96.4985 168.22 97.6985 166.52 97.6985 167.12C97.2985 167.22 96.8985 168.22 96.6985 168.62C97.9985 166.72 96.8985 169.22 97.6985 169.12C97.3985 169.82 96.9984 169.72 96.5984 170.42C97.1985 170.12 97.7984 170.02 98.4984 168.92C99.0984 169.22 99.1985 169.82 99.6985 169.72C99.0985 170.02 99.0984 170.82 98.2984 171.62C99.3984 170.52 100.998 169.32 102.398 168.02C101.898 169.32 101.798 169.42 101.198 170.52C101.498 171.72 101.998 169.42 102.398 170.12L102.198 169.72C102.698 169.52 103.298 168.32 103.798 167.52L102.998 167.32C103.398 166.42 103.798 166.82 104.098 166.62C104.798 165.72 104.098 165.72 104.498 164.92C104.098 165.52 103.898 165.22 103.598 165.42L103.798 164.92C103.698 164.32 102.898 165.32 102.698 165.22C102.698 165.12 102.798 165.02 102.798 164.92C102.398 165.42 101.998 165.92 101.698 166.02H101.898C101.098 167.02 100.098 167.32 99.8984 168.72L99.2984 168.02C99.9984 166.82 101.098 165.12 101.498 165.22L101.798 164.72C101.798 163.92 100.398 165.22 100.098 166.32C98.2984 169.02 98.8984 165.82 97.7984 166.82C98.1984 166.02 98.5984 165.82 98.9984 165.42C99.1984 165.42 99.2984 165.42 98.9984 166.12C99.8984 166.02 100.098 163.52 100.698 164.22C100.898 164.82 99.5984 165.22 100.098 165.62L101.598 163.62C101.198 163.52 100.698 163.72 100.298 163.82C97.9984 164.52 97.5984 162.72 97.5984 162.72C95.1984 161.82 92.8984 160.82 90.4984 159.82C89.5984 159.72 89.3984 159.52 87.9984 161.42C87.8984 161.92 88.3984 162.02 87.8984 162.62C88.3984 161.92 88.8984 161.62 89.2984 161.92C88.8984 162.72 88.7985 162.12 88.6985 162.32V162.42C88.3985 162.82 88.1984 163.02 88.0984 163.02C87.8984 164.42 88.7984 164.62 89.8984 163.32C89.7984 164.32 88.9984 164.42 88.4984 164.92C89.3984 166.22 90.1984 166.52 91.3984 167.22C92.1984 165.82 91.9985 166.42 92.6985 165.52L92.4984 166.12C92.5984 165.82 93.2985 165.02 93.1985 164.62C93.2985 166.02 94.9984 163.22 95.7984 162.92L95.3984 163.62C95.8984 163.72 95.9984 163.72 96.4984 163.52C96.3984 165.22 95.7984 163.42 95.0984 165.32L95.3984 165.12C94.8984 165.72 94.1985 166.92 93.6985 167.22C94.8985 166.42 94.2984 168.12 95.4984 167.62C94.9984 168.42 94.0984 168.72 93.8984 168.72C94.0984 168.92 94.7984 168.52 94.3984 169.32L94.9984 168.32C95.4984 168.42 94.4984 169.22 94.2984 169.92C95.3984 170.22 96.1985 166.72 97.1985 166.62Z" fill="#181716"/>
<path d="M106.498 171.82C106.398 171.72 106.298 171.72 106.198 171.72C106.198 171.82 106.298 171.82 106.498 171.82Z" fill="#181716"/>
<path d="M103.699 172.821C103.599 172.921 103.599 173.121 103.499 173.221C103.499 173.121 103.599 173.021 103.699 172.821Z" fill="#181716"/>
<path d="M102.798 174.22C102.998 173.72 103.098 173.82 103.398 173.22C103.198 173.52 102.898 173.32 102.798 174.22Z" fill="#181716"/>
<path d="M101.298 173.421L101.698 172.421C101.398 172.021 99.8983 173.821 100.398 172.121C100.298 172.821 99.4983 173.021 99.8983 173.521C100.498 172.821 101.098 173.021 101.298 173.421Z" fill="#181716"/>
<path d="M100.498 171.32C100.698 171.12 100.698 170.82 100.798 170.52C100.698 170.32 100.298 170.72 100.198 171.12C100.898 170.02 99.9982 172.02 100.498 171.32Z" fill="#181716"/>
<path d="M98.5986 170.52C98.6986 170.52 98.8986 170.52 98.8986 170.22C98.4986 170.12 98.0986 171.22 97.5986 171.72C97.5986 172.42 98.4986 171.12 98.5986 170.52Z" fill="#181716"/>
<path d="M99.2986 162.321C98.8986 163.121 99.2986 163.121 99.4986 162.921C99.2986 163.021 99.1986 162.721 99.2986 162.321Z" fill="#181716"/>
<path d="M95.8984 168.82V169.02L96.5984 167.92L95.8984 168.82Z" fill="#181716"/>
<path d="M93.3982 168.321L92.6982 169.021H93.1982L93.3982 168.321Z" fill="#181716"/>
<path d="M93.0982 167.921L92.6982 167.821V168.221C92.6982 168.521 92.9982 167.921 93.0982 167.921Z" fill="#181716"/>
<path d="M91.9985 167.52C92.0985 167.52 91.9985 167.62 91.9985 167.72L92.5985 167.42L91.9985 167.52Z" fill="#181716"/>
<path d="M89.1982 159.621C89.6982 158.921 89.0982 159.221 89.1982 159.021C88.9982 159.221 88.5982 160.321 89.1982 159.621Z" fill="#181716"/>
</g>
</g>
<path d="M120.598 0.720459C120.598 0.720459 119.798 16.1205 119.298 37.4205C119.298 37.5205 119.298 37.7205 119.298 37.8205C118.898 58.9205 110.798 73.7205 95.798 77.7205C94.898 77.9205 93.9981 78.1205 93.0981 78.3205C92.4981 78.4205 91.7981 78.5205 91.1981 78.6205C90.2981 78.7205 89.298 78.8205 88.298 78.8205C80.698 79.0205 74.898 75.8205 70.798 71.8205C64.298 65.5205 61.598 57.2205 61.498 56.8205C61.498 56.8205 65.398 53.7205 70.898 49.5205C72.798 48.0205 74.8981 46.4205 77.0981 44.8205C79.3981 43.1205 81.7981 41.3205 84.1981 39.5205C86.0981 38.1205 87.998 36.7205 89.898 35.4205C90.098 35.3205 90.298 35.1205 90.498 35.0205C93.798 32.6205 97.198 29.6205 100.298 26.4205C111.298 15.1205 120.298 1.22046 120.598 0.720459Z" fill="#004167"/>
<path d="M61.398 56.9205C61.298 57.3205 58.298 65.6205 51.098 71.9205C46.598 75.8205 40.298 78.9205 31.998 78.9205C30.098 78.9205 28.198 78.7206 26.498 78.4205C26.498 78.4205 26.498 78.4205 26.398 78.4205C8.99797 75.4205 -0.102028 59.0205 0.397972 40.2206V40.1206C0.397972 39.2206 0.497978 38.4206 0.497978 37.5206C1.09798 26.2206 2.19798 14.0206 3.59798 0.820557C3.79798 1.22056 9.89797 12.4206 22.698 24.9206C25.798 28.0206 29.398 31.2206 33.398 34.3206C33.698 34.6206 34.098 34.9206 34.398 35.1206C40.998 40.2206 46.198 44.3206 50.098 47.5206C58.398 54.1206 61.398 56.9205 61.398 56.9205Z" fill="#004167"/>
<path d="M3.69805 0.720459C3.59805 0.720459 3.59805 0.720459 3.69805 0.720459Z" stroke="#1B1C1E" stroke-width="0.8477" stroke-miterlimit="10"/>
<path d="M66.0983 168.92C66.0983 168.92 49.2983 168.72 49.2983 174.42H81.6983C81.6983 174.42 77.0983 167.42 66.0983 168.92Z" fill="#FCBD30"/>
<path d="M56.1984 168.92C56.1984 168.92 39.3984 168.72 39.3984 174.42H71.7984C71.6984 174.42 67.0984 167.42 56.1984 168.92Z" fill="#FCBD30"/>
<path d="M111.398 61.0205C107.798 72.5205 99.7981 76.5205 95.8981 77.8205C94.9981 78.0205 94.0982 78.2205 93.1982 78.4205C92.5982 78.5205 91.8981 78.6205 91.2981 78.7205C90.3981 78.8205 89.3981 78.9205 88.3981 78.9205C80.7981 79.1205 74.9981 75.9205 70.8981 71.9205C64.3981 65.6205 61.6981 57.3205 61.5981 56.9205C61.5981 56.9205 65.4981 53.8205 70.9981 49.6205C72.8981 48.1205 74.9982 46.5205 77.1982 44.9205C79.4981 43.2205 81.8981 41.4205 84.2981 39.6205C86.1981 38.2205 88.0981 36.8205 89.9981 35.5205C90.1981 35.4205 90.3981 35.2205 90.5981 35.1205C93.8981 32.7205 97.2981 29.7205 100.398 26.5205C108.798 32.2205 115.798 46.9205 111.398 61.0205Z" fill="#E8D9CD"/>
<path d="M61.3983 56.9204C61.2983 57.3204 58.2984 65.6204 51.0984 71.9204C46.5984 75.8204 40.2983 78.9204 31.9983 78.9204C30.0983 78.9204 28.2983 78.7204 26.5983 78.4204C26.5983 78.4204 26.5983 78.4204 26.4983 78.4204C26.4983 78.4204 26.4983 78.4204 26.3983 78.4204C26.2983 78.4204 26.1983 78.4204 25.9983 78.3204C25.9983 78.3204 25.9983 78.3204 25.8983 78.3204C23.2983 77.7204 12.8983 74.7204 8.69834 61.1204C3.79834 45.5204 12.8983 29.1204 22.6983 24.9204C25.7983 28.0204 29.3983 31.2204 33.3983 34.3204C33.6983 34.6204 34.0983 34.9204 34.3983 35.1204C40.9983 40.2204 46.1983 44.3204 50.0984 47.5204C58.3983 54.1204 61.3983 56.9204 61.3983 56.9204Z" fill="#E8D9CD"/>
<path d="M100.098 48.8204C100.098 56.9204 93.4983 63.5204 85.3983 63.5204C77.5983 63.5204 71.0983 57.3204 70.7983 49.6204C72.6983 48.1204 74.7984 46.5203 76.9984 44.9203C79.2984 43.2203 81.6984 41.4204 84.0984 39.6204C85.9984 38.2204 87.8983 36.8204 89.7983 35.5204C89.9983 35.4204 90.1983 35.2204 90.3983 35.1204C95.9983 37.0204 100.098 42.4204 100.098 48.8204Z" fill="white"/>
<path d="M94.7985 48.8204C94.7985 54.0204 90.5985 58.2204 85.3985 58.2204C80.1985 58.2204 75.9985 54.0204 75.9985 48.8204C75.9985 47.4204 76.2985 46.0204 76.8985 44.8204C79.1985 43.1204 81.5985 41.3204 83.9985 39.5204C84.4985 39.4204 84.8985 39.4204 85.3985 39.4204C90.5985 39.4204 94.7985 43.6204 94.7985 48.8204Z" fill="#534E4A"/>
<path d="M61.398 56.9204C61.398 56.9204 53.198 67.5204 50.998 71.9204C50.998 71.9204 56.798 76.3204 61.198 77.8204C61.198 77.8204 67.6981 75.5204 70.6981 71.9204C70.7981 71.9204 65.098 61.1204 61.398 56.9204Z" fill="#FCBD30"/>
<mask id="mask1_205_3036" style="mask-type:luminance" maskUnits="userSpaceOnUse" x="50" y="71" width="21" height="7">
<path d="M70.6981 71.9204C67.5981 75.5204 61.198 77.8204 61.198 77.8204C56.798 76.4204 50.998 71.9204 50.998 71.9204C50.998 71.9204 57.298 70.5204 61.198 76.7204C61.198 76.7204 64.2981 71.7204 70.6981 71.9204Z" fill="white"/>
</mask>
<g mask="url(#mask1_205_3036)">
<g opacity="0.78">
<path d="M55.1981 73.3203L55.0981 73.4203C55.1981 73.4203 55.1981 73.3203 55.1981 73.3203Z" fill="#181716"/>
<path d="M58.7982 72.5205L58.6982 72.6205C58.6982 72.6205 58.7982 72.6205 58.7982 72.5205Z" fill="#181716"/>
<path d="M67.2979 72.2204L67.3978 72.1204C67.2978 72.1204 67.2979 72.1204 67.2979 72.2204Z" fill="#181716"/>
<path d="M59.5979 73.7203C59.2979 74.2203 59.3979 73.6203 59.0979 74.0203C59.1979 74.0203 59.3979 73.9203 59.1979 74.2203C58.9979 74.4203 58.9979 74.1203 58.7979 74.4203H58.9979C58.8979 74.6203 58.5979 74.8203 58.6979 74.9203C59.1979 74.5203 58.8979 75.3203 58.9979 75.4203H58.8979V75.8203C58.8979 75.8203 58.8979 75.7203 58.9979 75.7203C58.8979 76.0203 58.7979 76.3203 58.9979 76.3203C59.0979 76.2203 59.2979 76.3203 59.3979 76.3203C59.4979 76.4203 59.6979 76.6203 59.7979 76.5203C59.6979 76.5203 59.5979 76.4203 59.5979 76.3203L59.8979 76.0203C59.9979 76.1203 59.6979 76.3203 59.9979 76.3203C60.2979 75.8203 59.7979 76.1203 59.7979 76.0203C59.8979 75.9203 59.9979 75.9203 60.0979 75.9203C59.8979 75.7203 59.8979 75.4203 59.3979 75.8203C59.3979 75.7203 59.5979 75.5203 59.6979 75.5203C59.3979 75.6203 59.7979 75.2203 59.4979 75.3203C59.8979 74.9203 59.8979 75.3203 60.2979 75.2203C60.1979 75.4203 60.2979 75.5203 60.4979 75.6203C60.5979 75.6203 60.6979 75.6203 60.7979 75.6203C60.5979 76.0203 60.2979 76.2203 60.2979 76.4203C60.3979 76.8203 60.5979 76.4203 60.7979 76.2203C60.8979 76.5203 60.4979 76.9203 60.7979 77.2203C60.6979 77.3203 60.5979 77.3203 60.5979 77.3203C60.5979 78.1203 60.7979 77.2203 60.8979 77.4203C60.8979 77.2203 60.8979 77.0203 60.7979 76.9203C60.8979 76.7203 60.9979 76.6203 60.9979 76.7203C61.0979 76.4203 61.1979 76.1203 61.2979 76.4203C61.1979 76.7203 61.2979 76.8203 61.2979 77.0203V77.1203C61.3979 77.1203 61.3979 77.1203 61.3979 77.1203L61.4979 77.0203V77.1203C61.5979 76.9203 61.5979 76.3203 61.6979 76.4203C61.6979 76.6203 61.5979 77.2203 61.6979 77.1203C61.6979 77.4203 61.4979 77.6203 61.3979 77.5203C61.4979 77.5203 61.5979 78.0203 61.3979 78.1203C61.3979 78.5203 61.5979 77.8203 61.6979 77.9203C61.6979 77.8203 61.6979 77.6203 61.6979 77.5203C61.6979 78.0203 62.0979 77.3203 61.9979 77.0203L61.8979 77.4203C61.8979 77.0203 61.9979 76.6203 61.8979 76.4203C61.9979 76.7203 62.0979 76.5203 62.0979 76.4203C62.1979 76.3203 62.1979 76.1203 62.2979 76.3203L62.0979 76.0203C62.3979 76.0203 62.2979 75.3203 62.4979 75.0203C62.4979 75.2203 62.7979 75.7203 62.4979 75.7203C62.7979 75.6203 62.8979 76.2203 63.1979 76.4203C63.4979 76.5203 62.9979 75.8203 62.9979 75.6203L62.8979 75.8203C62.6979 75.1203 63.4979 75.6203 63.5979 75.0203C63.6979 75.1203 63.5979 75.1203 63.5979 75.2203C63.8979 75.4203 63.6979 75.1203 63.6979 74.9203C63.8979 74.9203 64.0979 74.9203 64.2979 75.3203C64.4979 75.3203 64.0979 75.1203 64.0979 74.9203L64.1979 75.0203L64.0979 74.5203C64.2979 74.5203 64.5979 74.7203 64.8979 75.0203C65.1979 74.7203 64.4979 74.1203 64.5979 73.8203C64.7979 73.9203 64.6979 74.1203 64.7979 74.2203L64.9979 74.0203C65.1979 74.5203 64.8979 74.3203 65.1979 74.8203C65.0979 74.2203 65.2979 74.5203 65.3979 74.1203C65.2979 73.7203 65.6979 73.8203 65.7979 73.7203C65.8979 73.9203 65.6979 74.0203 65.6979 74.2203C65.8979 74.3203 66.1979 73.9203 66.0979 73.4203C66.1979 73.4203 66.4979 73.5203 66.4979 73.7203C66.7979 73.6203 66.2979 73.1203 66.5979 73.0203L66.7979 73.3203C67.2979 73.6203 67.1979 72.6203 67.5979 72.9203L67.3979 72.5203C67.4979 72.6203 67.6979 72.6203 67.7979 72.7203L67.6979 72.9203C67.9979 73.1203 67.6979 72.6203 67.8979 72.7203C67.7979 72.6203 67.5979 72.4203 67.4979 72.3203C66.9979 72.8203 66.0979 72.5203 65.7979 73.2203C65.7979 73.2203 65.8979 73.3203 65.8979 73.4203C65.7979 73.3203 65.6979 73.5203 65.5979 73.3203C65.4979 73.5203 65.0979 73.1203 64.9979 73.1203C65.0979 73.4203 64.5979 73.2203 64.9979 73.6203L64.6979 73.4203C64.7979 73.6203 64.8979 73.8203 64.8979 73.9203C64.7979 73.9203 64.6979 73.7203 64.6979 73.6203C64.1979 73.6203 63.6979 74.0203 63.3979 74.3203V74.0203C63.1979 73.9203 63.2979 74.6203 62.9979 74.0203C62.8979 74.3203 62.3979 74.2203 62.6979 74.8203C62.4979 74.6203 62.2979 74.6203 62.1979 74.7203C62.0979 74.8203 62.0979 74.8203 61.9979 74.9203C61.9979 75.0203 61.9979 75.0203 61.9979 75.1203C62.2979 75.6203 61.9979 75.3203 61.9979 75.6203C61.7979 75.2203 61.8979 75.1203 61.7979 74.8203C61.8979 75.2203 61.7979 75.1203 61.6979 75.1203C61.5979 75.1203 61.5979 75.1203 61.5979 75.8203C61.5979 75.8203 61.5979 75.7203 61.5979 75.6203C61.5979 75.6203 61.4979 75.4203 61.4979 75.3203C61.4979 75.6203 61.4979 75.7203 61.4979 75.8203C61.4979 75.7203 61.4979 75.3203 61.4979 75.1203C61.3979 75.4203 61.2979 75.4203 61.0979 75.8203C61.0979 75.6203 61.1979 75.3203 61.1979 75.3203C60.8979 75.5203 61.0979 75.1203 60.8979 75.2203C60.9979 75.2203 61.1979 74.8203 61.1979 75.0203C61.2979 74.7203 61.3979 74.7203 61.1979 74.7203C60.9979 74.6203 60.7979 74.6203 60.7979 74.4203L60.3979 74.6203C60.1979 74.5203 60.4979 74.2203 60.5979 74.2203C60.4979 73.8203 60.1979 73.9203 59.9979 73.8203L60.0979 73.7203L59.7979 73.5203C59.6979 73.6203 59.4979 73.6203 59.3979 73.9203C59.3979 73.5203 59.5979 73.4203 59.5979 73.7203Z" fill="#181716"/>
<path d="M60.7981 77.4203C60.7981 77.2203 60.7981 77.2204 60.7981 77.1204C60.6981 77.2204 60.6981 77.3203 60.7981 77.4203Z" fill="#181716"/>
<path d="M56.0981 72.7203C55.8981 73.1203 56.2981 72.7203 56.3981 72.9203C56.1981 72.9203 56.1981 73.2203 56.0981 73.3203C56.4981 72.8203 56.1981 73.5203 56.4981 73.5203C56.3981 73.7203 56.2981 73.6203 56.0981 73.8203C56.2981 73.7203 56.5981 73.8203 56.7981 73.5203C56.9981 73.6203 57.1981 73.9203 57.2981 73.9203C56.9981 73.9203 57.0981 74.2203 56.7981 74.4203C57.1981 74.1203 57.8981 73.9203 58.4981 73.6203C58.2981 74.0203 58.2981 74.0203 57.9981 74.4203C58.0981 74.9203 58.2981 74.1203 58.4981 74.4203L58.3981 74.2203C58.5981 74.2203 58.8981 73.8203 59.0981 73.6203C58.9981 73.5203 58.7981 73.5203 58.6981 73.4203C58.8981 73.1203 59.0981 73.3203 59.1981 73.3203C59.4981 73.1203 59.1981 73.0203 59.3981 72.7203C59.1981 72.9203 59.0981 72.7203 58.8981 72.8203L58.9981 72.7203C58.8981 72.5203 58.5981 72.8203 58.3981 72.7203V72.6203C58.1981 72.7203 58.0981 72.9203 57.8981 72.9203H57.9981C57.6981 73.2203 57.1981 73.2203 57.1981 73.7203L56.8981 73.4203C57.0981 73.1203 57.4981 72.6203 57.7981 72.6203L57.8981 72.5203C57.7981 72.2203 57.2981 72.6203 57.1981 72.9203C56.5981 73.6203 56.5981 72.6203 56.1981 72.9203C56.2981 72.7203 56.4981 72.7203 56.5981 72.5203C56.6981 72.5203 56.7981 72.5203 56.6981 72.7203C57.0981 72.7203 56.9981 72.0203 57.3981 72.2203C57.4981 72.4203 56.9981 72.4203 57.1981 72.6203L57.7981 72.1203C57.5981 72.0203 57.3981 72.1203 57.1981 72.1203C56.6981 72.2203 56.2981 72.0203 56.0981 71.9203C55.8981 71.8203 55.6981 71.7203 55.6981 71.7203C54.3981 71.4203 53.0981 71.3203 51.7981 71.3203C51.3981 71.3203 51.1981 71.4203 51.0981 71.4203C51.1981 71.4203 51.3981 71.4203 51.2981 71.5203C51.2981 71.5203 51.4981 71.5203 51.6981 71.5203C51.6981 71.6203 51.4981 71.5203 51.5981 71.5203H51.4981C51.6981 71.6203 52.0981 71.8203 52.2981 71.6203C52.4981 71.7203 52.0981 71.7203 51.9981 71.7203C52.5981 72.0203 52.9981 72.1203 53.5981 72.4203C53.6981 72.1203 53.6981 72.3203 53.8981 72.1203V72.2203C53.8981 72.1203 53.9981 72.0203 53.8981 71.9203C54.1981 72.2203 54.4981 71.7203 54.7981 71.6203L54.6981 71.8203C54.8981 71.8203 54.9981 71.8203 55.1981 71.8203C55.3981 72.2203 54.8981 71.8203 54.7981 72.2203H54.8981C54.7981 72.3203 54.5981 72.6203 54.4981 72.7203C54.8981 72.6203 54.8981 73.0203 55.2981 72.9203C55.1981 73.1203 54.7981 73.1203 54.6981 73.1203C54.7981 73.2203 54.9981 73.1203 54.9981 73.3203L55.0981 73.1203C55.2981 73.2203 54.9981 73.3203 54.9981 73.5203C55.6981 73.7203 55.6981 72.7203 56.0981 72.7203Z" fill="#181716"/>
<path d="M60.2982 75.7204C60.2982 75.6204 60.1982 75.6204 60.1982 75.6204C60.1982 75.7204 60.1982 75.7204 60.2982 75.7204Z" fill="#181716"/>
<path d="M58.998 75.6204L58.8979 75.7204C58.9979 75.7204 58.998 75.7204 58.998 75.6204Z" fill="#181716"/>
<path d="M58.5981 76.0205C58.6981 75.8205 58.6981 75.9205 58.8981 75.7205C58.7981 75.8205 58.6981 75.7205 58.5981 76.0205Z" fill="#181716"/>
<path d="M70.4982 71.6204C70.3982 71.5204 70.1982 71.4204 70.1982 71.6204C70.2982 71.5204 70.3982 71.8204 70.4982 71.6204Z" fill="#181716"/>
<path d="M69.2979 71.9205H69.6979C69.8979 72.2205 69.5979 72.1205 69.5979 72.2205C69.8979 72.1205 69.6979 72.1205 69.8979 71.8205C69.9979 71.8205 69.9979 71.6205 70.0979 71.5205C69.6979 71.9205 69.3979 71.2205 69.2979 71.9205Z" fill="#181716"/>
<path d="M69.998 71.9205V71.7205L69.8979 71.9205H69.998Z" fill="#181716"/>
<path d="M68.3981 71.8204C67.9981 71.5204 68.1981 72.2204 67.8981 72.1204V72.0204L67.6981 72.1204L67.5981 72.0204C67.6981 72.2204 67.5981 72.4204 67.5981 72.7204C67.8981 72.9204 67.4981 72.3204 67.7981 72.6204C67.7981 72.7204 67.8981 72.9204 67.8981 73.0204C67.8981 72.8204 67.8981 72.7204 67.8981 72.5204C67.9981 72.4204 67.9981 72.6204 68.0981 72.7204C68.0981 72.5204 67.9981 72.1204 68.1981 72.1204C68.3981 72.2204 68.2981 72.5204 68.4981 72.3204C68.1981 72.0204 68.6982 72.3204 68.6982 72.0204C68.8982 72.0204 69.0981 72.2204 69.0981 72.3204C68.9981 72.0204 68.9981 71.7204 69.0981 71.6204L68.8981 71.9203L68.6982 71.6204C68.6982 71.8204 68.5981 71.8204 68.3981 71.8204Z" fill="#181716"/>
<path d="M69.2979 72.3203V72.4203L69.3979 72.5203L69.2979 72.3203Z" fill="#181716"/>
<path d="M68.0981 73.3205C68.0981 73.3205 68.098 73.2205 67.998 73.2205L68.0981 73.3205Z" fill="#181716"/>
<path d="M67.7981 73.2205L67.5981 73.0205L67.6981 73.2205H67.7981Z" fill="#181716"/>
<path d="M64.2981 75.0204C64.4981 75.1204 64.2981 74.8204 64.1981 74.6204C63.9981 74.6204 64.2981 74.8204 64.2981 75.0204Z" fill="#181716"/>
<path d="M62.1982 76.9204C62.3982 77.0204 62.4983 76.6204 62.5983 76.5204C62.3983 76.4204 62.2982 76.6204 62.1982 76.9204Z" fill="#181716"/>
<path d="M59.1982 77.4205C59.2982 77.4205 59.4983 77.5205 59.5983 77.5205L59.4982 77.4205C59.6982 77.2205 59.7982 77.2205 59.9982 77.1205C59.6982 77.0205 59.3982 77.0205 59.1982 77.4205Z" fill="#181716"/>
<path d="M60.198 77.1204C60.098 77.1204 60.098 77.1204 60.198 77.1204C59.998 77.2204 60.098 77.1204 60.198 77.1204Z" fill="#181716"/>
<path d="M59.9981 77.0205C60.0981 76.9205 60.0981 77.0205 59.9981 77.0205V77.0205Z" fill="#181716"/>
<path d="M59.0983 76.9205C58.8983 76.7205 58.8982 76.7205 58.6982 76.7205V76.9205C58.7982 76.8205 58.7982 76.8205 58.7982 76.9205C58.8982 77.0205 58.9983 77.1205 59.0983 76.9205Z" fill="#181716"/>
<path d="M58.098 75.5204L58.298 75.2204C58.198 75.0204 57.598 75.5204 57.798 74.9204C57.798 75.1204 57.498 75.1204 57.598 75.3204C57.798 75.2204 57.998 75.3204 58.098 75.5204Z" fill="#181716"/>
<path d="M57.7982 74.6203C57.8982 74.5203 57.8982 74.5203 57.8982 74.4203C57.8982 74.3203 57.6982 74.4203 57.6982 74.5203C57.8982 74.2203 57.5982 74.8203 57.7982 74.6203Z" fill="#181716"/>
<path d="M56.9981 74.1204C57.0981 74.1204 57.0981 74.1204 57.0981 74.0204C56.8981 73.9204 56.7981 74.2203 56.5981 74.4203C56.5981 74.7203 56.9981 74.3204 56.9981 74.1204Z" fill="#181716"/>
<path d="M56.5981 71.6204C56.4981 71.8204 56.6981 71.8204 56.7981 71.8204C56.6981 71.8204 56.5981 71.7204 56.5981 71.6204Z" fill="#181716"/>
<path d="M55.6982 73.3205H55.7982L55.9982 73.0205L55.6982 73.3205Z" fill="#181716"/>
<path d="M54.698 72.9204L54.498 73.0204L54.698 73.1204V72.9204Z" fill="#181716"/>
<path d="M54.4978 72.8205L54.2979 72.7205V72.8205C54.4979 72.9205 54.4978 72.7205 54.4978 72.8205Z" fill="#181716"/>
</g>
</g>
<path d="M128.598 177.32C79.398 171.82 56.098 132.62 62.098 105.82C66.898 84.6204 85.198 79.7204 91.198 78.6204C91.798 78.5204 92.398 78.5204 92.898 78.4204C92.998 78.4204 93.098 78.4204 93.098 78.4204C93.998 78.2204 94.898 78.0204 95.798 77.8204C110.798 73.8204 118.898 59.0204 119.298 37.9204C118.798 62.3204 118.698 94.2204 120.598 119.62C123.098 151.52 128.598 177.32 128.598 177.32Z" fill="#01507D"/>
<path d="M61.998 122.62C61.998 122.62 66.9981 145.32 87.5981 155.12C103.898 162.92 94.898 145.62 94.898 145.62C94.898 145.62 99.8981 154.32 107.598 157.52C114.998 160.52 115.398 153.02 115.398 153.02C115.398 153.02 119.998 159.82 125.298 158.92" stroke="#1B1C1E" stroke-miterlimit="10" stroke-linecap="round" stroke-linejoin="round"/>
<path d="M35.5984 63.5204C43.717 63.5204 50.2984 56.9389 50.2984 48.8204C50.2984 40.7018 43.717 34.1204 35.5984 34.1204C27.4799 34.1204 20.8984 40.7018 20.8984 48.8204C20.8984 56.9389 27.4799 63.5204 35.5984 63.5204Z" fill="white"/>
<path d="M35.5983 58.2204C40.7897 58.2204 44.9982 54.0119 44.9982 48.8204C44.9982 43.6289 40.7897 39.4204 35.5983 39.4204C30.4068 39.4204 26.1982 43.6289 26.1982 48.8204C26.1982 54.0119 30.4068 58.2204 35.5983 58.2204Z" fill="#1B1C1E" stroke="#1B1C1E" stroke-miterlimit="10"/>
<path d="M85.3982 63.5204C93.5168 63.5204 100.098 56.9389 100.098 48.8204C100.098 40.7018 93.5168 34.1204 85.3982 34.1204C77.2796 34.1204 70.6982 40.7018 70.6982 48.8204C70.6982 56.9389 77.2796 63.5204 85.3982 63.5204Z" fill="white"/>
<path d="M85.398 58.2204C90.5895 58.2204 94.798 54.0119 94.798 48.8204C94.798 43.6289 90.5895 39.4204 85.398 39.4204C80.2066 39.4204 75.998 43.6289 75.998 48.8204C75.998 54.0119 80.2066 58.2204 85.398 58.2204Z" fill="#1B1C1E" stroke="#1B1C1E" stroke-miterlimit="10"/>
<path d="M120.598 0.720459C119.598 4.02046 106.398 24.0205 85.3981 39.4205C81.2981 42.4205 61.3981 56.8205 61.3981 56.8205C44.6981 46.8205 12.2981 19.9205 3.59814 0.720459C3.79814 1.22046 32.6981 19.6205 34.0981 19.9205C35.5981 20.3205 89.8981 19.9205 89.8981 19.9205L120.598 0.720459Z" fill="#01507D"/>
<path d="M89.8984 20.0205C89.8984 20.0205 96.1984 20.3205 98.5984 22.4205" stroke="#1B1C1E" stroke-miterlimit="10"/>
<path d="M34.1982 20.0204C34.1982 20.0204 28.2982 19.8204 24.6982 22.0204" stroke="#1B1C1E" stroke-miterlimit="10"/>
<path d="M82.3984 133.12C82.3984 133.12 87.3984 144.72 94.9984 145.62C102.598 146.42 100.198 135.12 100.198 135.12C100.198 135.12 109.298 152.62 115.498 153.02C121.698 153.32 118.498 138.32 118.498 138.32" stroke="#1B1C1E" stroke-miterlimit="10"/>
</svg>
