<svg width="150" height="215" viewBox="0 0 150 215" fill="none" xmlns="http://www.w3.org/2000/svg">
<path d="M54.5944 11.4584C54.5944 11.4584 44.7944 1.25841 35.7944 0.45841C26.1944 -0.44159 24.0944 10.7584 32.6944 29.3584C32.6944 29.3584 49.7944 22.9584 54.5944 11.4584Z" fill="#F6EBEF"/>
<path d="M49.8942 18.2583C43.0942 25.4583 32.6942 29.3583 32.6942 29.3583C27.1942 17.5583 25.9942 8.75834 28.2942 4.15834C28.4942 3.95834 32.3942 0.858345 39.4942 7.05834C43.9942 10.8583 47.6942 15.3583 49.8942 18.2583Z" fill="#EAD6DE"/>
<path d="M95.994 13.4585C95.994 13.4585 111.894 0.958482 119.294 4.95848C126.694 8.95848 117.694 29.8585 115.094 33.7585C112.594 37.5585 92.994 20.0585 95.994 13.4585Z" fill="#F6EBEF"/>
<path d="M115.194 33.7584C113.694 35.9584 106.494 31.0584 101.294 25.2584C103.394 21.5584 108.194 13.6585 112.794 10.4585C118.094 6.85845 121.294 8.75845 122.094 9.35845C123.294 16.8584 117.194 30.6584 115.194 33.7584Z" fill="#EAD6DE"/>
<path d="M149.894 211.858C149.794 213.258 148.594 214.358 147.194 214.358C127.594 214.358 4.19425 214.258 2.39425 214.258C0.494254 214.258 -3.30575 203.258 8.09425 199.258C8.09425 199.258 4.29426 179.058 12.7943 143.158C21.5943 106.358 35.3943 85.1584 35.3943 85.1584C35.3943 85.1584 21.6943 76.7584 20.6943 60.7584C19.6943 44.6584 31.5943 25.0584 44.1943 16.4584C56.6943 7.75839 68.1943 7.65839 83.5943 9.15839C98.9943 10.6584 108.894 18.6584 117.494 30.3584C126.494 42.6584 130.494 59.9584 126.094 71.9584C122.494 81.7584 115.594 86.2584 115.594 86.2584C115.594 86.2584 117.494 89.6584 120.294 95.7584C124.694 105.058 131.294 120.558 137.094 139.158C137.494 140.458 137.894 141.758 138.194 143.058C139.094 146.258 139.794 149.458 140.494 152.558C141.994 159.858 142.794 166.858 143.194 173.158C144.194 188.658 142.594 199.558 142.594 199.558C142.594 199.558 150.794 201.558 149.894 211.858Z" fill="#F6EBEF"/>
<path d="M72.494 65.1584C72.494 65.1584 68.394 63.7584 66.494 61.3584C64.494 58.9584 65.894 56.1584 72.494 56.1584C79.494 56.1584 79.794 59.2584 77.894 61.6584C75.994 63.9584 72.494 65.1584 72.494 65.1584Z" fill="#1B1C1E" stroke="#1B1C1E" stroke-width="1.0185" stroke-miterlimit="10"/>
<path d="M72.4945 65.1585V70.5585C71.3945 70.8585 70.3945 71.2585 69.3945 71.7585C63.4945 74.9585 57.7945 67.3585 62.4945 62.5585C63.3945 61.5585 64.5945 60.7585 66.0945 59.9585" stroke="#1B1C1E" stroke-width="1.0185" stroke-miterlimit="10"/>
<path d="M72.4941 65.1585V70.5585C73.7941 70.8585 74.8941 71.3585 75.9941 71.9585C81.0941 74.8585 86.6942 68.7585 83.3942 63.9585C82.1942 62.2585 80.4941 60.8585 77.9941 59.9585" stroke="#1B1C1E" stroke-width="1.0185" stroke-miterlimit="10"/>
<path d="M67.394 73.0583C67.394 73.0583 69.694 74.2584 72.194 74.2584C74.494 74.2584 77.994 73.2584 77.994 73.2584" stroke="#1B1C1E" stroke-width="1.0185" stroke-miterlimit="10"/>
<path d="M50.9942 47.0583C48.1942 47.0583 44.5942 47.7584 42.5942 50.6584C39.7942 54.9584 43.1942 60.3584 49.9942 60.4584C56.7942 60.5584 60.5942 57.0583 59.3942 52.5583C58.1942 48.0583 52.6942 47.0583 50.9942 47.0583Z" fill="#FBAF5E" stroke="#1B1C1E" stroke-miterlimit="10"/>
<path d="M50.9941 59.2584C53.4794 59.2584 55.4941 56.7064 55.4941 53.5584C55.4941 50.4104 53.4794 47.8584 50.9941 47.8584C48.5089 47.8584 46.4941 50.4104 46.4941 53.5584C46.4941 56.7064 48.5089 59.2584 50.9941 59.2584Z" fill="#1B1C1E"/>
<path d="M94.5942 47.0583C97.3942 47.0583 100.994 47.7584 102.994 50.6584C105.794 54.9584 102.394 60.3584 95.5942 60.4584C88.7942 60.5584 84.9942 57.0583 86.1942 52.5583C87.3942 48.0583 92.8942 47.0583 94.5942 47.0583Z" fill="#FBAF5E" stroke="#1B1C1E" stroke-miterlimit="10"/>
<path d="M94.5943 59.2584C97.0244 59.2584 98.9943 56.7064 98.9943 53.5584C98.9943 50.4104 97.0244 47.8584 94.5943 47.8584C92.1643 47.8584 90.1943 50.4104 90.1943 53.5584C90.1943 56.7064 92.1643 59.2584 94.5943 59.2584Z" fill="#1B1C1E"/>
<path d="M22.7944 165.858C22.7944 165.858 30.1944 212.958 33.1944 214.358" stroke="#1B1C1E" stroke-miterlimit="10"/>
<path d="M63.9941 214.258C63.9941 214.258 64.4941 207.458 59.6941 204.658C54.8941 201.958 54.8941 199.858 54.3941 188.858C53.8941 177.958 54.3941 127.758 54.3941 127.758" stroke="#1B1C1E" stroke-miterlimit="10"/>
<path d="M106.494 214.258C106.494 214.258 110.394 211.558 117.394 163.358" stroke="#1B1C1E" stroke-miterlimit="10"/>
<path d="M56.7943 214.358C56.7943 214.358 57.0943 210.258 54.6943 208.158" stroke="#1B1C1E" stroke-miterlimit="10"/>
<path d="M46.3943 214.258C46.3943 214.258 45.8943 211.958 44.1943 211.258" stroke="#1B1C1E" stroke-miterlimit="10"/>
<path d="M86.2945 214.258C86.2945 214.258 85.6945 210.458 87.8945 208.158" stroke="#1B1C1E" stroke-miterlimit="10"/>
<path d="M95.0942 214.258C95.0942 214.258 95.3942 210.658 96.6942 209.558" stroke="#1B1C1E" stroke-miterlimit="10"/>
<path d="M142.494 199.559C142.494 199.559 131.694 196.959 124.794 202.659" stroke="#1B1C1E" stroke-miterlimit="10"/>
<path d="M141.394 206.958C141.394 206.958 142.494 212.459 141.094 214.359" stroke="#1B1C1E" stroke-miterlimit="10"/>
<path d="M132.694 214.258C132.694 214.258 131.594 211.358 132.494 208.358" stroke="#1B1C1E" stroke-miterlimit="10"/>
<path d="M7.99414 199.258C7.99414 199.258 12.8941 197.458 17.3941 199.258" stroke="#1B1C1E" stroke-miterlimit="10"/>
<path d="M6.99414 214.258C6.99414 214.258 5.99414 209.658 7.99414 207.758" stroke="#1B1C1E" stroke-miterlimit="10"/>
<path d="M14.6943 214.258C14.6943 214.258 15.7943 211.858 16.3943 209.758" stroke="#1B1C1E" stroke-miterlimit="10"/>
<path d="M138.194 143.058C126.594 144.658 114.194 135.958 111.994 120.358C110.094 106.958 116.894 98.8583 120.194 95.7583C124.594 105.058 131.194 120.558 136.994 139.158C137.394 140.458 137.794 141.758 138.194 143.058Z" fill="#513F3B"/>
<path d="M143.094 173.158C139.294 171.958 135.994 168.758 135.694 163.358C135.394 157.858 137.894 154.458 140.494 152.558C141.894 159.858 142.694 166.858 143.094 173.158Z" fill="#FBAF5E"/>
<path d="M87.9941 127.858C87.9941 127.858 87.4941 197.858 83.7941 201.858C80.1941 205.958 76.6941 208.958 78.1941 214.158" stroke="#1B1C1E" stroke-miterlimit="10"/>
<path d="M52.2941 34.2583C44.2941 40.8583 32.494 39.0583 26.394 37.4583C30.894 28.7583 37.394 20.9583 44.094 16.3583C50.694 11.7583 56.994 9.5583 63.694 8.7583C63.694 8.7583 64.9941 23.7583 52.2941 34.2583Z" fill="#FBAF5E"/>
<mask id="mask0_205_2874" style="mask-type:luminance" maskUnits="userSpaceOnUse" x="92" y="86" width="29" height="12">
<path d="M120.594 96.5583C101.594 99.5583 92.394 94.3583 92.394 94.3583C107.694 91.7583 115.494 86.2583 115.494 86.2583C115.494 86.2583 117.394 89.6583 120.194 95.7583C120.294 95.9583 120.394 96.2583 120.594 96.5583Z" fill="white"/>
</mask>
<g mask="url(#mask0_205_2874)">
<g opacity="0.88">
<path d="M109.194 92.5583C109.194 92.4583 109.194 92.3583 109.194 92.2583C109.094 92.3583 109.094 92.3583 109.194 92.5583Z" fill="#443730"/>
<path d="M107.994 89.4582C107.994 89.3582 107.894 89.3582 107.894 89.3582C107.894 89.4582 107.994 89.4582 107.994 89.4582Z" fill="#443730"/>
<path d="M115.294 90.3582L115.394 90.2582C115.294 90.1582 115.294 90.2582 115.294 90.3582Z" fill="#443730"/>
<path d="M114.894 90.0582C114.994 89.9582 114.994 89.9582 114.894 90.0582V90.0582Z" fill="#443730"/>
<path d="M115.194 91.3584C115.194 91.2584 115.194 91.1583 115.194 91.0583C115.094 91.1583 115.094 91.2584 115.194 91.3584Z" fill="#443730"/>
<path d="M100.294 94.5583C100.194 94.5583 100.194 94.6584 100.094 94.6584C100.294 94.7584 100.294 94.7583 100.294 94.5583Z" fill="#443730"/>
<path d="M113.294 91.0581C112.894 90.2581 113.494 90.9581 113.094 90.1581C113.094 90.3581 112.994 90.5581 112.794 90.1581C112.694 89.6581 113.094 90.0581 112.794 89.3581V89.6581C112.494 89.3581 112.394 88.7581 112.394 88.8581C112.694 89.8581 111.794 88.6581 111.694 88.9581V88.8581L111.294 88.5581C111.294 88.5581 111.294 88.5581 111.294 88.4581C111.294 88.5581 111.294 88.5581 111.394 88.6581C111.094 88.2581 110.794 87.9581 110.594 88.1581C110.794 88.7581 110.094 88.5581 110.194 89.0581C110.194 88.8581 110.294 88.8581 110.494 88.9581L110.794 89.6581C110.594 89.7581 110.494 89.0581 110.494 89.5581C110.894 90.4581 110.794 89.4581 110.894 89.4581C110.894 89.6581 110.894 89.8581 110.894 90.0581C111.194 89.9581 111.594 90.1581 111.394 89.2581C111.594 89.4581 111.694 89.7581 111.694 89.9581C111.694 89.3581 112.094 90.3581 111.994 89.8581C112.294 90.7581 111.794 90.4581 111.794 90.9581C111.294 90.3581 111.194 91.1581 110.994 91.3581C110.694 90.7581 110.694 90.1581 110.494 89.8581C110.094 89.5581 110.394 90.2581 110.294 90.7581C109.994 90.6581 109.894 89.7581 109.594 89.8581V89.3581C109.094 88.5581 109.594 89.7581 109.394 89.6581C109.494 89.8581 109.594 90.0581 109.794 89.9581C109.894 90.2581 109.894 90.4581 109.794 90.4581C109.894 90.8581 110.094 91.3581 109.794 91.2581C109.694 90.6581 109.494 90.9581 109.394 90.6581V90.5581C109.294 90.7581 109.094 90.7581 109.094 90.8581V90.7581C109.094 90.9581 109.294 91.6581 109.094 91.5581C108.994 91.2581 108.994 90.5581 108.794 90.6581C108.694 90.2581 108.894 90.1581 109.094 90.2581C108.894 90.1581 108.594 89.5581 108.794 89.4581C108.594 88.9581 108.694 89.7581 108.494 89.5581C108.594 89.6581 108.594 89.8581 108.694 90.0581C108.494 89.3581 108.294 90.1581 108.494 90.5581L108.594 90.1581C108.794 90.6581 108.694 91.1581 108.894 91.3581C108.494 90.5581 108.494 91.9581 108.194 91.2581L108.394 91.6581C107.894 91.5581 107.894 92.6581 107.594 92.9581C107.694 92.6581 107.394 91.7581 107.694 91.9581C107.294 91.8581 107.294 91.0581 106.994 90.6581C106.594 90.3581 107.094 91.5581 107.094 91.8581L107.194 91.6581C107.294 92.8581 106.394 91.6581 106.194 92.4581C106.094 92.1581 106.194 92.2581 106.294 92.1581C105.894 91.6581 106.194 92.3581 106.094 92.5581C105.894 92.5581 105.594 92.3581 105.494 91.6581C105.194 91.5581 105.594 92.0581 105.594 92.3581L105.494 92.2581V93.0581C105.294 92.8581 104.894 92.5581 104.694 91.9581C104.294 92.1581 104.994 93.5581 104.794 93.8581C104.494 93.5581 104.694 93.3581 104.594 93.0581L104.294 93.1581C104.194 92.3581 104.494 92.6581 104.194 91.7581C104.194 92.7581 103.994 92.0581 103.794 92.7581V92.8581C103.794 93.5581 103.394 93.1581 103.194 93.3581C103.194 92.9581 103.394 92.8581 103.494 92.6581C103.194 92.3581 102.794 92.8581 102.794 93.6581C102.694 93.5581 102.294 93.2581 102.394 92.9581C101.994 92.9581 102.494 94.1581 102.094 93.9581L101.994 93.3581C101.394 92.5581 101.394 94.3581 100.894 93.5581L100.994 94.3581C100.894 94.0581 100.694 93.9581 100.594 93.6581L100.694 93.3581C100.394 92.7581 100.594 93.9581 100.394 93.5581C100.394 93.7581 100.694 94.2581 100.794 94.5581C101.494 93.9581 102.594 94.8581 103.194 93.8581C103.094 93.7581 103.094 93.6581 103.094 93.5581C103.194 93.7581 103.294 93.4581 103.394 93.8581V93.9581C103.594 93.7581 103.994 94.5581 104.094 94.5581C103.994 94.0581 104.594 94.6581 104.294 93.8581L104.594 94.3581C104.594 94.0581 104.394 93.6581 104.494 93.4581C104.694 93.4581 104.794 93.8581 104.694 94.0581C105.294 94.2581 105.994 93.9581 106.494 93.5581V93.9581C106.694 94.1581 106.794 93.0581 106.994 94.1581C107.094 93.6581 107.794 94.2581 107.494 93.1581C107.994 94.1581 108.294 93.3581 108.594 93.1581C108.194 92.2581 108.794 92.7581 108.794 92.3581C109.094 93.0581 108.694 93.1581 108.894 93.6581C108.894 92.4581 110.294 94.0581 109.794 92.2581C109.894 92.3581 109.894 92.3581 109.894 92.4581C109.994 92.4581 110.194 92.6581 110.294 92.7581C110.194 92.4581 109.994 92.3581 110.094 92.1581C110.294 92.1581 110.394 92.6581 110.494 92.8581C110.594 92.3581 110.994 92.0581 110.694 91.2581C110.894 91.4581 111.094 91.7581 111.094 91.9581C111.294 91.2581 111.494 91.8581 111.794 91.3581C111.694 91.4581 111.994 92.1581 111.694 91.9581C112.294 92.8581 112.294 91.5581 112.794 91.8581L112.694 91.1581C112.894 90.9581 113.094 91.5581 113.094 91.8581C113.594 92.0581 113.594 91.6581 113.894 91.4581C113.994 91.5581 113.994 91.6581 113.894 91.6581L114.294 91.4581C114.294 91.2581 114.294 90.8581 114.094 90.5581C113.594 90.9581 113.594 91.2581 113.294 91.0581Z" fill="#443730"/>
<path d="M108.894 89.2583C108.994 89.3583 109.094 89.4583 109.094 89.4583C108.994 89.3583 108.894 89.2583 108.894 89.2583Z" fill="#443730"/>
<path d="M116.394 87.7583C115.894 86.8583 116.294 88.0582 115.994 87.8582C116.094 87.6582 115.794 87.1582 115.594 86.8582C115.994 88.1582 115.294 86.7582 114.994 87.1582C114.794 86.7582 114.894 86.6582 114.694 86.1582C114.694 86.5582 114.494 86.8582 114.794 87.5582C114.494 87.7582 114.094 87.5583 113.994 87.7583C114.094 87.3583 113.694 87.0582 113.594 86.3582C113.794 87.2582 113.694 88.4582 113.794 89.6582C113.394 88.9582 113.394 88.8582 113.094 88.1582C112.494 87.8582 113.294 88.9582 112.794 88.8582L112.994 88.9583C112.894 89.2583 113.194 89.9582 113.394 90.5582L113.794 90.2583C113.994 90.7583 113.694 90.8583 113.694 90.9583C113.794 91.6583 114.094 91.2583 114.294 91.7583C114.194 91.3583 114.394 91.3582 114.494 91.1582L114.594 91.4583C114.994 91.6583 114.694 90.8582 114.894 90.8582C114.994 90.9582 114.994 90.9582 114.994 91.0582C114.894 90.7582 114.794 90.2582 114.894 90.1582L114.794 90.2583C114.594 89.5583 114.794 88.9582 114.194 88.3582H114.694C114.994 89.0582 115.494 90.2583 115.194 90.4583L115.294 90.7583C115.694 91.0583 115.594 89.9582 115.094 89.3582C114.394 87.5582 115.794 88.9582 115.694 88.0582C115.994 88.5582 115.894 88.7582 115.994 89.1582C115.894 89.2582 115.894 89.3583 115.694 88.9583C115.394 89.4583 116.494 90.3583 115.994 90.4583C115.594 90.3583 115.894 89.5582 115.494 89.6582L115.894 91.0582C116.094 90.9582 116.194 90.5582 116.294 90.3582C116.794 88.9582 117.894 89.3582 117.894 89.3582C119.194 88.4582 120.494 87.4583 121.794 86.4583C122.094 85.9583 122.294 85.9582 121.594 84.6582C121.294 84.4582 121.194 84.7583 120.994 84.2583C121.294 84.7583 121.294 85.0582 120.994 85.1582C120.694 84.7582 120.994 84.8583 120.894 84.7583H120.794C120.694 84.5583 120.594 84.3583 120.694 84.2583C119.994 83.7583 119.694 84.1582 120.094 85.1582C119.594 84.8582 119.794 84.3583 119.594 83.9583C118.694 84.0583 118.294 84.3583 117.594 84.7583C118.094 85.5583 117.794 85.2583 118.094 85.9583L117.894 85.6582C117.994 85.7582 118.194 86.3583 118.494 86.4583C117.694 86.0583 118.594 87.7582 118.494 88.3582L118.294 87.9583C118.094 88.1583 117.994 88.2582 117.994 88.5582C117.194 87.9582 118.294 88.2583 117.594 87.2583V87.4583C117.394 87.0583 117.094 86.2583 117.094 85.9583C117.094 86.8583 116.494 85.9582 116.394 86.6582C116.194 86.1582 116.294 85.6583 116.394 85.4583C116.194 85.4583 116.194 85.9582 115.994 85.5582L116.294 86.1582C116.094 86.3582 115.994 85.5583 115.794 85.2583C115.194 85.5583 116.694 87.1583 116.394 87.7583Z" fill="#443730"/>
<path d="M110.494 90.0582C110.594 90.0582 110.594 90.0583 110.694 89.9583C110.594 89.9583 110.494 89.9582 110.494 90.0582Z" fill="#443730"/>
<path d="M111.094 88.4583C111.094 88.3583 110.994 88.2583 110.994 88.2583C111.094 88.2583 111.094 88.3583 111.094 88.4583Z" fill="#443730"/>
<path d="M110.894 87.5583C110.994 87.8583 110.994 87.8584 111.094 88.2584C110.994 87.9584 111.194 87.8583 110.894 87.5583Z" fill="#443730"/>
<path d="M92.6938 92.9583L92.8939 93.1583L92.9938 92.2583C92.7938 92.3583 92.8938 92.9583 92.6938 92.9583Z" fill="#443730"/>
<path d="M93.3938 93.0582V92.3582L93.0938 92.8582L93.3938 93.0582C93.2938 93.2582 93.3938 93.3582 93.3938 93.4582V93.0582Z" fill="#443730"/>
<path d="M94.2938 94.1584C94.1938 93.9584 94.2938 93.5584 94.2938 93.2584C93.9938 93.0584 94.0938 93.9584 93.8938 93.7584C94.1938 93.2584 93.6938 93.3583 93.5938 93.0583C93.6938 93.6583 93.8938 94.0584 94.0938 94.2584V93.8584C94.1938 93.7584 94.1938 93.9584 94.2938 94.1584Z" fill="#443730"/>
<path d="M95.3942 93.0583L95.2942 93.6583C95.1942 93.3583 94.8942 93.3583 94.8942 92.7583C94.7942 92.8583 94.7942 93.1583 94.7942 93.3583C94.6942 93.0583 94.5941 92.7583 94.4941 93.2583C94.9941 93.6583 94.8942 93.7583 95.2942 93.9583C95.2942 94.0583 95.2942 94.0583 95.1942 94.0583L95.4941 94.3583C95.3941 93.5583 95.6942 93.4583 95.3942 93.0583Z" fill="#443730"/>
<path d="M95.8937 93.4583C95.6937 93.5583 95.6937 94.1583 95.7937 94.4583L96.1937 93.8582C95.9937 93.9582 95.8937 94.0583 95.8937 93.4583Z" fill="#443730"/>
<path d="M96.0938 93.4582C96.1938 93.7582 96.4937 94.4582 96.4937 93.7582C96.2937 93.8582 96.2938 92.9582 96.0938 93.4582Z" fill="#443730"/>
<path d="M97.6938 93.7582L97.1938 93.4582C96.9938 92.6582 97.2939 93.1582 97.3939 92.7582C96.9939 92.6582 97.1938 92.8582 96.9938 93.4582C96.8938 93.4582 96.7938 93.8582 96.6938 94.0582C97.1938 93.3582 97.4938 95.3582 97.6938 93.7582Z" fill="#443730"/>
<path d="M96.7939 93.0583V93.4584L96.894 93.1584L96.7939 93.0583Z" fill="#443730"/>
<path d="M98.7942 94.5583C99.1942 95.4583 99.1941 93.9584 99.4941 94.2584C99.4941 94.3584 99.4941 94.3583 99.4941 94.5583L99.6942 94.4584L99.7942 94.6584C99.6942 94.0584 99.8942 93.8584 99.8942 93.3584C99.4942 92.7584 99.8941 94.0584 99.5941 93.4584C99.5941 93.1584 99.5941 92.7583 99.5941 92.5583C99.4941 92.8583 99.5941 93.2583 99.5941 93.5583C99.4941 93.6583 99.3942 93.3583 99.3942 93.0583C99.2942 93.4583 99.4942 94.2584 99.1942 94.1584C98.8942 93.6584 99.1942 93.3584 98.8942 93.6584C99.1942 94.5584 98.5941 93.5584 98.5941 94.1584C98.3941 94.0584 98.0941 93.4584 98.0941 93.1584C98.1941 93.8584 98.0941 94.4584 97.9941 94.7584L98.2942 94.1584L98.5941 94.9584C98.3941 94.3584 98.5942 94.3583 98.7942 94.5583Z" fill="#443730"/>
<path d="M97.7939 92.8582V92.6582L97.6938 92.3582L97.7939 92.8582Z" fill="#443730"/>
<path d="M99.4937 91.8583C99.3937 91.8583 99.4937 92.1583 99.4937 92.1583V91.7583V91.8583Z" fill="#443730"/>
<path d="M99.7939 92.3582L100.094 92.8582V92.4582L99.7939 92.3582Z" fill="#443730"/>
<path d="M104.694 91.6583C104.494 91.4583 104.594 91.9583 104.694 92.3583C104.994 92.3583 104.594 91.8583 104.694 91.6583Z" fill="#443730"/>
<path d="M107.394 90.0581C107.094 89.7581 107.094 90.3581 106.994 90.3581C107.194 90.5581 107.394 90.3581 107.394 90.0581Z" fill="#443730"/>
<path d="M107.894 87.7583C107.894 87.9583 107.894 88.0583 107.994 88.0583L108.194 89.0583C108.594 89.3583 108.094 88.1583 107.894 87.7583Z" fill="#443730"/>
<path d="M109.194 87.0583L109.094 87.4584H109.194C109.294 87.8584 109.294 88.0584 109.394 88.3584C109.494 88.1584 109.494 87.7583 109.194 87.0583Z" fill="#443730"/>
<path d="M109.294 88.7583C109.294 88.6583 109.394 88.6583 109.294 88.7583C109.194 88.3583 109.294 88.5583 109.294 88.7583Z" fill="#443730"/>
<path d="M109.494 88.5582V88.4583C109.394 88.5583 109.394 88.5582 109.494 88.5582C109.494 88.7582 109.394 88.7582 109.494 88.5582Z" fill="#443730"/>
<path d="M109.594 87.4584L109.894 87.1584L109.694 87.0583C109.894 87.7583 109.394 86.8584 109.594 87.4584Z" fill="#443730"/>
<path d="M111.694 87.1582L111.994 87.6582C112.294 87.6582 111.994 86.3582 112.594 87.1582C112.294 86.8582 112.494 86.4582 112.094 86.3582C112.294 87.0582 111.994 87.2582 111.694 87.1582Z" fill="#443730"/>
<path d="M112.994 87.5583C112.994 87.7583 113.094 87.8583 113.294 87.9583C113.394 87.9583 113.394 87.6583 113.194 87.4583C113.394 88.2583 112.894 87.0583 112.994 87.5583Z" fill="#443730"/>
<path d="M114.094 87.0582C113.994 87.0582 113.994 87.1583 114.094 87.2583C114.294 87.1583 113.894 86.5582 113.794 86.0582C113.494 85.8582 113.794 86.7582 114.094 87.0582Z" fill="#443730"/>
<path d="M117.794 90.1583C117.494 89.6583 117.394 89.8583 117.394 90.0583C117.394 89.9583 117.594 90.0583 117.794 90.1583Z" fill="#443730"/>
<path d="M115.794 86.3583L115.594 86.2583L115.994 86.9583L115.794 86.3583Z" fill="#443730"/>
</g>
</g>
<mask id="mask1_205_2874" style="mask-type:luminance" maskUnits="userSpaceOnUse" x="28" y="85" width="26" height="14">
<path d="M53.8944 93.1584C53.8944 93.1584 37.4944 98.5584 28.2944 98.1584C32.2944 89.6584 35.2944 85.0583 35.2944 85.0583C35.2944 85.0583 41.0944 90.4584 53.8944 93.1584Z" fill="white"/>
</mask>
<g mask="url(#mask1_205_2874)">
<g opacity="0.88">
<path d="M42.1946 88.5583C42.1946 88.6583 42.0946 88.6584 41.9946 88.7584C41.9946 88.7584 42.0946 88.7583 42.1946 88.5583Z" fill="#443730"/>
<path d="M47.9946 90.9585L48.0946 90.6584C47.9946 90.7584 47.9946 90.8585 47.9946 90.9585Z" fill="#443730"/>
<path d="M40.8947 90.2583C40.7947 90.2583 40.6947 90.3583 40.5947 90.5583L40.8947 90.2583Z" fill="#443730"/>
<path d="M36.6946 85.9583C36.5946 85.8583 36.6946 85.8583 36.6946 85.9583H36.5946C36.4946 85.9583 36.5946 85.9583 36.6946 85.9583Z" fill="#443730"/>
<path d="M32.3948 88.1584L32.1948 88.4585C32.2948 88.3585 32.3948 88.2584 32.3948 88.1584Z" fill="#443730"/>
<path d="M37.4944 85.3584C37.3944 85.3584 37.3944 85.4584 37.2944 85.5584C37.3944 85.4584 37.4944 85.4584 37.4944 85.3584Z" fill="#443730"/>
<path d="M42.1947 88.4585C42.1947 88.5585 42.1947 88.5585 42.0947 88.5585C42.1947 88.5585 42.1947 88.4585 42.1947 88.4585Z" fill="#443730"/>
<path d="M50.2944 91.4584C50.3944 91.4584 50.3944 91.4584 50.4944 91.3584C50.3944 91.2584 50.3944 91.2584 50.2944 91.4584Z" fill="#443730"/>
<path d="M38.3945 86.9583C38.0945 87.8583 38.1945 86.8583 37.7945 87.7583C37.9945 87.6583 38.0945 87.5583 37.9945 87.9583C37.6945 88.3583 37.7945 87.8583 37.3945 88.4583L37.6945 88.2583C37.6945 88.6583 37.2945 89.1583 37.3945 89.1583C37.9945 88.2583 37.6945 89.7583 37.8945 89.6583L37.7945 89.7583V90.3583C37.7945 90.3583 37.7945 90.3583 37.7945 90.4583C37.7945 90.3583 37.8945 90.3583 37.8945 90.2583C37.7945 90.7583 37.7945 91.1583 38.0945 91.1583C38.3945 90.6583 38.7945 91.2583 39.0945 90.8583C38.9945 90.9583 38.8945 90.9583 38.7945 90.7583L39.0945 90.1583C39.2945 90.2583 38.8945 90.7583 39.1945 90.4583C39.4945 89.5583 38.8945 90.3583 38.7945 90.1583C38.8945 89.9583 39.0945 89.8583 39.1945 89.7583C38.8945 89.6583 38.7945 89.2583 38.2945 90.0583C38.2945 89.8583 38.4945 89.4583 38.5945 89.4583C38.1945 89.8583 38.6945 88.8583 38.2945 89.2583C38.6945 88.4583 38.8945 88.9583 39.1945 88.5583C39.1945 89.3583 39.6945 88.8583 40.0945 88.7583C39.8945 89.3583 39.4945 89.8583 39.3945 90.2583C39.4945 90.7583 39.7945 90.0583 40.0945 89.7583C40.1945 90.0583 39.6945 90.7583 39.9945 90.9583L39.6945 91.2583C39.4945 92.1583 39.9945 90.9583 40.0945 91.2583C40.0945 91.0583 40.1945 90.7583 40.0945 90.7583C40.1945 90.4583 40.3945 90.3583 40.3945 90.3583C40.5945 89.9583 40.7945 89.5583 40.8945 89.7583C40.5945 90.2583 40.8945 90.1583 40.8945 90.4583L40.7945 90.5583C40.9945 90.4583 41.0945 90.5583 41.2945 90.4583L41.1945 90.5583C41.3945 90.3583 41.6945 89.7583 41.7945 89.9583C41.6945 90.2583 41.1945 90.8583 41.4945 90.7583C41.2945 91.1583 41.0945 91.0583 40.9945 90.8583C41.0945 91.0583 40.9945 91.7583 40.6945 91.6583C40.5945 92.1583 40.9945 91.5583 40.9945 91.7583C40.9945 91.5583 41.0945 91.4583 41.1945 91.2583C40.9945 91.9583 41.5945 91.4583 41.6945 90.9583L41.3945 91.2583C41.5945 90.7583 41.8945 90.4583 41.9945 90.1583C41.7945 91.0583 42.5945 89.9583 42.4945 90.6583L42.5945 90.1583C42.8945 90.5583 43.4945 89.6583 43.9945 89.5583C43.7945 89.7583 43.4945 90.7583 43.2945 90.3583C43.5945 90.6583 43.0945 91.3583 43.0945 91.8583C43.2945 92.2583 43.4945 91.0583 43.6945 90.7583L43.3945 90.8583C43.9945 89.8583 44.0945 91.3583 44.6945 90.7583C44.5945 91.0583 44.5945 90.8583 44.4945 90.9583C44.4945 91.5583 44.6945 90.8583 44.8945 90.7583C45.0945 90.8583 45.1945 91.2583 44.8945 91.8583C45.0945 92.0583 44.9945 91.4583 45.1945 91.2583V91.4583L45.5945 90.7583C45.6945 91.0583 45.7945 91.4583 45.6945 92.1583C46.1945 92.1583 46.2945 90.6583 46.6945 90.4583C46.7945 90.8583 46.4945 90.9583 46.3945 91.2583H46.6945C46.3945 91.9583 46.2945 91.5583 45.9945 92.4583C46.4945 91.5583 46.3945 92.2583 46.7945 91.7583V91.6583C47.0945 91.0583 47.2945 91.5583 47.4945 91.5583C47.2945 91.9583 47.0945 91.8583 46.9945 92.0583C47.0945 92.4583 47.6945 92.2583 48.0945 91.4583C48.1945 91.6583 48.2945 91.9583 48.0945 92.2583C48.4945 92.4583 48.4945 91.1583 48.7945 91.4583L48.5945 92.0583C48.7945 93.0583 49.4945 91.4583 49.6945 92.2583L49.8945 91.5583C49.8945 91.8583 49.9945 92.0583 49.9945 92.3583L49.7945 92.5583C49.7945 93.2583 50.0945 91.9583 50.1945 92.4583C50.1945 92.2583 50.1945 91.6583 50.1945 91.4583C49.2945 91.7583 48.7945 90.5583 47.8945 91.0583C47.8945 91.1583 47.8945 91.2583 47.8945 91.3583C47.8945 91.1583 47.6945 91.3583 47.7945 90.9583C47.5945 91.0583 47.5945 90.1583 47.4945 90.0583C47.2945 90.5583 47.0945 89.7583 46.9945 90.6583V90.0583C46.8945 90.3583 46.7945 90.7583 46.6945 90.9583C46.5945 90.8583 46.6945 90.5583 46.7945 90.3583C46.3945 89.8583 45.6945 89.7583 45.0945 89.8583L45.3945 89.4583C45.2945 89.2583 44.6945 90.0583 45.0945 89.0583C44.6945 89.3583 44.4945 88.5583 44.0945 89.6583C44.2945 88.5583 43.5945 89.0583 43.1945 89.0583C42.9945 89.9583 42.7945 89.1583 42.5945 89.5583C42.7945 88.8583 43.0945 88.9583 43.2945 88.4583C42.5945 89.4583 42.5945 87.3583 41.7945 89.0583C41.7945 88.9583 41.7945 88.8583 41.7945 88.8583C41.6945 88.8583 41.7945 88.4583 41.6945 88.3583C41.4945 88.6583 41.5945 88.8583 41.3945 88.8583C41.2945 88.7583 41.5945 88.2583 41.5945 88.0583C41.1945 88.3583 40.6945 88.3583 40.3945 89.0583C40.3945 88.8583 40.4945 88.3583 40.5945 88.2583C39.9945 88.6583 40.2945 87.9583 39.6945 88.1583C39.8945 88.1583 40.0945 87.4583 40.1945 87.8583C40.3945 86.7583 39.4945 87.7583 39.3945 87.1583L38.9945 87.7583C38.7945 87.7583 38.9945 87.1583 39.1945 86.9583C38.9945 86.4583 38.6945 86.7583 38.4945 86.6583C38.4945 86.5583 38.5945 86.4583 38.5945 86.4583L38.2945 86.2583C38.1945 86.3583 37.8945 86.6583 37.7945 87.0583C38.1945 86.7583 38.2945 86.5583 38.3945 86.9583Z" fill="#443730"/>
<path d="M37.9946 87.0583C37.8946 87.1583 37.9946 87.1583 37.9946 87.0583V87.0583Z" fill="#443730"/>
<path d="M33.9946 86.5585C33.5946 87.5585 34.2946 86.5585 34.2946 86.8585C34.0946 86.9585 33.7946 87.4585 33.6946 87.7585C34.4946 86.6585 33.7946 88.1585 34.2946 88.0585C34.0946 88.4585 33.8946 88.4585 33.6946 88.8585C33.9946 88.6585 34.3946 88.6585 34.7946 87.9585C35.0946 88.0585 35.1946 88.4585 35.4946 88.4585C35.0946 88.6585 35.0946 89.1585 34.6946 89.6585C35.2946 88.9585 36.2946 88.2585 37.0946 87.4585C36.7946 88.2585 36.7946 88.3585 36.3946 88.9585C36.5946 89.6585 36.7946 88.3585 37.0946 88.6585L36.9946 88.4585C37.2946 88.3585 37.5946 87.5585 37.8946 87.1585L37.3946 87.0585C37.5946 86.5585 37.8946 86.7585 37.9946 86.6585C38.3946 86.0585 37.9946 86.1585 38.1946 85.6585C37.9946 86.0585 37.7946 85.8585 37.6946 85.9585L37.7946 85.6585C37.6946 85.2585 37.2946 85.9585 37.0946 85.8585C37.0946 85.7585 37.0946 85.7585 37.1946 85.6585C36.9946 85.9585 36.6946 86.2585 36.5946 86.3585H36.6946C36.1946 86.9585 35.5946 87.1585 35.4946 88.0585L35.1946 87.6585C35.5946 86.9585 36.1946 85.8585 36.4946 85.9585L36.6946 85.6585C36.6946 85.1585 35.8946 85.9585 35.6946 86.6585C34.5946 88.2585 34.9946 86.3585 34.2946 86.9585C34.4946 86.4585 34.7946 86.3585 34.9946 86.0585C35.0946 86.0585 35.1946 86.0585 34.9946 86.4585C35.4946 86.3585 35.6946 84.9585 35.9946 85.3585C36.0946 85.6585 35.2946 85.9585 35.5946 86.1585L36.4946 84.9585C36.2946 84.8585 35.9946 85.0585 35.7946 85.0585C34.4946 85.4585 34.1946 84.3585 34.1946 84.3585C32.7946 83.7585 31.4946 83.1585 30.1946 82.4585C29.6946 82.3585 29.5946 82.2585 28.5946 83.2585C28.4946 83.5585 28.7946 83.6585 28.4946 83.9585C28.8946 83.5585 29.1946 83.4585 29.2946 83.5585C28.9946 83.9585 28.9946 83.6585 28.9946 83.7585V83.8585C28.7946 84.0585 28.6946 84.1585 28.5946 84.1585C28.3946 84.9585 28.8946 85.1585 29.6946 84.4585C29.5946 85.0585 29.0946 85.0585 28.7946 85.3585C29.2946 86.1585 29.7946 86.3585 30.4946 86.8585C30.9946 86.0585 30.8946 86.3585 31.2946 85.9585L31.1946 86.2585C31.2946 86.0585 31.6946 85.5585 31.5946 85.3585C31.5946 86.2585 32.6946 84.5585 33.1946 84.3585L32.8946 84.7585C33.1946 84.8585 33.1946 84.8585 33.5946 84.7585C33.4946 85.7585 33.1946 84.6585 32.6946 85.7585L32.8946 85.6585C32.5946 86.0585 32.1946 86.6585 31.8946 86.8585C32.5946 86.3585 32.2946 87.4585 32.9946 87.1585C32.6946 87.5585 32.0946 87.7585 31.9946 87.7585C32.0946 87.8585 32.4946 87.6585 32.2946 88.1585L32.5946 87.5585C32.8946 87.6585 32.2946 88.0585 32.0946 88.4585C32.8946 88.7585 33.3946 86.6585 33.9946 86.5585Z" fill="#443730"/>
<path d="M39.5945 89.5584C39.5945 89.4584 39.4945 89.4584 39.3945 89.5584C39.3945 89.5584 39.4945 89.5584 39.5945 89.5584Z" fill="#443730"/>
<path d="M37.8944 90.2583C37.8944 90.3583 37.7944 90.4583 37.7944 90.4583C37.8944 90.4583 37.8944 90.3583 37.8944 90.2583Z" fill="#443730"/>
<path d="M37.4946 91.0585C37.5946 90.7585 37.6946 90.7585 37.8946 90.4585C37.6946 90.6585 37.4946 90.5585 37.4946 91.0585Z" fill="#443730"/>
<path d="M53.7946 93.8585C53.7946 93.5585 53.6946 92.8585 53.4946 93.4585C53.6946 93.3585 53.4946 94.2585 53.7946 93.8585Z" fill="#443730"/>
<path d="M52.3944 93.0583L52.6944 93.5583C52.5944 94.3583 52.4944 93.7583 52.2944 94.1583C52.5944 94.3583 52.5944 94.0583 52.8944 93.6583C52.9944 93.7583 53.1944 93.3583 53.2944 93.1583C52.6944 93.6583 52.9944 91.6583 52.3944 93.0583Z" fill="#443730"/>
<path d="M53.0945 94.0584L53.1945 93.6584L52.8945 93.9585L53.0945 94.0584Z" fill="#443730"/>
<path d="M51.5948 92.0583C51.4948 91.0583 51.0948 92.4583 50.8948 92.0583C50.8948 92.0583 50.8948 91.9583 50.9948 91.8583L50.7948 91.9583V91.7583C50.6948 92.3583 50.3948 92.4583 50.1948 92.9583C50.2948 93.6583 50.4948 92.2583 50.4948 92.9583C50.3948 93.1583 50.2948 93.5583 50.1948 93.7583C50.3948 93.4583 50.4948 93.1583 50.5948 92.8583C50.7948 92.8583 50.6948 93.1583 50.5948 93.3583C50.7948 93.0583 50.9948 92.2583 51.1948 92.4583C51.2948 92.9583 50.9948 93.2583 51.2948 93.0583C51.2948 92.1583 51.5948 93.2583 51.7948 92.6583C51.9948 92.8583 51.9948 93.4583 51.8948 93.7583C51.9948 93.0583 52.2948 92.4583 52.4948 92.2583L51.9948 92.7583V91.9583C51.8948 92.3583 51.7948 92.2583 51.5948 92.0583Z" fill="#443730"/>
<path d="M50.2948 93.6584L50.1948 93.7585C50.1948 93.7585 50.1948 93.7584 50.2948 93.6584Z" fill="#443730"/>
<path d="M51.9945 93.9585L51.8945 94.1585V94.3585L51.9945 93.9585Z" fill="#443730"/>
<path d="M49.9945 94.1584C49.9945 94.1584 50.0945 93.9584 50.0945 93.8584L49.8945 94.2584L49.9945 94.1584Z" fill="#443730"/>
<path d="M49.7948 93.6584V93.1584L49.6948 93.4585L49.7948 93.6584Z" fill="#443730"/>
<path d="M45.0947 91.9584C45.1947 92.2584 45.2947 91.7584 45.4947 91.3584C45.2947 91.1584 45.2947 91.7584 45.0947 91.9584Z" fill="#443730"/>
<path d="M41.8945 91.6583C41.8945 92.0583 42.2945 91.5583 42.3945 91.6583C42.3945 91.3583 42.0945 91.4583 41.8945 91.6583Z" fill="#443730"/>
<path d="M39.8945 93.0584C39.9945 92.8584 40.0945 92.8585 39.9945 92.7585L40.4945 91.8585C40.4945 91.3585 40.0945 92.6584 39.8945 93.0584Z" fill="#443730"/>
<path d="M38.3945 92.5584L38.7945 92.2584L38.6945 92.1584C38.8945 91.7584 38.9945 91.6584 39.1945 91.3584C38.9945 91.5584 38.6945 91.8584 38.3945 92.5584Z" fill="#443730"/>
<path d="M39.4946 91.3584H39.3946C39.3946 91.4584 39.2946 91.6584 39.4946 91.3584Z" fill="#443730"/>
<path d="M39.2944 91.3584C39.2944 91.4584 39.3944 91.3584 39.2944 91.3584C39.3944 91.2584 39.3944 91.2584 39.2944 91.3584Z" fill="#443730"/>
<path d="M38.3946 92.0585L37.9946 91.9585L38.0946 92.1585C38.2946 91.6585 38.0946 92.6585 38.3946 92.0585Z" fill="#443730"/>
<path d="M36.4946 90.6585L36.6946 90.0585C36.4946 89.8585 35.5946 90.8585 35.8946 89.9585C35.8946 90.3585 35.3946 90.4585 35.5946 90.7585C35.9946 90.3585 36.3946 90.4585 36.4946 90.6585Z" fill="#443730"/>
<path d="M35.9945 89.3583C36.0945 89.2583 36.0945 89.0583 36.1945 88.8583C36.0945 88.7583 35.8945 88.9583 35.8945 89.2583C36.1945 88.5583 35.6945 89.8583 35.9945 89.3583Z" fill="#443730"/>
<path d="M34.7948 88.8584C34.8948 88.8584 34.9948 88.8584 34.9948 88.6584C34.7948 88.5584 34.4948 89.2584 34.1948 89.5584C34.1948 90.0584 34.7948 89.2584 34.7948 88.8584Z" fill="#443730"/>
<path d="M33.1948 87.8584V88.0584L33.5948 87.3584L33.1948 87.8584Z" fill="#443730"/>
<path d="M31.6944 87.5583L31.2944 87.9584H31.5944L31.6944 87.5583Z" fill="#443730"/>
<path d="M31.4944 87.3583L31.2944 87.2583V87.4583C31.2944 87.6583 31.4944 87.2583 31.4944 87.3583Z" fill="#443730"/>
<path d="M30.8945 87.0585C30.9945 87.0585 30.8945 87.1585 30.8945 87.1585L31.2945 86.9585L30.8945 87.0585Z" fill="#443730"/>
</g>
</g>
</svg>
